<svg viewBox="0 0 1333 804" fill="none" xmlns="http://www.w3.org/2000/svg">
<g id="BigDipper">
<line id="Line 147" x1="10" y1="16.125" x2="21" y2="16.125" stroke="white" stroke-width="11"/>
<line id="Line 282" x1="1043.67" y1="792.802" x2="1053.67" y2="792.802" stroke="white" stroke-width="10"/>
<line id="Line 334" x1="1170.5" y1="573.5" x2="1180.5" y2="573.5" stroke="white" stroke-width="10"/>
<line id="Line 343" x1="152.744" y1="275.083" x2="162.744" y2="275.083" stroke="white" stroke-opacity="0.6" stroke-width="10"/>
<line id="Line 347" x1="398.043" y1="425.315" x2="408.043" y2="425.315" stroke="white" stroke-opacity="0.6" stroke-width="10"/>
<line id="Line 348" x1="686.936" y1="480.914" x2="696.936" y2="480.914" stroke="white" stroke-opacity="0.4" stroke-width="10"/>
<line id="Line 351" x1="675.5" y1="701.375" x2="685.5" y2="701.375" stroke="white" stroke-opacity="0.4" stroke-width="10"/>
<g id="Mizar 200">
<path d="M182.884 281L182.884 279.834L184.556 279.834L184.556 269.78L182.884 269.78L182.884 268.614L187.086 268.614L191.134 277.304L194.984 268.614L199.252 268.614L199.252 269.78L197.58 269.78L197.58 279.834L199.252 279.834L199.252 281L194.258 281L194.258 279.834L195.864 279.834L195.864 270.088L191.2 280.362L190.628 280.362L185.898 270.088L185.898 279.834L187.504 279.834L187.504 281L182.884 281ZM200.621 281L200.621 279.834L202.293 279.834L202.293 273.52L200.643 273.52L200.643 272.354L203.899 272.354L203.899 279.834L205.461 279.834L205.461 281L200.621 281ZM202.887 270.462C202.564 270.462 202.285 270.359 202.051 270.154C201.816 269.934 201.699 269.663 201.699 269.34C201.699 269.017 201.816 268.753 202.051 268.548C202.285 268.328 202.564 268.218 202.887 268.218C203.224 268.218 203.503 268.328 203.723 268.548C203.957 268.753 204.075 269.017 204.075 269.34C204.075 269.663 203.957 269.934 203.723 270.154C203.503 270.359 203.224 270.462 202.887 270.462ZM207.124 281L207.124 279.856L212.69 273.476L208.466 273.476L208.466 275.258L207.234 275.258L207.234 272.354L214.582 272.354L214.582 273.564L209.016 279.9L213.438 279.9L213.438 277.92L214.714 277.92L214.714 281L207.124 281ZM219.476 281.242C218.582 281.242 217.863 280.993 217.32 280.494C216.778 279.995 216.506 279.387 216.506 278.668C216.506 278.008 216.66 277.48 216.968 277.084C217.291 276.688 217.716 276.402 218.244 276.226C218.772 276.05 219.352 275.962 219.982 275.962C220.481 275.962 220.987 276.006 221.5 276.094C222.028 276.167 222.542 276.27 223.04 276.402L222.38 276.512L222.38 275.346C222.38 274.657 222.197 274.151 221.83 273.828C221.464 273.505 220.965 273.344 220.334 273.344C219.924 273.344 219.44 273.417 218.882 273.564C218.34 273.696 217.834 273.887 217.364 274.136L216.88 273.08C217.394 272.757 217.973 272.523 218.618 272.376C219.264 272.215 219.843 272.134 220.356 272.134C221.119 272.134 221.772 272.259 222.314 272.508C222.857 272.757 223.268 273.117 223.546 273.586C223.84 274.041 223.986 274.576 223.986 275.192L223.986 279.834L225.35 279.834L225.35 281L222.556 281L222.424 279.768L223.04 279.768C222.468 280.267 221.911 280.641 221.368 280.89C220.826 281.125 220.195 281.242 219.476 281.242ZM219.718 280.12C220.261 280.12 220.804 280.003 221.346 279.768C221.889 279.533 222.454 279.174 223.04 278.69L222.38 279.482L222.38 276.93L222.886 277.326C222.505 277.209 222.072 277.113 221.588 277.04C221.104 276.967 220.606 276.93 220.092 276.93C219.579 276.93 219.11 277.047 218.684 277.282C218.259 277.502 218.046 277.935 218.046 278.58C218.046 279.02 218.193 279.387 218.486 279.68C218.78 279.973 219.19 280.12 219.718 280.12ZM226.452 281L226.452 279.834L228.124 279.834L228.124 273.52L226.452 273.52L226.452 272.354L229.73 272.354L229.73 274.928L229.422 274.884C229.583 274.224 229.788 273.703 230.038 273.322C230.302 272.941 230.595 272.669 230.918 272.508C231.255 272.332 231.6 272.244 231.952 272.244C232.245 272.244 232.538 272.281 232.832 272.354C233.125 272.427 233.418 272.537 233.712 272.684L233.316 274.158C233.066 273.997 232.817 273.879 232.568 273.806C232.318 273.718 232.062 273.674 231.798 273.674C231.24 273.674 230.756 273.909 230.346 274.378C229.95 274.833 229.752 275.493 229.752 276.358L229.73 279.834L231.27 279.834L231.27 281L226.452 281Z" fill="white" fill-opacity="0.8"/>
<path d="M240.292 281L240.292 280.2L242.884 277.576C243.375 277.075 243.77 276.648 244.068 276.296C244.378 275.944 244.602 275.613 244.74 275.304C244.89 274.984 244.964 274.637 244.964 274.264C244.964 273.837 244.836 273.469 244.58 273.16C244.324 272.84 243.908 272.68 243.332 272.68C242.788 272.68 242.356 272.835 242.036 273.144C241.716 273.443 241.556 273.885 241.556 274.472C241.556 274.621 241.567 274.781 241.588 274.952C241.61 275.112 241.642 275.283 241.684 275.464L240.596 275.464C240.554 275.293 240.516 275.123 240.484 274.952C240.463 274.771 240.452 274.605 240.452 274.456C240.452 273.923 240.575 273.464 240.82 273.08C241.066 272.685 241.418 272.381 241.876 272.168C242.335 271.944 242.874 271.832 243.492 271.832C244.324 271.832 244.975 272.051 245.444 272.488C245.914 272.915 246.148 273.464 246.148 274.136C246.148 274.584 246.047 275.011 245.844 275.416C245.642 275.811 245.348 276.221 244.964 276.648C244.591 277.064 244.138 277.539 243.604 278.072L241.076 280.616L240.868 280.104L245.156 280.104L245.156 278.392L246.212 278.392L246.228 281L240.292 281ZM251.253 281.176C250.144 281.176 249.312 280.771 248.757 279.96C248.202 279.149 247.925 277.981 247.925 276.456C247.925 275.027 248.202 273.901 248.757 273.08C249.312 272.248 250.144 271.832 251.253 271.832C252.362 271.832 253.194 272.243 253.749 273.064C254.304 273.885 254.581 275.016 254.581 276.456C254.581 277.981 254.304 279.149 253.749 279.96C253.194 280.771 252.362 281.176 251.253 281.176ZM251.253 280.328C251.946 280.328 252.474 279.997 252.837 279.336C253.21 278.675 253.397 277.715 253.397 276.456C253.397 275.219 253.21 274.28 252.837 273.64C252.474 273 251.946 272.68 251.253 272.68C250.56 272.68 250.026 273 249.653 273.64C249.29 274.28 249.109 275.219 249.109 276.456C249.109 277.715 249.29 278.675 249.653 279.336C250.026 279.997 250.56 280.328 251.253 280.328ZM259.831 281.176C258.722 281.176 257.89 280.771 257.335 279.96C256.78 279.149 256.503 277.981 256.503 276.456C256.503 275.027 256.78 273.901 257.335 273.08C257.89 272.248 258.722 271.832 259.831 271.832C260.94 271.832 261.772 272.243 262.327 273.064C262.882 273.885 263.159 275.016 263.159 276.456C263.159 277.981 262.882 279.149 262.327 279.96C261.772 280.771 260.94 281.176 259.831 281.176ZM259.831 280.328C260.524 280.328 261.052 279.997 261.415 279.336C261.788 278.675 261.975 277.715 261.975 276.456C261.975 275.219 261.788 274.28 261.415 273.64C261.052 273 260.524 272.68 259.831 272.68C259.138 272.68 258.604 273 258.231 273.64C257.868 274.28 257.687 275.219 257.687 276.456C257.687 277.715 257.868 278.675 258.231 279.336C258.604 279.997 259.138 280.328 259.831 280.328Z" fill="white" fill-opacity="0.4"/>
</g>
<g id="Alioth 120">
<path d="M421.322 414L421.322 412.834L422.906 412.834L426.492 402.78L425.106 402.78L425.106 401.614L431.156 401.614L431.156 402.78L429.726 402.78L433.422 412.834L434.918 412.834L434.918 414L429.88 414L429.88 412.834L431.53 412.834L430.276 409.226L425.788 409.226L424.556 412.834L426.206 412.834L426.206 414L421.322 414ZM426.14 408.06L429.924 408.06L428.12 402.802L427.988 402.802L426.14 408.06ZM436.146 414L436.146 412.834L437.752 412.834L437.752 402.538L436.19 402.538L436.19 401.394L439.38 401.394L439.38 412.834L440.788 412.834L440.788 414L436.146 414ZM441.751 414L441.751 412.834L443.423 412.834L443.423 406.52L441.773 406.52L441.773 405.354L445.029 405.354L445.029 412.834L446.591 412.834L446.591 414L441.751 414ZM444.017 403.462C443.694 403.462 443.415 403.359 443.181 403.154C442.946 402.934 442.829 402.663 442.829 402.34C442.829 402.017 442.946 401.753 443.181 401.548C443.415 401.328 443.694 401.218 444.017 401.218C444.354 401.218 444.633 401.328 444.853 401.548C445.087 401.753 445.205 402.017 445.205 402.34C445.205 402.663 445.087 402.934 444.853 403.154C444.633 403.359 444.354 403.462 444.017 403.462ZM452.346 414.264C451.422 414.264 450.608 414.073 449.904 413.692C449.2 413.311 448.65 412.775 448.254 412.086C447.873 411.397 447.682 410.59 447.682 409.666C447.682 408.742 447.873 407.943 448.254 407.268C448.65 406.579 449.2 406.051 449.904 405.684C450.608 405.303 451.422 405.112 452.346 405.112C453.285 405.112 454.106 405.303 454.81 405.684C455.514 406.051 456.064 406.579 456.46 407.268C456.856 407.943 457.054 408.735 457.054 409.644C457.054 410.568 456.856 411.375 456.46 412.064C456.064 412.753 455.514 413.296 454.81 413.692C454.106 414.073 453.285 414.264 452.346 414.264ZM452.346 412.988C452.962 412.988 453.497 412.849 453.952 412.57C454.407 412.291 454.759 411.903 455.008 411.404C455.257 410.905 455.382 410.319 455.382 409.644C455.382 408.984 455.257 408.412 455.008 407.928C454.759 407.444 454.407 407.07 453.952 406.806C453.497 406.527 452.962 406.388 452.346 406.388C451.745 406.388 451.217 406.527 450.762 406.806C450.322 407.07 449.977 407.451 449.728 407.95C449.479 408.434 449.354 409.006 449.354 409.666C449.354 410.326 449.479 410.905 449.728 411.404C449.977 411.903 450.322 412.291 450.762 412.57C451.217 412.849 451.745 412.988 452.346 412.988ZM461.973 414C461.151 414 460.528 413.795 460.103 413.384C459.677 412.959 459.465 412.313 459.465 411.448L459.465 406.52L458.035 406.52L458.035 405.354L459.465 405.354L459.465 402.406L461.093 401.768L461.093 405.354L463.381 405.354L463.381 406.52L461.093 406.52L461.093 411.36C461.093 411.903 461.181 412.284 461.357 412.504C461.533 412.724 461.833 412.834 462.259 412.834L463.579 412.834L463.579 414L461.973 414ZM464.476 414L464.476 412.834L466.082 412.834L466.082 402.538L464.498 402.538L464.498 401.394L467.71 401.394L467.71 406.63L467.116 406.74C467.747 406.271 468.377 405.889 469.008 405.596C469.639 405.288 470.291 405.134 470.966 405.134C471.758 405.134 472.433 405.383 472.99 405.882C473.547 406.366 473.826 407.077 473.826 408.016L473.826 412.834L475.41 412.834L475.41 414L470.768 414L470.768 412.834L472.198 412.834L472.198 408.324C472.198 407.723 472.051 407.253 471.758 406.916C471.479 406.579 471.083 406.41 470.57 406.41C470.013 406.41 469.433 406.549 468.832 406.828C468.231 407.092 467.673 407.422 467.16 407.818L467.71 407.026L467.71 412.834L469.118 412.834L469.118 414L464.476 414Z" fill="white" fill-opacity="0.8"/>
<path d="M481.921 414L481.921 413.152L483.265 413.152L483.265 406.032L481.905 406.256L481.873 405.408L484.417 404.992L484.417 413.152L485.681 413.152L485.681 414L481.921 414ZM486.793 414L486.793 413.2L489.385 410.576C489.876 410.075 490.271 409.648 490.569 409.296C490.879 408.944 491.103 408.613 491.241 408.304C491.391 407.984 491.465 407.637 491.465 407.264C491.465 406.837 491.337 406.469 491.081 406.16C490.825 405.84 490.409 405.68 489.833 405.68C489.289 405.68 488.857 405.835 488.537 406.144C488.217 406.443 488.057 406.885 488.057 407.472C488.057 407.621 488.068 407.781 488.089 407.952C488.111 408.112 488.143 408.283 488.185 408.464L487.097 408.464C487.055 408.293 487.017 408.123 486.985 407.952C486.964 407.771 486.953 407.605 486.953 407.456C486.953 406.923 487.076 406.464 487.321 406.08C487.567 405.685 487.919 405.381 488.377 405.168C488.836 404.944 489.375 404.832 489.993 404.832C490.825 404.832 491.476 405.051 491.945 405.488C492.415 405.915 492.649 406.464 492.649 407.136C492.649 407.584 492.548 408.011 492.345 408.416C492.143 408.811 491.849 409.221 491.465 409.648C491.092 410.064 490.639 410.539 490.105 411.072L487.577 413.616L487.369 413.104L491.657 413.104L491.657 411.392L492.713 411.392L492.729 414L486.793 414ZM497.754 414.176C496.645 414.176 495.813 413.771 495.258 412.96C494.703 412.149 494.426 410.981 494.426 409.456C494.426 408.027 494.703 406.901 495.258 406.08C495.813 405.248 496.645 404.832 497.754 404.832C498.863 404.832 499.695 405.243 500.25 406.064C500.805 406.885 501.082 408.016 501.082 409.456C501.082 410.981 500.805 412.149 500.25 412.96C499.695 413.771 498.863 414.176 497.754 414.176ZM497.754 413.328C498.447 413.328 498.975 412.997 499.338 412.336C499.711 411.675 499.898 410.715 499.898 409.456C499.898 408.219 499.711 407.28 499.338 406.64C498.975 406 498.447 405.68 497.754 405.68C497.061 405.68 496.527 406 496.154 406.64C495.791 407.28 495.61 408.219 495.61 409.456C495.61 410.715 495.791 411.675 496.154 412.336C496.527 412.997 497.061 413.328 497.754 413.328Z" fill="white" fill-opacity="0.4"/>
</g>
<g id="Megrez 120">
<path d="M715.1 472L715.1 470.834L716.772 470.834L716.772 460.78L715.1 460.78L715.1 459.614L719.302 459.614L723.35 468.304L727.2 459.614L731.468 459.614L731.468 460.78L729.796 460.78L729.796 470.834L731.468 470.834L731.468 472L726.474 472L726.474 470.834L728.08 470.834L728.08 461.088L723.416 471.362L722.844 471.362L718.114 461.088L718.114 470.834L719.72 470.834L719.72 472L715.1 472ZM737.787 472.264C736.877 472.264 736.049 472.073 735.301 471.692C734.567 471.311 733.981 470.775 733.541 470.086C733.115 469.397 732.903 468.597 732.903 467.688C732.903 466.749 733.108 465.943 733.519 465.268C733.929 464.579 734.479 464.051 735.169 463.684C735.858 463.303 736.628 463.112 737.479 463.112C738.359 463.112 739.114 463.295 739.745 463.662C740.39 464.029 740.881 464.549 741.219 465.224C741.556 465.899 741.725 466.691 741.725 467.6L741.725 468.018L734.333 468.018L734.355 467.006L740.119 467.006C740.119 466.434 740.001 465.95 739.767 465.554C739.547 465.143 739.239 464.835 738.843 464.63C738.447 464.41 737.992 464.3 737.479 464.3C736.936 464.3 736.445 464.432 736.005 464.696C735.565 464.945 735.213 465.312 734.949 465.796C734.699 466.265 734.575 466.837 734.575 467.512C734.575 468.231 734.707 468.854 734.971 469.382C735.235 469.895 735.601 470.299 736.071 470.592C736.555 470.871 737.105 471.01 737.721 471.01C738.381 471.01 738.989 470.878 739.547 470.614C740.104 470.35 740.588 470.02 740.999 469.624L741.571 470.614C741.175 471.069 740.661 471.457 740.031 471.78C739.4 472.103 738.652 472.264 737.787 472.264ZM747.663 476.136C747.15 476.136 746.615 476.085 746.057 475.982C745.5 475.894 744.95 475.769 744.407 475.608L744.737 474.332C745.251 474.479 745.749 474.596 746.233 474.684C746.732 474.787 747.194 474.838 747.619 474.838C748.514 474.838 749.211 474.633 749.709 474.222C750.223 473.811 750.479 473.173 750.479 472.308L750.479 470.768L750.985 470.68C750.545 471.135 750.017 471.479 749.401 471.714C748.8 471.949 748.199 472.066 747.597 472.066C746.791 472.066 746.05 471.89 745.375 471.538C744.701 471.186 744.165 470.68 743.769 470.02C743.373 469.345 743.175 468.539 743.175 467.6C743.175 466.632 743.366 465.818 743.747 465.158C744.143 464.498 744.671 463.999 745.331 463.662C746.006 463.325 746.747 463.156 747.553 463.156C748.14 463.156 748.756 463.281 749.401 463.53C750.047 463.779 750.545 464.117 750.897 464.542L750.457 464.542L750.457 463.354L753.559 463.354L753.559 464.52L752.107 464.52L752.107 472.198C752.107 473.137 751.909 473.892 751.513 474.464C751.132 475.051 750.604 475.476 749.929 475.74C749.269 476.004 748.514 476.136 747.663 476.136ZM747.927 470.856C748.441 470.856 748.976 470.746 749.533 470.526C750.105 470.291 750.597 469.969 751.007 469.558L750.479 470.372L750.457 464.938L751.007 465.642C750.553 465.261 750.032 464.953 749.445 464.718C748.859 464.469 748.294 464.344 747.751 464.344C747.194 464.344 746.695 464.476 746.255 464.74C745.83 464.989 745.493 465.363 745.243 465.862C744.994 466.361 744.869 466.977 744.869 467.71C744.869 468.385 745.001 468.957 745.265 469.426C745.544 469.895 745.911 470.255 746.365 470.504C746.835 470.739 747.355 470.856 747.927 470.856ZM754.542 472L754.542 470.834L756.214 470.834L756.214 464.52L754.542 464.52L754.542 463.354L757.82 463.354L757.82 465.928L757.512 465.884C757.674 465.224 757.879 464.703 758.128 464.322C758.392 463.941 758.686 463.669 759.008 463.508C759.346 463.332 759.69 463.244 760.042 463.244C760.336 463.244 760.629 463.281 760.922 463.354C761.216 463.427 761.509 463.537 761.802 463.684L761.406 465.158C761.157 464.997 760.908 464.879 760.658 464.806C760.409 464.718 760.152 464.674 759.888 464.674C759.331 464.674 758.847 464.909 758.436 465.378C758.04 465.833 757.842 466.493 757.842 467.358L757.82 470.834L759.36 470.834L759.36 472L754.542 472ZM767.693 472.264C766.783 472.264 765.955 472.073 765.207 471.692C764.473 471.311 763.887 470.775 763.447 470.086C763.021 469.397 762.809 468.597 762.809 467.688C762.809 466.749 763.014 465.943 763.425 465.268C763.835 464.579 764.385 464.051 765.075 463.684C765.764 463.303 766.534 463.112 767.385 463.112C768.265 463.112 769.02 463.295 769.651 463.662C770.296 464.029 770.787 464.549 771.125 465.224C771.462 465.899 771.631 466.691 771.631 467.6L771.631 468.018L764.239 468.018L764.261 467.006L770.025 467.006C770.025 466.434 769.907 465.95 769.673 465.554C769.453 465.143 769.145 464.835 768.749 464.63C768.353 464.41 767.898 464.3 767.385 464.3C766.842 464.3 766.351 464.432 765.911 464.696C765.471 464.945 765.119 465.312 764.855 465.796C764.605 466.265 764.481 466.837 764.481 467.512C764.481 468.231 764.613 468.854 764.877 469.382C765.141 469.895 765.507 470.299 765.977 470.592C766.461 470.871 767.011 471.01 767.627 471.01C768.287 471.01 768.895 470.878 769.453 470.614C770.01 470.35 770.494 470.02 770.905 469.624L771.477 470.614C771.081 471.069 770.567 471.457 769.937 471.78C769.306 472.103 768.558 472.264 767.693 472.264ZM773.521 472L773.521 470.856L779.087 464.476L774.863 464.476L774.863 466.258L773.631 466.258L773.631 463.354L780.979 463.354L780.979 464.564L775.413 470.9L779.835 470.9L779.835 468.92L781.111 468.92L781.111 472L773.521 472Z" fill="white" fill-opacity="0.8"/>
<path d="M788.282 472L788.282 471.152L789.626 471.152L789.626 464.032L788.266 464.256L788.234 463.408L790.778 462.992L790.778 471.152L792.042 471.152L792.042 472L788.282 472ZM793.155 472L793.155 471.2L795.747 468.576C796.237 468.075 796.632 467.648 796.931 467.296C797.24 466.944 797.464 466.613 797.603 466.304C797.752 465.984 797.827 465.637 797.827 465.264C797.827 464.837 797.699 464.469 797.443 464.16C797.187 463.84 796.771 463.68 796.195 463.68C795.651 463.68 795.219 463.835 794.899 464.144C794.579 464.443 794.419 464.885 794.419 465.472C794.419 465.621 794.429 465.781 794.451 465.952C794.472 466.112 794.504 466.283 794.547 466.464L793.459 466.464C793.416 466.293 793.379 466.123 793.347 465.952C793.325 465.771 793.315 465.605 793.315 465.456C793.315 464.923 793.437 464.464 793.683 464.08C793.928 463.685 794.28 463.381 794.739 463.168C795.197 462.944 795.736 462.832 796.355 462.832C797.187 462.832 797.837 463.051 798.307 463.488C798.776 463.915 799.011 464.464 799.011 465.136C799.011 465.584 798.909 466.011 798.707 466.416C798.504 466.811 798.211 467.221 797.827 467.648C797.453 468.064 797 468.539 796.467 469.072L793.939 471.616L793.731 471.104L798.019 471.104L798.019 469.392L799.075 469.392L799.091 472L793.155 472ZM804.115 472.176C803.006 472.176 802.174 471.771 801.619 470.96C801.065 470.149 800.787 468.981 800.787 467.456C800.787 466.027 801.065 464.901 801.619 464.08C802.174 463.248 803.006 462.832 804.115 462.832C805.225 462.832 806.057 463.243 806.611 464.064C807.166 464.885 807.443 466.016 807.443 467.456C807.443 468.981 807.166 470.149 806.611 470.96C806.057 471.771 805.225 472.176 804.115 472.176ZM804.115 471.328C804.809 471.328 805.337 470.997 805.699 470.336C806.073 469.675 806.259 468.715 806.259 467.456C806.259 466.219 806.073 465.28 805.699 464.64C805.337 464 804.809 463.68 804.115 463.68C803.422 463.68 802.889 464 802.515 464.64C802.153 465.28 801.971 466.219 801.971 467.456C801.971 468.715 802.153 469.675 802.515 470.336C802.889 470.997 803.422 471.328 804.115 471.328Z" fill="white" fill-opacity="0.4"/>
</g>
<g id="Dubhe 180">
<path d="M1228.22 575.875L1228.22 574.709L1229.93 574.709L1229.93 564.655L1228.22 564.655L1228.22 563.489L1234.95 563.489C1236.03 563.489 1236.97 563.665 1237.76 564.017C1238.56 564.354 1239.22 564.816 1239.74 565.403C1240.27 565.975 1240.66 566.628 1240.91 567.361C1241.17 568.08 1241.31 568.813 1241.31 569.561C1241.31 570.47 1241.17 571.314 1240.91 572.091C1240.65 572.854 1240.25 573.521 1239.72 574.093C1239.19 574.65 1238.53 575.09 1237.74 575.413C1236.95 575.721 1236.03 575.875 1234.97 575.875L1228.22 575.875ZM1231.74 574.709L1234.79 574.709C1235.62 574.709 1236.32 574.577 1236.91 574.313C1237.51 574.049 1237.99 573.69 1238.36 573.235C1238.74 572.766 1239.02 572.223 1239.19 571.607C1239.37 570.976 1239.46 570.309 1239.46 569.605C1239.46 568.974 1239.36 568.366 1239.17 567.779C1239 567.192 1238.72 566.664 1238.34 566.195C1237.97 565.726 1237.49 565.352 1236.91 565.073C1236.33 564.794 1235.65 564.655 1234.86 564.655L1231.74 564.655L1231.74 574.709ZM1246.95 576.095C1246.28 576.095 1245.73 575.963 1245.3 575.699C1244.88 575.435 1244.56 575.083 1244.36 574.643C1244.16 574.203 1244.07 573.719 1244.07 573.191L1244.07 568.395L1242.62 568.395L1242.62 567.229L1245.7 567.229L1245.7 573.015C1245.7 573.558 1245.83 573.99 1246.09 574.313C1246.36 574.636 1246.77 574.797 1247.33 574.797C1247.97 574.797 1248.56 574.643 1249.11 574.335C1249.65 574.027 1250.16 573.602 1250.65 573.059L1250.14 573.917L1250.14 568.395L1248.58 568.395L1248.58 567.229L1251.75 567.229L1251.75 574.709L1253.35 574.709L1253.35 575.875L1250.19 575.875L1250.12 574.445L1250.69 574.335C1250.12 574.878 1249.52 575.31 1248.89 575.633C1248.27 575.941 1247.63 576.095 1246.95 576.095ZM1260.04 576.095C1259.41 576.095 1258.83 575.978 1258.3 575.743C1257.77 575.508 1257.31 575.149 1256.91 574.665L1257.37 574.885L1257.37 575.875L1254.14 575.875L1254.14 574.709L1255.75 574.709L1255.75 564.413L1254.18 564.413L1254.18 563.269L1257.37 563.269L1257.37 568.439L1256.85 568.439C1257.32 567.97 1257.87 567.618 1258.5 567.383C1259.13 567.134 1259.74 567.009 1260.32 567.009C1261.1 567.009 1261.8 567.178 1262.43 567.515C1263.08 567.852 1263.59 568.351 1263.95 569.011C1264.33 569.671 1264.52 570.478 1264.52 571.431C1264.52 572.414 1264.31 573.257 1263.89 573.961C1263.48 574.65 1262.93 575.178 1262.26 575.545C1261.58 575.912 1260.84 576.095 1260.04 576.095ZM1259.75 574.885C1260.62 574.885 1261.34 574.606 1261.93 574.049C1262.53 573.477 1262.83 572.648 1262.83 571.563C1262.83 570.507 1262.55 569.693 1261.99 569.121C1261.44 568.549 1260.73 568.263 1259.88 568.263C1259.38 568.263 1258.86 568.388 1258.32 568.637C1257.78 568.872 1257.28 569.238 1256.82 569.737L1257.37 568.857L1257.37 574.445L1256.87 573.543C1257.25 573.954 1257.7 574.284 1258.21 574.533C1258.74 574.768 1259.25 574.885 1259.75 574.885ZM1265.35 575.875L1265.35 574.709L1266.95 574.709L1266.95 564.413L1265.37 564.413L1265.37 563.269L1268.58 563.269L1268.58 568.505L1267.99 568.615C1268.62 568.146 1269.25 567.764 1269.88 567.471C1270.51 567.163 1271.16 567.009 1271.84 567.009C1272.63 567.009 1273.3 567.258 1273.86 567.757C1274.42 568.241 1274.7 568.952 1274.7 569.891L1274.7 574.709L1276.28 574.709L1276.28 575.875L1271.64 575.875L1271.64 574.709L1273.07 574.709L1273.07 570.199C1273.07 569.598 1272.92 569.128 1272.63 568.791C1272.35 568.454 1271.96 568.285 1271.44 568.285C1270.88 568.285 1270.31 568.424 1269.7 568.703C1269.1 568.967 1268.55 569.297 1268.03 569.693L1268.58 568.901L1268.58 574.709L1269.99 574.709L1269.99 575.875L1265.35 575.875ZM1281.99 576.139C1281.08 576.139 1280.25 575.948 1279.5 575.567C1278.77 575.186 1278.18 574.65 1277.74 573.961C1277.32 573.272 1277.11 572.472 1277.11 571.563C1277.11 570.624 1277.31 569.818 1277.72 569.143C1278.13 568.454 1278.68 567.926 1279.37 567.559C1280.06 567.178 1280.83 566.987 1281.68 566.987C1282.56 566.987 1283.32 567.17 1283.95 567.537C1284.59 567.904 1285.09 568.424 1285.42 569.099C1285.76 569.774 1285.93 570.566 1285.93 571.475L1285.93 571.893L1278.54 571.893L1278.56 570.881L1284.32 570.881C1284.32 570.309 1284.21 569.825 1283.97 569.429C1283.75 569.018 1283.44 568.71 1283.05 568.505C1282.65 568.285 1282.2 568.175 1281.68 568.175C1281.14 568.175 1280.65 568.307 1280.21 568.571C1279.77 568.82 1279.42 569.187 1279.15 569.671C1278.9 570.14 1278.78 570.712 1278.78 571.387C1278.78 572.106 1278.91 572.729 1279.17 573.257C1279.44 573.77 1279.81 574.174 1280.27 574.467C1280.76 574.746 1281.31 574.885 1281.92 574.885C1282.58 574.885 1283.19 574.753 1283.75 574.489C1284.31 574.225 1284.79 573.895 1285.2 573.499L1285.77 574.489C1285.38 574.944 1284.87 575.332 1284.23 575.655C1283.6 575.978 1282.86 576.139 1281.99 576.139Z" fill="white" fill-opacity="0.8"/>
<path d="M1293.03 575.875L1293.03 574.921L1294.54 574.921L1294.54 566.911L1293.01 567.163L1292.97 566.209L1295.84 565.741L1295.84 574.921L1297.26 574.921L1297.26 575.875L1293.03 575.875ZM1301.98 576.073C1301.19 576.073 1300.52 575.947 1299.97 575.695C1299.43 575.431 1299.02 575.083 1298.74 574.651C1298.47 574.207 1298.33 573.715 1298.33 573.175C1298.33 572.551 1298.5 572.017 1298.85 571.573C1299.21 571.129 1299.7 570.799 1300.33 570.583C1299.73 570.319 1299.3 569.989 1299.03 569.593C1298.78 569.197 1298.65 568.735 1298.65 568.207C1298.65 567.679 1298.79 567.217 1299.05 566.821C1299.33 566.425 1299.71 566.119 1300.2 565.903C1300.71 565.675 1301.29 565.561 1301.97 565.561C1302.65 565.561 1303.24 565.669 1303.73 565.885C1304.23 566.101 1304.62 566.407 1304.88 566.803C1305.16 567.199 1305.3 567.667 1305.3 568.207C1305.3 568.747 1305.16 569.227 1304.88 569.647C1304.62 570.055 1304.19 570.373 1303.59 570.601C1304.26 570.793 1304.76 571.111 1305.1 571.555C1305.43 571.999 1305.6 572.533 1305.6 573.157C1305.6 573.709 1305.46 574.207 1305.17 574.651C1304.89 575.095 1304.49 575.443 1303.95 575.695C1303.41 575.947 1302.75 576.073 1301.98 576.073ZM1301.98 575.047C1302.66 575.047 1303.18 574.873 1303.57 574.525C1303.96 574.177 1304.16 573.709 1304.16 573.121C1304.16 572.449 1303.9 571.963 1303.39 571.663C1302.88 571.363 1302.14 571.135 1301.16 570.979C1300.98 571.027 1300.78 571.147 1300.56 571.339C1300.35 571.519 1300.16 571.759 1300 572.059C1299.85 572.359 1299.77 572.707 1299.77 573.103C1299.77 573.691 1299.97 574.165 1300.36 574.525C1300.76 574.873 1301.3 575.047 1301.98 575.047ZM1302.72 570.241C1302.87 570.193 1303.03 570.091 1303.21 569.935C1303.4 569.767 1303.57 569.545 1303.71 569.269C1303.86 568.993 1303.93 568.675 1303.93 568.315C1303.93 567.787 1303.76 567.367 1303.42 567.055C1303.09 566.731 1302.6 566.569 1301.97 566.569C1301.35 566.569 1300.87 566.731 1300.53 567.055C1300.19 567.367 1300.02 567.787 1300.02 568.315C1300.02 568.915 1300.26 569.365 1300.74 569.665C1301.22 569.953 1301.88 570.145 1302.72 570.241ZM1310.96 576.073C1309.71 576.073 1308.78 575.617 1308.15 574.705C1307.53 573.793 1307.22 572.479 1307.22 570.763C1307.22 569.155 1307.53 567.889 1308.15 566.965C1308.78 566.029 1309.71 565.561 1310.96 565.561C1312.21 565.561 1313.15 566.023 1313.77 566.947C1314.39 567.871 1314.71 569.143 1314.71 570.763C1314.71 572.479 1314.39 573.793 1313.77 574.705C1313.15 575.617 1312.21 576.073 1310.96 576.073ZM1310.96 575.119C1311.74 575.119 1312.34 574.747 1312.74 574.003C1313.16 573.259 1313.37 572.179 1313.37 570.763C1313.37 569.371 1313.16 568.315 1312.74 567.595C1312.34 566.875 1311.74 566.515 1310.96 566.515C1310.18 566.515 1309.58 566.875 1309.16 567.595C1308.75 568.315 1308.55 569.371 1308.55 570.763C1308.55 572.179 1308.75 573.259 1309.16 574.003C1309.58 574.747 1310.18 575.119 1310.96 575.119Z" fill="white" fill-opacity="0.4"/>
</g>
<g id="Merak 190">
<path d="M1097.27 790.5L1097.27 789.546L1098.63 789.546L1098.63 781.32L1097.27 781.32L1097.27 780.366L1100.7 780.366L1104.02 787.476L1107.17 780.366L1110.66 780.366L1110.66 781.32L1109.29 781.32L1109.29 789.546L1110.66 789.546L1110.66 790.5L1106.57 790.5L1106.57 789.546L1107.89 789.546L1107.89 781.572L1104.07 789.978L1103.6 789.978L1099.73 781.572L1099.73 789.546L1101.05 789.546L1101.05 790.5L1097.27 790.5ZM1115.83 790.716C1115.08 790.716 1114.41 790.56 1113.79 790.248C1113.19 789.936 1112.71 789.498 1112.35 788.934C1112.01 788.37 1111.83 787.716 1111.83 786.972C1111.83 786.204 1112 785.544 1112.34 784.992C1112.67 784.428 1113.12 783.996 1113.69 783.696C1114.25 783.384 1114.88 783.228 1115.58 783.228C1116.3 783.228 1116.91 783.378 1117.43 783.678C1117.96 783.978 1118.36 784.404 1118.64 784.956C1118.91 785.508 1119.05 786.156 1119.05 786.9L1119.05 787.242L1113 787.242L1113.02 786.414L1117.74 786.414C1117.74 785.946 1117.64 785.55 1117.45 785.226C1117.27 784.89 1117.02 784.638 1116.69 784.47C1116.37 784.29 1116 784.2 1115.58 784.2C1115.13 784.2 1114.73 784.308 1114.37 784.524C1114.01 784.728 1113.72 785.028 1113.51 785.424C1113.3 785.808 1113.2 786.276 1113.2 786.828C1113.2 787.416 1113.31 787.926 1113.52 788.358C1113.74 788.778 1114.04 789.108 1114.42 789.348C1114.82 789.576 1115.27 789.69 1115.77 789.69C1116.31 789.69 1116.81 789.582 1117.27 789.366C1117.72 789.15 1118.12 788.88 1118.46 788.556L1118.92 789.366C1118.6 789.738 1118.18 790.056 1117.66 790.32C1117.15 790.584 1116.54 790.716 1115.83 790.716ZM1120.31 790.5L1120.31 789.546L1121.68 789.546L1121.68 784.38L1120.31 784.38L1120.31 783.426L1122.99 783.426L1122.99 785.532L1122.74 785.496C1122.87 784.956 1123.04 784.53 1123.24 784.218C1123.46 783.906 1123.7 783.684 1123.96 783.552C1124.24 783.408 1124.52 783.336 1124.81 783.336C1125.05 783.336 1125.29 783.366 1125.53 783.426C1125.77 783.486 1126.01 783.576 1126.25 783.696L1125.93 784.902C1125.72 784.77 1125.52 784.674 1125.31 784.614C1125.11 784.542 1124.9 784.506 1124.68 784.506C1124.23 784.506 1123.83 784.698 1123.5 785.082C1123.17 785.454 1123.01 785.994 1123.01 786.702L1122.99 789.546L1124.25 789.546L1124.25 790.5L1120.31 790.5ZM1129.76 790.698C1129.02 790.698 1128.44 790.494 1127.99 790.086C1127.55 789.678 1127.33 789.18 1127.33 788.592C1127.33 788.052 1127.45 787.62 1127.7 787.296C1127.97 786.972 1128.32 786.738 1128.75 786.594C1129.18 786.45 1129.65 786.378 1130.17 786.378C1130.58 786.378 1130.99 786.414 1131.41 786.486C1131.84 786.546 1132.26 786.63 1132.67 786.738L1132.13 786.828L1132.13 785.874C1132.13 785.31 1131.98 784.896 1131.68 784.632C1131.38 784.368 1130.97 784.236 1130.46 784.236C1130.12 784.236 1129.73 784.296 1129.27 784.416C1128.83 784.524 1128.41 784.68 1128.03 784.884L1127.63 784.02C1128.05 783.756 1128.53 783.564 1129.05 783.444C1129.58 783.312 1130.06 783.246 1130.48 783.246C1131.1 783.246 1131.63 783.348 1132.08 783.552C1132.52 783.756 1132.86 784.05 1133.09 784.434C1133.33 784.806 1133.45 785.244 1133.45 785.748L1133.45 789.546L1134.56 789.546L1134.56 790.5L1132.28 790.5L1132.17 789.492L1132.67 789.492C1132.2 789.9 1131.75 790.206 1131.3 790.41C1130.86 790.602 1130.34 790.698 1129.76 790.698ZM1129.95 789.78C1130.4 789.78 1130.84 789.684 1131.29 789.492C1131.73 789.3 1132.19 789.006 1132.67 788.61L1132.13 789.258L1132.13 787.17L1132.55 787.494C1132.23 787.398 1131.88 787.32 1131.48 787.26C1131.09 787.2 1130.68 787.17 1130.26 787.17C1129.84 787.17 1129.46 787.266 1129.11 787.458C1128.76 787.638 1128.59 787.992 1128.59 788.52C1128.59 788.88 1128.71 789.18 1128.95 789.42C1129.19 789.66 1129.52 789.78 1129.95 789.78ZM1135.3 790.5L1135.3 789.546L1136.63 789.546L1136.63 781.122L1135.34 781.122L1135.34 780.186L1137.96 780.186L1137.96 786.72L1141.02 784.38L1139.71 784.38L1139.71 783.426L1143.47 783.426L1143.47 784.38L1142.39 784.38L1139.33 786.81L1142.1 789.546L1143.51 789.546L1143.51 790.5L1141.44 790.5L1137.96 787.026L1137.96 789.546L1139.12 789.546L1139.12 790.5L1135.3 790.5Z" fill="white"/>
<path d="M1150.03 790.5L1150.03 789.652L1151.38 789.652L1151.38 782.532L1150.02 782.756L1149.99 781.908L1152.53 781.492L1152.53 789.652L1153.79 789.652L1153.79 790.5L1150.03 790.5ZM1157.45 791.252L1156.51 790.612L1159.69 785.924L1159.8 786.148C1159.67 786.34 1159.5 786.516 1159.27 786.676C1159.05 786.825 1158.79 786.948 1158.51 787.044C1158.22 787.14 1157.89 787.188 1157.53 787.188C1157.04 787.188 1156.59 787.071 1156.17 786.836C1155.76 786.601 1155.43 786.271 1155.18 785.844C1154.93 785.407 1154.81 784.905 1154.81 784.34C1154.81 783.753 1154.94 783.236 1155.21 782.788C1155.48 782.329 1155.84 781.972 1156.3 781.716C1156.76 781.449 1157.28 781.316 1157.87 781.316C1158.47 781.316 1159.01 781.444 1159.48 781.7C1159.96 781.945 1160.33 782.297 1160.6 782.756C1160.88 783.204 1161.02 783.727 1161.02 784.324C1161.02 784.751 1160.97 785.145 1160.87 785.508C1160.79 785.86 1160.63 786.249 1160.39 786.676C1160.17 787.092 1159.84 787.625 1159.42 788.276L1157.45 791.252ZM1157.79 786.308C1158.15 786.308 1158.48 786.228 1158.79 786.068C1159.1 785.908 1159.35 785.679 1159.55 785.38C1159.74 785.071 1159.83 784.697 1159.83 784.26C1159.83 783.695 1159.67 783.215 1159.34 782.82C1159.02 782.425 1158.53 782.228 1157.87 782.228C1157.26 782.228 1156.78 782.425 1156.43 782.82C1156.08 783.204 1155.91 783.7 1155.91 784.308C1155.91 784.905 1156.08 785.391 1156.41 785.764C1156.74 786.127 1157.2 786.308 1157.79 786.308ZM1165.91 790.676C1164.8 790.676 1163.97 790.271 1163.42 789.46C1162.86 788.649 1162.59 787.481 1162.59 785.956C1162.59 784.527 1162.86 783.401 1163.42 782.58C1163.97 781.748 1164.8 781.332 1165.91 781.332C1167.02 781.332 1167.85 781.743 1168.41 782.564C1168.96 783.385 1169.24 784.516 1169.24 785.956C1169.24 787.481 1168.96 788.649 1168.41 789.46C1167.85 790.271 1167.02 790.676 1165.91 790.676ZM1165.91 789.828C1166.61 789.828 1167.13 789.497 1167.5 788.836C1167.87 788.175 1168.06 787.215 1168.06 785.956C1168.06 784.719 1167.87 783.78 1167.5 783.14C1167.13 782.5 1166.61 782.18 1165.91 782.18C1165.22 782.18 1164.69 782.5 1164.31 783.14C1163.95 783.78 1163.77 784.719 1163.77 785.956C1163.77 787.215 1163.95 788.175 1164.31 788.836C1164.69 789.497 1165.22 789.828 1165.91 789.828Z" fill="white" fill-opacity="0.4"/>
</g>
<g id="Phecda 90">
<path d="M621.39 733L621.39 732.046L622.794 732.046L622.794 723.82L621.39 723.82L621.39 722.866L626.394 722.866C627.63 722.866 628.572 723.112 629.221 723.604C629.868 724.096 630.192 724.81 630.192 725.746C630.192 726.73 629.856 727.486 629.185 728.014C628.524 728.542 627.564 728.806 626.304 728.806L624.954 728.806L624.954 727.852L626.25 727.852C627.03 727.852 627.63 727.672 628.05 727.312C628.47 726.952 628.681 726.436 628.681 725.764C628.681 725.128 628.494 724.648 628.122 724.324C627.762 723.988 627.24 723.82 626.556 723.82L624.27 723.82L624.27 732.046L625.674 732.046L625.674 733L621.39 733ZM631.047 733L631.047 732.046L632.361 732.046L632.361 723.622L631.065 723.622L631.065 722.686L633.693 722.686L633.693 726.97L633.207 727.06C633.723 726.676 634.239 726.364 634.755 726.124C635.271 725.872 635.805 725.746 636.357 725.746C637.005 725.746 637.557 725.95 638.013 726.358C638.469 726.754 638.697 727.336 638.697 728.104L638.697 732.046L639.993 732.046L639.993 733L636.195 733L636.195 732.046L637.365 732.046L637.365 728.356C637.365 727.864 637.245 727.48 637.005 727.204C636.777 726.928 636.453 726.79 636.033 726.79C635.577 726.79 635.103 726.904 634.611 727.132C634.119 727.348 633.663 727.618 633.243 727.942L633.693 727.294L633.693 732.046L634.845 732.046L634.845 733L631.047 733ZM644.664 733.216C643.92 733.216 643.242 733.06 642.63 732.748C642.03 732.436 641.55 731.998 641.19 731.434C640.842 730.87 640.668 730.216 640.668 729.472C640.668 728.704 640.836 728.044 641.172 727.492C641.508 726.928 641.958 726.496 642.522 726.196C643.086 725.884 643.716 725.728 644.412 725.728C645.132 725.728 645.75 725.878 646.266 726.178C646.794 726.478 647.196 726.904 647.472 727.456C647.748 728.008 647.886 728.656 647.886 729.4L647.886 729.742L641.838 729.742L641.856 728.914L646.572 728.914C646.572 728.446 646.476 728.05 646.284 727.726C646.104 727.39 645.852 727.138 645.528 726.97C645.204 726.79 644.832 726.7 644.412 726.7C643.968 726.7 643.566 726.808 643.206 727.024C642.846 727.228 642.558 727.528 642.342 727.924C642.138 728.308 642.036 728.776 642.036 729.328C642.036 729.916 642.144 730.426 642.36 730.858C642.576 731.278 642.876 731.608 643.26 731.848C643.656 732.076 644.106 732.19 644.61 732.19C645.15 732.19 645.648 732.082 646.104 731.866C646.56 731.65 646.956 731.38 647.292 731.056L647.76 731.866C647.436 732.238 647.016 732.556 646.5 732.82C645.984 733.084 645.372 733.216 644.664 733.216ZM652.835 733.18C652.091 733.18 651.425 733.018 650.837 732.694C650.261 732.37 649.805 731.926 649.469 731.362C649.145 730.798 648.983 730.15 648.983 729.418C648.983 728.686 649.139 728.044 649.451 727.492C649.775 726.94 650.213 726.508 650.765 726.196C651.329 725.884 651.971 725.728 652.691 725.728C653.387 725.728 653.963 725.884 654.419 726.196C654.875 726.508 655.163 726.892 655.283 727.348L655.031 727.348L655.031 725.89L656.147 725.89L656.147 728.428L655.139 728.428C655.031 727.912 654.785 727.51 654.401 727.222C654.029 726.922 653.561 726.772 652.997 726.772C652.481 726.772 652.025 726.886 651.629 727.114C651.233 727.33 650.921 727.636 650.693 728.032C650.477 728.428 650.369 728.878 650.369 729.382C650.369 729.922 650.477 730.402 650.693 730.822C650.921 731.23 651.227 731.554 651.611 731.794C652.007 732.022 652.457 732.136 652.961 732.136C653.597 732.136 654.107 732.016 654.491 731.776C654.887 731.524 655.247 731.212 655.571 730.84L656.129 731.65C655.781 732.106 655.331 732.478 654.779 732.766C654.227 733.042 653.579 733.18 652.835 733.18ZM661.074 733.198C660.426 733.198 659.826 733.054 659.274 732.766C658.734 732.466 658.296 732.034 657.96 731.47C657.624 730.906 657.456 730.234 657.456 729.454C657.456 728.65 657.612 727.978 657.924 727.438C658.248 726.886 658.674 726.466 659.202 726.178C659.73 725.89 660.306 725.746 660.93 725.746C661.434 725.746 661.932 725.842 662.424 726.034C662.928 726.214 663.372 726.472 663.756 726.808L663.324 726.97L663.324 723.622L662.064 723.622L662.064 722.686L664.656 722.686L664.656 732.046L665.772 732.046L665.772 733L663.324 733L663.324 732.064L663.738 732.136C663.39 732.472 662.994 732.736 662.55 732.928C662.118 733.108 661.626 733.198 661.074 733.198ZM661.362 732.19C661.83 732.19 662.262 732.1 662.658 731.92C663.066 731.74 663.438 731.5 663.774 731.2L663.324 731.812L663.324 727.132L663.774 727.78C663.402 727.456 662.982 727.204 662.514 727.024C662.058 726.844 661.62 726.754 661.2 726.754C660.744 726.754 660.336 726.862 659.976 727.078C659.628 727.294 659.352 727.612 659.148 728.032C658.944 728.44 658.842 728.95 658.842 729.562C658.842 730.126 658.956 730.606 659.184 731.002C659.412 731.386 659.712 731.68 660.084 731.884C660.468 732.088 660.894 732.19 661.362 732.19ZM669.313 733.198C668.581 733.198 667.993 732.994 667.549 732.586C667.105 732.178 666.883 731.68 666.883 731.092C666.883 730.552 667.009 730.12 667.261 729.796C667.525 729.472 667.873 729.238 668.305 729.094C668.737 728.95 669.211 728.878 669.727 728.878C670.135 728.878 670.549 728.914 670.969 728.986C671.401 729.046 671.821 729.13 672.229 729.238L671.689 729.328L671.689 728.374C671.689 727.81 671.539 727.396 671.239 727.132C670.939 726.868 670.531 726.736 670.015 726.736C669.679 726.736 669.283 726.796 668.827 726.916C668.383 727.024 667.969 727.18 667.585 727.384L667.189 726.52C667.609 726.256 668.083 726.064 668.611 725.944C669.139 725.812 669.613 725.746 670.033 725.746C670.657 725.746 671.191 725.848 671.635 726.052C672.079 726.256 672.415 726.55 672.643 726.934C672.883 727.306 673.003 727.744 673.003 728.248L673.003 732.046L674.119 732.046L674.119 733L671.833 733L671.725 731.992L672.229 731.992C671.761 732.4 671.305 732.706 670.861 732.91C670.417 733.102 669.901 733.198 669.313 733.198ZM669.511 732.28C669.955 732.28 670.399 732.184 670.843 731.992C671.287 731.8 671.749 731.506 672.229 731.11L671.689 731.758L671.689 729.67L672.103 729.994C671.791 729.898 671.437 729.82 671.041 729.76C670.645 729.7 670.237 729.67 669.817 729.67C669.397 729.67 669.013 729.766 668.665 729.958C668.317 730.138 668.143 730.492 668.143 731.02C668.143 731.38 668.263 731.68 668.503 731.92C668.743 732.16 669.079 732.28 669.511 732.28Z" fill="white" fill-opacity="0.8"/>
<path d="M683.058 733.752L682.114 733.112L685.298 728.424L685.41 728.648C685.282 728.84 685.106 729.016 684.882 729.176C684.658 729.325 684.402 729.448 684.114 729.544C683.826 729.64 683.501 729.688 683.138 729.688C682.647 729.688 682.194 729.571 681.778 729.336C681.373 729.101 681.042 728.771 680.786 728.344C680.541 727.907 680.418 727.405 680.418 726.84C680.418 726.253 680.551 725.736 680.818 725.288C681.085 724.829 681.447 724.472 681.906 724.216C682.365 723.949 682.887 723.816 683.474 723.816C684.082 723.816 684.621 723.944 685.09 724.2C685.57 724.445 685.943 724.797 686.21 725.256C686.487 725.704 686.626 726.227 686.626 726.824C686.626 727.251 686.578 727.645 686.482 728.008C686.397 728.36 686.237 728.749 686.002 729.176C685.778 729.592 685.453 730.125 685.026 730.776L683.058 733.752ZM683.394 728.808C683.757 728.808 684.093 728.728 684.402 728.568C684.711 728.408 684.962 728.179 685.154 727.88C685.346 727.571 685.442 727.197 685.442 726.76C685.442 726.195 685.277 725.715 684.946 725.32C684.626 724.925 684.135 724.728 683.474 724.728C682.866 724.728 682.386 724.925 682.034 725.32C681.693 725.704 681.522 726.2 681.522 726.808C681.522 727.405 681.687 727.891 682.018 728.264C682.349 728.627 682.807 728.808 683.394 728.808ZM691.521 733.176C690.412 733.176 689.58 732.771 689.025 731.96C688.471 731.149 688.193 729.981 688.193 728.456C688.193 727.027 688.471 725.901 689.025 725.08C689.58 724.248 690.412 723.832 691.521 723.832C692.631 723.832 693.463 724.243 694.017 725.064C694.572 725.885 694.849 727.016 694.849 728.456C694.849 729.981 694.572 731.149 694.017 731.96C693.463 732.771 692.631 733.176 691.521 733.176ZM691.521 732.328C692.215 732.328 692.743 731.997 693.105 731.336C693.479 730.675 693.665 729.715 693.665 728.456C693.665 727.219 693.479 726.28 693.105 725.64C692.743 725 692.215 724.68 691.521 724.68C690.828 724.68 690.295 725 689.921 725.64C689.559 726.28 689.377 727.219 689.377 728.456C689.377 729.715 689.559 730.675 689.921 731.336C690.295 731.997 690.828 732.328 691.521 732.328Z" fill="white" fill-opacity="0.4"/>
</g>
<line id="Line 488" x1="28.5238" y1="35.7214" x2="147.328" y2="262.303" stroke="white" stroke-opacity="0.3" stroke-width="3"/>
<line id="Line 489" x1="171.745" y1="285.359" x2="387.479" y2="416.297" stroke="white" stroke-opacity="0.3" stroke-width="3"/>
<line id="Line 490" x1="421.274" y1="431.525" x2="671.65" y2="478.025" stroke="white" stroke-opacity="0.3" stroke-width="3"/>
<line id="Line 491" x1="688.778" y1="498.809" x2="681.499" y2="684.059" stroke="white" stroke-opacity="0.3" stroke-width="3"/>
<line id="Line 492" x1="696.364" y1="708.545" x2="1028.36" y2="791.545" stroke="white" stroke-opacity="0.3" stroke-width="3"/>
<line id="Line 515" x1="714.274" y1="484.9" x2="1158.27" y2="567.525" stroke="white" stroke-opacity="0.3" stroke-width="3"/>
<line id="Line 493" x1="1058.69" y1="779.263" x2="1164.69" y2="591.263" stroke="url(#paint0_linear_339_2)" stroke-opacity="0.3" stroke-width="3"/>
<line id="Line 516" x1="5.59168" y1="26.0736" x2="25.3907" y2="6.27463" stroke="url(#paint1_radial_339_2)" stroke-opacity="0.6" stroke-width="3"/>
<line id="Line 517" x1="5.06066" y1="5.93934" x2="24.8596" y2="25.7383" stroke="url(#paint2_radial_339_2)" stroke-opacity="0.6" stroke-width="3"/>
<line id="Line 518" y1="15.5" x2="32" y2="15.5" stroke="url(#paint3_radial_339_2)" stroke-opacity="0.6" stroke-width="3"/>
<line id="Line 519" x1="15.5" y1="32" x2="15.5" stroke="url(#paint4_radial_339_2)" stroke-opacity="0.6" stroke-width="3"/>
</g>
<defs>
<linearGradient id="paint0_linear_339_2" x1="1113" y1="686" x2="1113.87" y2="686.491" gradientUnits="userSpaceOnUse">
<stop stop-color="white"/>
<stop offset="1" stop-color="white" stop-opacity="0"/>
</linearGradient>
<radialGradient id="paint1_radial_339_2" cx="0" cy="0" r="1" gradientUnits="userSpaceOnUse" gradientTransform="translate(16.9054 17.5883) rotate(45) scale(0.5 14)">
<stop stop-color="white"/>
<stop offset="1" stop-color="white" stop-opacity="0.6"/>
</radialGradient>
<radialGradient id="paint2_radial_339_2" cx="0" cy="0" r="1" gradientUnits="userSpaceOnUse" gradientTransform="translate(13.5459 17.253) rotate(135) scale(0.5 14)">
<stop stop-color="white"/>
<stop offset="1" stop-color="white" stop-opacity="0.6"/>
</radialGradient>
<radialGradient id="paint3_radial_339_2" cx="0" cy="0" r="1" gradientUnits="userSpaceOnUse" gradientTransform="translate(16 17.5) rotate(90) scale(0.5 16)">
<stop stop-color="white"/>
<stop offset="1" stop-color="white" stop-opacity="0.6"/>
</radialGradient>
<radialGradient id="paint4_radial_339_2" cx="0" cy="0" r="1" gradientUnits="userSpaceOnUse" gradientTransform="translate(17.5 16) scale(0.5 16)">
<stop stop-color="white"/>
<stop offset="1" stop-color="white" stop-opacity="0.6"/>
</radialGradient>
</defs>
</svg>
