<svg viewBox="0 0 59 90" fill="none" xmlns="http://www.w3.org/2000/svg">
<g filter="url(#filter0_f_279_589)">
<ellipse cx="29.5" cy="43" rx="25" ry="7.5" transform="rotate(90 29.5 43)" fill="url(#paint0_linear_279_589)" fill-opacity="0.6"/>
</g>
<rect x="28" y="31" width="1" height="3" fill="url(#paint1_linear_279_589)"/>
<rect x="30" y="31" width="1" height="3" fill="url(#paint2_linear_279_589)"/>
<rect x="29" y="31" width="1" height="3" fill="url(#paint3_linear_279_589)"/>
<rect x="27" y="32" width="1" height="3" fill="url(#paint4_linear_279_589)"/>
<rect x="31" y="32" width="1" height="3" fill="url(#paint5_linear_279_589)"/>
<rect x="26" y="33" width="1" height="4" fill="url(#paint6_linear_279_589)"/>
<rect x="32" y="33" width="1" height="4" fill="url(#paint7_linear_279_589)"/>
<rect x="28" y="34" width="1" height="4" fill="url(#paint8_linear_279_589)"/>
<rect x="30" y="34" width="1" height="4" fill="url(#paint9_linear_279_589)"/>
<rect x="29" y="34" width="1" height="3" fill="url(#paint10_linear_279_589)"/>
<rect x="27" y="35" width="1" height="4" fill="url(#paint11_linear_279_589)"/>
<rect x="31" y="35" width="1" height="4" fill="url(#paint12_linear_279_589)"/>
<rect x="28" y="38" width="1" height="4" fill="url(#paint13_linear_279_589)"/>
<rect x="30" y="38" width="1" height="4" fill="url(#paint14_linear_279_589)"/>
<rect x="29" y="37" width="1" height="4" fill="url(#paint15_linear_279_589)"/>
<rect x="29" y="41" width="1" height="5" fill="url(#paint16_linear_279_589)"/>
<rect x="32" y="40" width="1" height="2" fill="url(#paint17_linear_279_589)"/>
<rect x="26" y="40" width="1" height="2" fill="url(#paint18_linear_279_589)"/>
<rect x="27" y="43" width="1" height="2" fill="url(#paint19_linear_279_589)"/>
<rect x="31" y="43" width="1" height="2" fill="url(#paint20_linear_279_589)"/>
<rect x="31" y="46" width="1" height="1" fill="url(#paint21_linear_279_589)"/>
<rect x="27" y="46" width="1" height="1" fill="url(#paint22_linear_279_589)"/>
<rect x="29" y="47" width="1" height="3" fill="url(#paint23_linear_279_589)"/>
<rect x="29" y="51" width="1" height="2" fill="url(#paint24_linear_279_589)"/>
<rect x="29" y="54" width="1" height="1" fill="url(#paint25_linear_279_589)"/>
<defs>
<filter id="filter0_f_279_589" x="0" y="-4" width="59" height="94" filterUnits="userSpaceOnUse" color-interpolation-filters="sRGB">
<feFlood flood-opacity="0" result="BackgroundImageFix"/>
<feBlend mode="normal" in="SourceGraphic" in2="BackgroundImageFix" result="shape"/>
<feGaussianBlur stdDeviation="11" result="effect1_foregroundBlur_279_589"/>
</filter>
<linearGradient id="paint0_linear_279_589" x1="48.5" y1="43" x2="23.987" y2="60.4955" gradientUnits="userSpaceOnUse">
<stop stop-color="#7E05A9"/>
<stop offset="1" stop-color="#F5DDFE"/>
</linearGradient>
<linearGradient id="paint1_linear_279_589" x1="28.5" y1="31" x2="28.5" y2="34" gradientUnits="userSpaceOnUse">
<stop stop-color="#7B00A6"/>
<stop offset="1" stop-color="#BD63DD"/>
</linearGradient>
<linearGradient id="paint2_linear_279_589" x1="30.5" y1="31" x2="30.5" y2="34" gradientUnits="userSpaceOnUse">
<stop stop-color="#7B00A6"/>
<stop offset="1" stop-color="#BD63DD"/>
</linearGradient>
<linearGradient id="paint3_linear_279_589" x1="29.5" y1="31" x2="29.5" y2="34" gradientUnits="userSpaceOnUse">
<stop stop-color="#7B00A6"/>
<stop offset="1" stop-color="#BD63DD"/>
</linearGradient>
<linearGradient id="paint4_linear_279_589" x1="27.5" y1="32" x2="27.5" y2="35" gradientUnits="userSpaceOnUse">
<stop stop-color="#9302C7"/>
<stop offset="1" stop-color="#CD75EC"/>
</linearGradient>
<linearGradient id="paint5_linear_279_589" x1="31.5" y1="32" x2="31.5" y2="35" gradientUnits="userSpaceOnUse">
<stop stop-color="#9302C7"/>
<stop offset="1" stop-color="#CD75EC"/>
</linearGradient>
<linearGradient id="paint6_linear_279_589" x1="26.5" y1="33" x2="26.5" y2="37" gradientUnits="userSpaceOnUse">
<stop stop-color="#9302C7"/>
<stop offset="1" stop-color="#CD75EC"/>
</linearGradient>
<linearGradient id="paint7_linear_279_589" x1="32.5" y1="33" x2="32.5" y2="37" gradientUnits="userSpaceOnUse">
<stop stop-color="#9302C7"/>
<stop offset="1" stop-color="#CD75EC"/>
</linearGradient>
<linearGradient id="paint8_linear_279_589" x1="28.5" y1="34" x2="28.5" y2="38" gradientUnits="userSpaceOnUse">
<stop stop-color="#A82FD2"/>
<stop offset="1" stop-color="#DD97F5"/>
</linearGradient>
<linearGradient id="paint9_linear_279_589" x1="30.5" y1="34" x2="30.5" y2="38" gradientUnits="userSpaceOnUse">
<stop stop-color="#A82FD2"/>
<stop offset="1" stop-color="#DD97F5"/>
</linearGradient>
<linearGradient id="paint10_linear_279_589" x1="29.5" y1="34" x2="29.5" y2="37" gradientUnits="userSpaceOnUse">
<stop stop-color="#A82FD2"/>
<stop offset="1" stop-color="#DD97F5"/>
</linearGradient>
<linearGradient id="paint11_linear_279_589" x1="27.5" y1="35" x2="27.5" y2="39" gradientUnits="userSpaceOnUse">
<stop stop-color="#A82FD2"/>
<stop offset="1" stop-color="#DD97F5"/>
</linearGradient>
<linearGradient id="paint12_linear_279_589" x1="31.5" y1="35" x2="31.5" y2="39" gradientUnits="userSpaceOnUse">
<stop stop-color="#A82FD2"/>
<stop offset="1" stop-color="#DD97F5"/>
</linearGradient>
<linearGradient id="paint13_linear_279_589" x1="28.5" y1="38" x2="28.5" y2="42" gradientUnits="userSpaceOnUse">
<stop stop-color="#B74DDC"/>
<stop offset="1" stop-color="#E7B4FA"/>
</linearGradient>
<linearGradient id="paint14_linear_279_589" x1="30.5" y1="38" x2="30.5" y2="42" gradientUnits="userSpaceOnUse">
<stop stop-color="#B74DDC"/>
<stop offset="1" stop-color="#E7B4FA"/>
</linearGradient>
<linearGradient id="paint15_linear_279_589" x1="29.5" y1="37" x2="29.5" y2="41" gradientUnits="userSpaceOnUse">
<stop stop-color="#B74DDC"/>
<stop offset="1" stop-color="#E7B4FA"/>
</linearGradient>
<linearGradient id="paint16_linear_279_589" x1="29.5" y1="41" x2="29.5" y2="46" gradientUnits="userSpaceOnUse">
<stop stop-color="#C366E3"/>
<stop offset="1" stop-color="#F8E3FF"/>
</linearGradient>
<linearGradient id="paint17_linear_279_589" x1="32.5" y1="40" x2="32.5" y2="42" gradientUnits="userSpaceOnUse">
<stop stop-color="#7C02A7" stop-opacity="0.5"/>
<stop offset="1" stop-color="#DB94F4" stop-opacity="0.2"/>
</linearGradient>
<linearGradient id="paint18_linear_279_589" x1="26.5" y1="40" x2="26.5" y2="42" gradientUnits="userSpaceOnUse">
<stop stop-color="#7C02A7" stop-opacity="0.5"/>
<stop offset="1" stop-color="#DB94F4" stop-opacity="0.2"/>
</linearGradient>
<linearGradient id="paint19_linear_279_589" x1="27.5" y1="43" x2="27.5" y2="45" gradientUnits="userSpaceOnUse">
<stop stop-color="#7C02A7" stop-opacity="0.5"/>
<stop offset="1" stop-color="#DB94F4" stop-opacity="0.2"/>
</linearGradient>
<linearGradient id="paint20_linear_279_589" x1="31.5" y1="43" x2="31.5" y2="45" gradientUnits="userSpaceOnUse">
<stop stop-color="#7C02A7" stop-opacity="0.5"/>
<stop offset="1" stop-color="#DB94F4" stop-opacity="0.2"/>
</linearGradient>
<linearGradient id="paint21_linear_279_589" x1="31.5" y1="46" x2="31.5" y2="47" gradientUnits="userSpaceOnUse">
<stop stop-color="#7C02A7" stop-opacity="0.5"/>
<stop offset="1" stop-color="#DB94F4" stop-opacity="0.2"/>
</linearGradient>
<linearGradient id="paint22_linear_279_589" x1="27.5" y1="46" x2="27.5" y2="47" gradientUnits="userSpaceOnUse">
<stop stop-color="#7C02A7" stop-opacity="0.5"/>
<stop offset="1" stop-color="#DB94F4" stop-opacity="0.2"/>
</linearGradient>
<linearGradient id="paint23_linear_279_589" x1="29.5" y1="47" x2="29.5" y2="50" gradientUnits="userSpaceOnUse">
<stop stop-color="#7C02A7" stop-opacity="0.5"/>
<stop offset="1" stop-color="#DB94F4" stop-opacity="0.2"/>
</linearGradient>
<linearGradient id="paint24_linear_279_589" x1="29.5" y1="51" x2="29.5" y2="53" gradientUnits="userSpaceOnUse">
<stop stop-color="#7C02A7" stop-opacity="0.5"/>
<stop offset="1" stop-color="#DB94F4" stop-opacity="0.2"/>
</linearGradient>
<linearGradient id="paint25_linear_279_589" x1="29.5" y1="54" x2="29.5" y2="55" gradientUnits="userSpaceOnUse">
<stop stop-color="#7C02A7" stop-opacity="0.5"/>
<stop offset="1" stop-color="#DB94F4" stop-opacity="0.2"/>
</linearGradient>
</defs>
</svg>
