<svg viewBox="0 0 97 107" fill="none" xmlns="http://www.w3.org/2000/svg">
<path fill-rule="evenodd" clip-rule="evenodd" d="M49.1589 0H47.8408V1.31818H49.1589V0ZM45.2027 1.31824H51.7969V2.63635H53.1161V3.95453H43.8842V2.63635H45.2027V1.31824ZM42.5652 3.95459H54.4347V5.27271H55.7534V6.59089H41.2462V5.27271H42.5652V3.95459ZM38.6086 9.22729L39.9276 9.22731V6.59094H57.0726V9.22731L58.3912 9.22729V11.8637L59.7104 11.8636V14.5L61.029 14.5V17.1364L62.3477 17.1364V21.0909H34.652V17.1364L35.9711 17.1364V14.5L37.2901 14.5V11.8636L38.6086 11.8637V9.22729ZM33.3335 21.0909H63.6668V25.0454H64.9855V27.6818L66.3042 27.6818V30.3181H30.6955V27.6818L32.0145 27.6818V25.0454H33.3335V21.0909ZM67.6233 30.3182H29.3769V31.6364H28.0579V32.9545H68.942V31.6364H67.6233V30.3182ZM70.2607 32.9546H26.7389V34.2727H25.4204V35.5909H71.5798V34.2727H70.2607V32.9546ZM72.8985 35.5909H24.1014V36.9091H22.7828V38.2272H74.2176V36.9091H72.8985V35.5909ZM75.5363 38.2273H21.4638V39.5454H20.1448V40.8636H76.8549V39.5454H75.5363V38.2273ZM78.1741 40.8636H18.8263V42.1818H17.5072V43.4999H79.4928V42.1818H78.1741V40.8636ZM80.8114 43.5H16.1882V44.8182H80.8114V43.5ZM14.8697 44.8182H82.1306V46.1364H83.4492V47.4545H13.5507V46.1364H14.8697V44.8182ZM84.7679 47.4546H12.2317V48.7727H10.9131V50.0909H86.087V48.7727H84.7679V47.4546ZM9.59411 50.0909H87.4057V51.4091H88.7249V52.7272H8.27558V51.4091H9.59411V50.0909ZM6.95657 52.7273H90.0435L90.0435 55.3636H91.3617V56.6818H91.3621V72.4999H88.7246H88.7245H86.0869L86.0869 71.1818H82.1303V69.8636H75.5362V68.5454H72.8987V67.2272H66.3046V56.6818H66.3045V65.909H58.3914V56.6818H58.3912V64.5909H38.6086V56.6818H38.6085V65.909H30.6956V67.2272H24.1015V68.5454H21.4639V69.8636H14.8697V56.6818H14.8697V71.1818H10.9131V56.6818H10.9123V72.4999H9.59411V56.6818H9.59377V72.5H8.27558V56.6818H8.27523V72.5H5.63755V71.1818V55.3636H6.95573H6.95657V52.7273ZM91.3625 58H92.6807V68.5455H91.3625V58ZM93.9992 60.6364H92.681V67.2273H93.9992V60.6364ZM5.6372 58H4.31902V68.5455H5.6372V58ZM3 60.6364H4.31818V71.1818H3V60.6364ZM92.6807 72.5V68.5455H91.3625V72.5H92.6807ZM4.31902 68.5455H5.6372V72.5H4.31902V68.5455ZM92.681 67.2273V71.1818H93.9992V67.2273H92.681Z" fill="url(#paint0_linear_803_2)"/>
<g filter="url(#filter0_f_803_2)">
<ellipse cx="48.5001" cy="77.7727" rx="28.3551" ry="9.22727" fill="url(#paint1_radial_803_2)" fill-opacity="0.8"/>
</g>
<rect x="35.9712" y="73.8182" width="1.31818" height="7.90909" fill="url(#paint2_linear_803_2)"/>
<rect x="33.3335" y="75.1364" width="6.5942" height="2.63636" fill="url(#paint3_linear_803_2)"/>
<rect x="37.29" y="73.8182" width="1.31818" height="1.31818" fill="url(#paint4_linear_803_2)"/>
<rect x="34.6519" y="73.8182" width="1.31818" height="1.31818" fill="url(#paint5_linear_803_2)"/>
<rect x="34.6519" y="77.7727" width="1.31818" height="2.63636" fill="url(#paint6_linear_803_2)"/>
<rect x="37.29" y="77.7727" width="1.31818" height="2.63636" fill="url(#paint7_linear_803_2)"/>
<rect x="47.8408" y="73.8182" width="1.31818" height="7.90909" fill="url(#paint8_linear_803_2)"/>
<rect x="45.2026" y="75.1364" width="6.5942" height="2.63636" fill="url(#paint9_linear_803_2)"/>
<rect x="49.1592" y="73.8182" width="1.31818" height="1.31818" fill="url(#paint10_linear_803_2)"/>
<rect x="46.522" y="73.8182" width="1.31818" height="1.31818" fill="url(#paint11_linear_803_2)"/>
<rect x="46.522" y="77.7727" width="1.31818" height="2.63636" fill="url(#paint12_linear_803_2)"/>
<rect x="49.1592" y="77.7727" width="1.31818" height="2.63636" fill="url(#paint13_linear_803_2)"/>
<rect x="59.71" y="73.8182" width="1.31818" height="7.90909" fill="url(#paint14_linear_803_2)"/>
<rect x="57.0723" y="75.1364" width="6.5942" height="2.63636" fill="url(#paint15_linear_803_2)"/>
<rect x="61.0288" y="73.8182" width="1.31818" height="1.31818" fill="url(#paint16_linear_803_2)"/>
<rect x="58.3916" y="73.8182" width="1.31818" height="1.31818" fill="url(#paint17_linear_803_2)"/>
<rect x="58.3916" y="77.7727" width="1.31818" height="2.63636" fill="url(#paint18_linear_803_2)"/>
<rect x="61.0288" y="77.7727" width="1.31818" height="2.63636" fill="url(#paint19_linear_803_2)"/>
<rect x="46.522" y="7.90906" width="1.31818" height="3.95455" fill="#333333"/>
<rect x="49.1592" y="7.90906" width="1.31818" height="3.95455" fill="#333333"/>
<rect x="50.4785" y="7.90906" width="2.63768" height="3.95455" fill="#333333"/>
<rect x="51.7974" y="9.22729" width="1.31818" height="3.95455" fill="#333333"/>
<rect x="53.1157" y="9.22729" width="1.31818" height="3.95455" fill="#333333"/>
<rect x="43.8843" y="7.90906" width="2.63768" height="3.95455" fill="#333333"/>
<rect x="43.8843" y="9.22729" width="1.31818" height="3.95455" fill="#333333"/>
<rect x="42.5649" y="9.22729" width="1.31818" height="3.95455" fill="#333333"/>
<rect x="17.5073" y="9.22729" width="1.31818" height="2.63636" fill="#717171"/>
<rect x="18.8262" y="11.8636" width="1.31818" height="3.95455" fill="#717171"/>
<rect x="16.188" y="11.8636" width="1.31818" height="3.95455" fill="#717171"/>
<rect x="20.145" y="15.8182" width="1.31818" height="5.27273" fill="#717171"/>
<rect x="14.8696" y="15.8182" width="1.31818" height="5.27273" fill="#717171"/>
<rect x="21.4639" y="21.0909" width="1.31818" height="2.63636" fill="#717171"/>
<rect x="13.5508" y="21.0909" width="1.31818" height="2.63636" fill="#717171"/>
<rect x="22.7827" y="23.7273" width="1.31818" height="5.27273" fill="#717171"/>
<rect x="12.2314" y="23.7273" width="1.31818" height="5.27273" fill="#717171"/>
<rect x="13.5508" y="29" width="1.31818" height="1.31818" fill="#717171"/>
<rect x="14.8696" y="30.3182" width="1.31818" height="1.31818" fill="#717171"/>
<rect x="16.188" y="31.6364" width="3.95652" height="1.31818" fill="#717171"/>
<rect x="20.145" y="30.3182" width="1.31818" height="1.31818" fill="#717171"/>
<rect x="21.4639" y="29" width="1.31818" height="1.31818" fill="#717171"/>
<rect x="17.5073" y="11.8636" width="1.31818" height="5.27273" fill="#929292"/>
<rect x="18.8262" y="15.8182" width="1.31818" height="5.27273" fill="#929292"/>
<rect x="16.188" y="15.8182" width="1.31818" height="5.27273" fill="#929292"/>
<rect x="20.145" y="21.0909" width="1.31818" height="2.63636" fill="#929292"/>
<rect x="14.8696" y="21.0909" width="1.31818" height="2.63636" fill="#929292"/>
<rect x="21.4639" y="23.7273" width="1.31818" height="5.27273" fill="#929292"/>
<rect x="13.5508" y="23.7273" width="1.31818" height="5.27273" fill="#929292"/>
<rect x="16.188" y="30.3182" width="3.95652" height="1.31818" fill="#929292"/>
<rect x="14.8696" y="29" width="1.31818" height="1.31818" fill="#929292"/>
<rect x="20.145" y="29" width="1.31818" height="1.31818" fill="#929292"/>
<rect x="18.8262" y="21.0909" width="1.31818" height="2.63636" fill="#AEAEAE"/>
<rect x="16.188" y="21.0909" width="1.31818" height="2.63636" fill="#AEAEAE"/>
<rect x="14.8696" y="23.7273" width="1.31818" height="5.27273" fill="#AEAEAE"/>
<rect x="20.145" y="23.7273" width="1.31818" height="5.27273" fill="#AEAEAE"/>
<rect x="16.188" y="29" width="2.63768" height="1.31818" fill="#AEAEAE"/>
<rect x="17.5073" y="19.7727" width="1.31818" height="7.90909" fill="#5C5C5C"/>
<rect x="18.8262" y="29" width="1.31818" height="1.31818" fill="#AEAEAE"/>
<rect x="16.188" y="23.7273" width="1.31818" height="5.27273" fill="#7E7B7B"/>
<rect x="18.8262" y="23.7273" width="1.31818" height="5.27273" fill="#7E7B7B"/>
<rect x="17.5073" y="17.1364" width="1.31818" height="2.63636" fill="#AEAEAE"/>
<rect x="17.5073" y="27.6818" width="1.31818" height="1.31818" fill="#7E7B7B"/>
<rect x="78.1738" y="9.22729" width="1.31818" height="2.63636" fill="#717171"/>
<rect x="79.4932" y="11.8636" width="1.31818" height="3.95455" fill="#717171"/>
<rect x="76.8555" y="11.8636" width="1.31818" height="3.95455" fill="#717171"/>
<rect x="80.812" y="15.8182" width="1.31818" height="5.27273" fill="#717171"/>
<rect x="75.5366" y="15.8182" width="1.31818" height="5.27273" fill="#717171"/>
<rect x="82.1304" y="21.0909" width="1.31818" height="2.63636" fill="#717171"/>
<rect x="74.2173" y="21.0909" width="1.31818" height="2.63636" fill="#717171"/>
<rect x="83.4497" y="23.7273" width="1.31818" height="5.27273" fill="#717171"/>
<rect x="72.8989" y="23.7273" width="1.31818" height="5.27273" fill="#717171"/>
<rect x="74.2173" y="29" width="1.31818" height="1.31818" fill="#717171"/>
<rect x="75.5366" y="30.3182" width="1.31818" height="1.31818" fill="#717171"/>
<rect x="76.8555" y="31.6364" width="3.95652" height="1.31818" fill="#717171"/>
<rect x="80.812" y="30.3182" width="1.31818" height="1.31818" fill="#717171"/>
<rect x="82.1304" y="29" width="1.31818" height="1.31818" fill="#717171"/>
<rect x="78.1738" y="11.8636" width="1.31818" height="5.27273" fill="#929292"/>
<rect x="79.4932" y="15.8182" width="1.31818" height="5.27273" fill="#929292"/>
<rect x="76.8555" y="15.8182" width="1.31818" height="5.27273" fill="#929292"/>
<rect x="80.812" y="21.0909" width="1.31818" height="2.63636" fill="#929292"/>
<rect x="75.5366" y="21.0909" width="1.31818" height="2.63636" fill="#929292"/>
<rect x="82.1304" y="23.7273" width="1.31818" height="5.27273" fill="#929292"/>
<rect x="74.2173" y="23.7273" width="1.31818" height="5.27273" fill="#929292"/>
<rect x="76.8555" y="30.3182" width="3.95652" height="1.31818" fill="#929292"/>
<rect x="75.5366" y="29" width="1.31818" height="1.31818" fill="#929292"/>
<rect x="80.812" y="29" width="1.31818" height="1.31818" fill="#929292"/>
<rect x="79.4932" y="21.0909" width="1.31818" height="2.63636" fill="#AEAEAE"/>
<rect x="76.8555" y="21.0909" width="1.31818" height="2.63636" fill="#AEAEAE"/>
<rect x="75.5366" y="23.7273" width="1.31818" height="5.27273" fill="#AEAEAE"/>
<rect x="80.812" y="23.7273" width="1.31818" height="5.27273" fill="#AEAEAE"/>
<rect x="76.8555" y="29" width="2.63768" height="1.31818" fill="#AEAEAE"/>
<rect x="78.1738" y="19.7727" width="1.31818" height="7.90909" fill="#5C5C5C"/>
<rect x="79.4932" y="29" width="1.31818" height="1.31818" fill="#AEAEAE"/>
<rect x="76.8555" y="23.7273" width="1.31818" height="5.27273" fill="#7E7B7B"/>
<rect x="79.4932" y="23.7273" width="1.31818" height="5.27273" fill="#7E7B7B"/>
<rect x="78.1738" y="17.1364" width="1.31818" height="2.63636" fill="#AEAEAE"/>
<rect x="78.1738" y="27.6818" width="1.31818" height="1.31818" fill="#7E7B7B"/>
<defs>
<filter id="filter0_f_803_2" x="0.14502" y="48.5455" width="96.71" height="58.4545" filterUnits="userSpaceOnUse" color-interpolation-filters="sRGB">
<feFlood flood-opacity="0" result="BackgroundImageFix"/>
<feBlend mode="normal" in="SourceGraphic" in2="BackgroundImageFix" result="shape"/>
<feGaussianBlur stdDeviation="10" result="effect1_foregroundBlur_803_2"/>
</filter>
<linearGradient id="paint0_linear_803_2" x1="48.4996" y1="0" x2="48.4996" y2="71.1818" gradientUnits="userSpaceOnUse">
<stop stop-color="#999999"/>
<stop offset="1" stop-color="#2D2D2D"/>
</linearGradient>
<radialGradient id="paint1_radial_803_2" cx="0" cy="0" r="1" gradientUnits="userSpaceOnUse" gradientTransform="translate(48.5001 77.7727) rotate(127.533) scale(15.5145 31.8547)">
<stop stop-color="#331FC7"/>
<stop offset="1" stop-color="#2FA5DD"/>
</radialGradient>
<linearGradient id="paint2_linear_803_2" x1="36.6303" y1="73.8182" x2="36.6303" y2="81.7273" gradientUnits="userSpaceOnUse">
<stop stop-color="#331BC7"/>
<stop offset="1" stop-color="#2CD1F5" stop-opacity="0.76"/>
</linearGradient>
<linearGradient id="paint3_linear_803_2" x1="36.6306" y1="75.1364" x2="36.6306" y2="77.7727" gradientUnits="userSpaceOnUse">
<stop stop-color="#331BC7"/>
<stop offset="1" stop-color="#2CD1F5" stop-opacity="0.76"/>
</linearGradient>
<linearGradient id="paint4_linear_803_2" x1="37.9491" y1="73.8182" x2="37.9491" y2="75.1364" gradientUnits="userSpaceOnUse">
<stop stop-color="#331BC7"/>
<stop offset="1" stop-color="#2CD1F5" stop-opacity="0.76"/>
</linearGradient>
<linearGradient id="paint5_linear_803_2" x1="35.3109" y1="73.8182" x2="35.3109" y2="75.1364" gradientUnits="userSpaceOnUse">
<stop stop-color="#331BC7"/>
<stop offset="1" stop-color="#2CD1F5" stop-opacity="0.76"/>
</linearGradient>
<linearGradient id="paint6_linear_803_2" x1="35.3109" y1="77.7727" x2="35.3109" y2="80.4091" gradientUnits="userSpaceOnUse">
<stop stop-color="#331BC7"/>
<stop offset="1" stop-color="#2CD1F5" stop-opacity="0.76"/>
</linearGradient>
<linearGradient id="paint7_linear_803_2" x1="37.9491" y1="77.7727" x2="37.9491" y2="80.4091" gradientUnits="userSpaceOnUse">
<stop stop-color="#331BC7"/>
<stop offset="1" stop-color="#2CD1F5" stop-opacity="0.76"/>
</linearGradient>
<linearGradient id="paint8_linear_803_2" x1="48.4999" y1="73.8182" x2="48.4999" y2="81.7273" gradientUnits="userSpaceOnUse">
<stop stop-color="#331BC7"/>
<stop offset="1" stop-color="#2CD1F5" stop-opacity="0.76"/>
</linearGradient>
<linearGradient id="paint9_linear_803_2" x1="48.4997" y1="75.1364" x2="48.4997" y2="77.7727" gradientUnits="userSpaceOnUse">
<stop stop-color="#331BC7"/>
<stop offset="1" stop-color="#2CD1F5" stop-opacity="0.76"/>
</linearGradient>
<linearGradient id="paint10_linear_803_2" x1="49.8183" y1="73.8182" x2="49.8183" y2="75.1364" gradientUnits="userSpaceOnUse">
<stop stop-color="#331BC7"/>
<stop offset="1" stop-color="#2CD1F5" stop-opacity="0.76"/>
</linearGradient>
<linearGradient id="paint11_linear_803_2" x1="47.1811" y1="73.8182" x2="47.1811" y2="75.1364" gradientUnits="userSpaceOnUse">
<stop stop-color="#331BC7"/>
<stop offset="1" stop-color="#2CD1F5" stop-opacity="0.76"/>
</linearGradient>
<linearGradient id="paint12_linear_803_2" x1="47.1811" y1="77.7727" x2="47.1811" y2="80.4091" gradientUnits="userSpaceOnUse">
<stop stop-color="#331BC7"/>
<stop offset="1" stop-color="#2CD1F5" stop-opacity="0.76"/>
</linearGradient>
<linearGradient id="paint13_linear_803_2" x1="49.8183" y1="77.7727" x2="49.8183" y2="80.4091" gradientUnits="userSpaceOnUse">
<stop stop-color="#331BC7"/>
<stop offset="1" stop-color="#2CD1F5" stop-opacity="0.76"/>
</linearGradient>
<linearGradient id="paint14_linear_803_2" x1="60.3691" y1="73.8182" x2="60.3691" y2="81.7273" gradientUnits="userSpaceOnUse">
<stop stop-color="#331BC7"/>
<stop offset="1" stop-color="#2CD1F5" stop-opacity="0.76"/>
</linearGradient>
<linearGradient id="paint15_linear_803_2" x1="60.3694" y1="75.1364" x2="60.3694" y2="77.7727" gradientUnits="userSpaceOnUse">
<stop stop-color="#331BC7"/>
<stop offset="1" stop-color="#2CD1F5" stop-opacity="0.76"/>
</linearGradient>
<linearGradient id="paint16_linear_803_2" x1="61.6879" y1="73.8182" x2="61.6879" y2="75.1364" gradientUnits="userSpaceOnUse">
<stop stop-color="#331BC7"/>
<stop offset="1" stop-color="#2CD1F5" stop-opacity="0.76"/>
</linearGradient>
<linearGradient id="paint17_linear_803_2" x1="59.0507" y1="73.8182" x2="59.0507" y2="75.1364" gradientUnits="userSpaceOnUse">
<stop stop-color="#331BC7"/>
<stop offset="1" stop-color="#2CD1F5" stop-opacity="0.76"/>
</linearGradient>
<linearGradient id="paint18_linear_803_2" x1="59.0507" y1="77.7727" x2="59.0507" y2="80.4091" gradientUnits="userSpaceOnUse">
<stop stop-color="#331BC7"/>
<stop offset="1" stop-color="#2CD1F5" stop-opacity="0.76"/>
</linearGradient>
<linearGradient id="paint19_linear_803_2" x1="61.6879" y1="77.7727" x2="61.6879" y2="80.4091" gradientUnits="userSpaceOnUse">
<stop stop-color="#331BC7"/>
<stop offset="1" stop-color="#2CD1F5" stop-opacity="0.76"/>
</linearGradient>
</defs>
</svg>
