<svg width="429" height="101" viewBox="0 0 429 101" fill="none" xmlns="http://www.w3.org/2000/svg">
<g filter="url(#filter0_d_813_331)">
<rect x="64" y="31" width="25" height="4" fill="url(#paint0_linear_813_331)"/>
<rect x="64" y="58" width="25" height="4" fill="url(#paint1_linear_813_331)"/>
<rect x="73" y="35" width="6" height="27" fill="url(#paint2_linear_813_331)"/>
<rect x="252" y="58" width="25" height="4" fill="url(#paint3_linear_813_331)"/>
<rect x="252" y="31" width="6" height="31" fill="url(#paint4_linear_813_331)"/>
<rect x="158" y="58" width="25" height="4" fill="url(#paint5_linear_813_331)"/>
<rect x="158" y="31" width="6" height="31" fill="url(#paint6_linear_813_331)"/>
<rect x="372" y="31" width="21" height="4" fill="url(#paint7_linear_813_331)"/>
<rect x="371" y="32" width="6" height="30" fill="url(#paint8_linear_813_331)"/>
<rect x="388" y="47" width="6" height="15" fill="url(#paint9_linear_813_331)"/>
<rect x="377" y="44" width="15" height="4" fill="url(#paint10_linear_813_331)"/>
<rect x="388" y="32" width="6" height="12" fill="url(#paint11_linear_813_331)"/>
<rect x="220" y="31" width="21" height="4" fill="url(#paint12_linear_813_331)"/>
<rect x="219" y="32" width="6" height="30" fill="url(#paint13_linear_813_331)"/>
<rect x="225" y="44" width="16" height="4" fill="url(#paint14_linear_813_331)"/>
<rect x="236" y="32" width="6" height="15" fill="url(#paint15_linear_813_331)"/>
<rect x="36" y="31" width="21" height="4" fill="url(#paint16_linear_813_331)"/>
<rect x="35" y="32" width="1" height="2" fill="url(#paint17_linear_813_331)"/>
<rect x="35" y="34" width="6" height="13" fill="url(#paint18_linear_813_331)"/>
<rect x="52" y="32" width="6" height="7" fill="url(#paint19_linear_813_331)"/>
<rect x="36" y="44" width="21" height="4" fill="url(#paint20_linear_813_331)"/>
<rect x="52" y="45" width="6" height="16" fill="url(#paint21_linear_813_331)"/>
<rect x="36" y="58" width="21" height="4" fill="url(#paint22_linear_813_331)"/>
<rect x="35" y="54" width="6" height="7" fill="url(#paint23_linear_813_331)"/>
<rect x="129" y="31" width="21" height="4" fill="url(#paint24_linear_813_331)"/>
<rect x="128" y="32" width="1" height="2" fill="url(#paint25_linear_813_331)"/>
<rect x="128" y="34" width="6" height="27" fill="url(#paint26_linear_813_331)"/>
<rect x="145" y="32" width="6" height="7" fill="url(#paint27_linear_813_331)"/>
<rect x="138" y="46" width="12" height="4" fill="url(#paint28_linear_813_331)"/>
<rect x="145" y="47" width="6" height="14" fill="url(#paint29_linear_813_331)"/>
<rect x="129" y="58" width="21" height="4" fill="url(#paint30_linear_813_331)"/>
<rect x="283" y="32" width="21" height="3" fill="url(#paint31_linear_813_331)"/>
<rect x="304" y="34" width="1" height="1" fill="url(#paint32_linear_813_331)"/>
<rect x="282" y="34" width="6" height="28" fill="url(#paint33_linear_813_331)"/>
<rect x="299" y="35" width="6" height="27" fill="url(#paint34_linear_813_331)"/>
<rect x="288" y="44" width="11" height="4" fill="url(#paint35_linear_813_331)"/>
<rect x="284" y="31" width="19" height="1" fill="url(#paint36_linear_813_331)"/>
<rect x="344" y="31" width="20" height="4" fill="url(#paint37_linear_813_331)"/>
<rect x="343" y="32" width="6" height="29" fill="url(#paint38_linear_813_331)"/>
<rect x="359" y="32" width="6" height="6" fill="url(#paint39_linear_813_331)"/>
<rect x="359" y="55" width="6" height="6" fill="url(#paint40_linear_813_331)"/>
<rect x="349" y="44" width="13" height="4" fill="url(#paint41_linear_813_331)"/>
<rect x="344" y="58" width="20" height="4" fill="url(#paint42_linear_813_331)"/>
<rect x="189" y="31" width="20" height="4" fill="url(#paint43_linear_813_331)"/>
<rect x="188" y="32" width="6" height="29" fill="url(#paint44_linear_813_331)"/>
<rect x="204" y="32" width="6" height="6" fill="url(#paint45_linear_813_331)"/>
<rect x="204" y="55" width="6" height="6" fill="url(#paint46_linear_813_331)"/>
<rect x="194" y="44" width="13" height="4" fill="url(#paint47_linear_813_331)"/>
<rect x="189" y="58" width="20" height="4" fill="url(#paint48_linear_813_331)"/>
<rect x="100" y="32" width="2" height="3" fill="url(#paint49_linear_813_331)"/>
<rect x="94" y="32" width="6" height="30" fill="url(#paint50_linear_813_331)"/>
<rect x="116" y="31" width="6" height="29" fill="url(#paint51_linear_813_331)"/>
<rect x="102" y="32" width="6" height="8" fill="url(#paint52_linear_813_331)"/>
<rect x="104" y="37" width="6" height="8" fill="url(#paint53_linear_813_331)"/>
<rect x="106" y="42" width="6" height="8" fill="url(#paint54_linear_813_331)"/>
<rect x="108" y="47" width="6" height="8" fill="url(#paint55_linear_813_331)"/>
<rect x="110" y="52" width="5" height="8" fill="url(#paint56_linear_813_331)"/>
<rect x="95" y="31" width="12" height="1" fill="url(#paint57_linear_813_331)"/>
<rect x="111" y="60" width="10" height="1" fill="url(#paint58_linear_813_331)"/>
<rect x="112" y="61" width="8" height="1" fill="url(#paint59_linear_813_331)"/>
<rect x="115" y="52" width="1" height="8" fill="url(#paint60_linear_813_331)"/>
<rect x="109" y="55" width="1" height="3" fill="url(#paint61_linear_813_331)"/>
<rect x="107" y="50" width="1" height="3" fill="url(#paint62_linear_813_331)"/>
<rect x="105" y="45" width="1" height="3" fill="url(#paint63_linear_813_331)"/>
<rect x="103" y="40" width="1" height="3" fill="url(#paint64_linear_813_331)"/>
<rect x="101" y="35" width="1" height="3" fill="url(#paint65_linear_813_331)"/>
<rect x="108" y="34" width="1" height="3" fill="url(#paint66_linear_813_331)"/>
<rect x="110" y="39" width="1" height="3" fill="url(#paint67_linear_813_331)"/>
<rect x="112" y="44" width="1" height="3" fill="url(#paint68_linear_813_331)"/>
<rect x="114" y="49" width="1" height="3" fill="url(#paint69_linear_813_331)"/>
<rect x="313" y="31" width="6" height="6" fill="url(#paint70_linear_813_331)"/>
<rect x="315" y="35" width="8" height="4" fill="url(#paint71_linear_813_331)"/>
<rect x="319" y="36" width="4" height="6" fill="url(#paint72_linear_813_331)"/>
<rect x="323" y="42" width="6" height="20" fill="url(#paint73_linear_813_331)"/>
<rect width="6" height="6" transform="matrix(-1 0 0 1 339 31)" fill="url(#paint74_linear_813_331)"/>
<rect width="6" height="4" transform="matrix(-1 0 0 1 335 35)" fill="url(#paint75_linear_813_331)"/>
<rect width="4" height="8" transform="matrix(-1 0 0 1 331 37)" fill="url(#paint76_linear_813_331)"/>
<rect x="335" y="37" width="2" height="2" fill="url(#paint77_linear_813_331)"/>
<rect x="325" y="40" width="2" height="2" fill="url(#paint78_linear_813_331)"/>
<rect x="331" y="33" width="3" height="2" fill="url(#paint79_linear_813_331)"/>
<rect x="325" y="39" width="2" height="1" fill="url(#paint80_linear_813_331)"/>
<rect x="331" y="39" width="2" height="4" fill="url(#paint81_linear_813_331)"/>
<rect x="323" y="37" width="2" height="5" fill="url(#paint82_linear_813_331)"/>
<rect x="319" y="33" width="2" height="2" fill="url(#paint83_linear_813_331)"/>
<rect x="319" y="42" width="2" height="1" fill="url(#paint84_linear_813_331)"/>
<rect x="317" y="39" width="2" height="2" fill="url(#paint85_linear_813_331)"/>
<rect x="315" y="37" width="1" height="1" fill="url(#paint86_linear_813_331)"/>
<rect x="321" y="44" width="1" height="1" fill="url(#paint87_linear_813_331)"/>
<rect x="322" y="42" width="1" height="3" fill="url(#paint88_linear_813_331)"/>
<rect x="321" y="42" width="1" height="2" fill="url(#paint89_linear_813_331)"/>
<rect x="333" y="39" width="2" height="2" fill="url(#paint90_linear_813_331)"/>
<rect x="329" y="45" width="1" height="2" fill="url(#paint91_linear_813_331)"/>
<rect x="322" y="45" width="1" height="2" fill="url(#paint92_linear_813_331)"/>
</g>
<defs>
<filter id="filter0_d_813_331" x="0" y="0" width="429" height="101" filterUnits="userSpaceOnUse" color-interpolation-filters="sRGB">
<feFlood flood-opacity="0" result="BackgroundImageFix"/>
<feColorMatrix in="SourceAlpha" type="matrix" values="0 0 0 0 0 0 0 0 0 0 0 0 0 0 0 0 0 0 127 0" result="hardAlpha"/>
<feOffset dy="4"/>
<feGaussianBlur stdDeviation="17.5"/>
<feComposite in2="hardAlpha" operator="out"/>
<feColorMatrix type="matrix" values="0 0 0 0 0.882425 0 0 0 0 0.547591 0 0 0 0 1 0 0 0 1 0"/>
<feBlend mode="normal" in2="BackgroundImageFix" result="effect1_dropShadow_813_331"/>
<feBlend mode="normal" in="SourceGraphic" in2="effect1_dropShadow_813_331" result="shape"/>
</filter>
<linearGradient id="paint0_linear_813_331" x1="76.5" y1="31" x2="76.4106" y2="61.4374" gradientUnits="userSpaceOnUse">
<stop stop-color="#DCAFF8"/>
<stop offset="1" stop-color="#600C95"/>
</linearGradient>
<linearGradient id="paint1_linear_813_331" x1="76.5" y1="58" x2="76.4106" y2="88.4374" gradientUnits="userSpaceOnUse">
<stop stop-color="#DCAFF8"/>
<stop offset="1" stop-color="#600C95"/>
</linearGradient>
<linearGradient id="paint2_linear_813_331" x1="76" y1="35" x2="59.1476" y2="239.062" gradientUnits="userSpaceOnUse">
<stop stop-color="#DCAFF8"/>
<stop offset="1" stop-color="#600C95"/>
</linearGradient>
<linearGradient id="paint3_linear_813_331" x1="264.5" y1="58" x2="264.411" y2="88.4374" gradientUnits="userSpaceOnUse">
<stop stop-color="#DCAFF8"/>
<stop offset="1" stop-color="#600C95"/>
</linearGradient>
<linearGradient id="paint4_linear_813_331" x1="255" y1="31" x2="232.832" y2="264.79" gradientUnits="userSpaceOnUse">
<stop stop-color="#DCAFF8"/>
<stop offset="1" stop-color="#600C95"/>
</linearGradient>
<linearGradient id="paint5_linear_813_331" x1="170.5" y1="58" x2="170.411" y2="88.4374" gradientUnits="userSpaceOnUse">
<stop stop-color="#DCAFF8"/>
<stop offset="1" stop-color="#600C95"/>
</linearGradient>
<linearGradient id="paint6_linear_813_331" x1="161" y1="31" x2="138.832" y2="264.79" gradientUnits="userSpaceOnUse">
<stop stop-color="#DCAFF8"/>
<stop offset="1" stop-color="#600C95"/>
</linearGradient>
<linearGradient id="paint7_linear_813_331" x1="382.5" y1="31" x2="382.394" y2="61.4373" gradientUnits="userSpaceOnUse">
<stop stop-color="#DCAFF8"/>
<stop offset="1" stop-color="#600C95"/>
</linearGradient>
<linearGradient id="paint8_linear_813_331" x1="374" y1="32" x2="353.228" y2="258.376" gradientUnits="userSpaceOnUse">
<stop stop-color="#DCAFF8"/>
<stop offset="1" stop-color="#600C95"/>
</linearGradient>
<linearGradient id="paint9_linear_813_331" x1="391" y1="47" x2="385.774" y2="160.901" gradientUnits="userSpaceOnUse">
<stop stop-color="#DCAFF8"/>
<stop offset="1" stop-color="#600C95"/>
</linearGradient>
<linearGradient id="paint10_linear_813_331" x1="384.5" y1="44" x2="384.351" y2="74.4369" gradientUnits="userSpaceOnUse">
<stop stop-color="#DCAFF8"/>
<stop offset="1" stop-color="#600C95"/>
</linearGradient>
<linearGradient id="paint11_linear_813_331" x1="391" y1="32" x2="387.653" y2="123.19" gradientUnits="userSpaceOnUse">
<stop stop-color="#DCAFF8"/>
<stop offset="1" stop-color="#600C95"/>
</linearGradient>
<linearGradient id="paint12_linear_813_331" x1="230.5" y1="31" x2="230.394" y2="61.4373" gradientUnits="userSpaceOnUse">
<stop stop-color="#DCAFF8"/>
<stop offset="1" stop-color="#600C95"/>
</linearGradient>
<linearGradient id="paint13_linear_813_331" x1="222" y1="32" x2="201.228" y2="258.376" gradientUnits="userSpaceOnUse">
<stop stop-color="#DCAFF8"/>
<stop offset="1" stop-color="#600C95"/>
</linearGradient>
<linearGradient id="paint14_linear_813_331" x1="233" y1="44" x2="232.86" y2="74.437" gradientUnits="userSpaceOnUse">
<stop stop-color="#DCAFF8"/>
<stop offset="1" stop-color="#600C95"/>
</linearGradient>
<linearGradient id="paint15_linear_813_331" x1="239" y1="32" x2="233.774" y2="145.901" gradientUnits="userSpaceOnUse">
<stop stop-color="#DCAFF8"/>
<stop offset="1" stop-color="#600C95"/>
</linearGradient>
<linearGradient id="paint16_linear_813_331" x1="46.5" y1="31" x2="46.3936" y2="61.4373" gradientUnits="userSpaceOnUse">
<stop stop-color="#DCAFF8"/>
<stop offset="1" stop-color="#600C95"/>
</linearGradient>
<linearGradient id="paint17_linear_813_331" x1="35.5" y1="32" x2="34.9422" y2="47.1983" gradientUnits="userSpaceOnUse">
<stop stop-color="#DCAFF8"/>
<stop offset="1" stop-color="#600C95"/>
</linearGradient>
<linearGradient id="paint18_linear_813_331" x1="38" y1="34" x2="34.0728" y2="132.766" gradientUnits="userSpaceOnUse">
<stop stop-color="#DCAFF8"/>
<stop offset="1" stop-color="#600C95"/>
</linearGradient>
<linearGradient id="paint19_linear_813_331" x1="55" y1="32" x2="53.8601" y2="85.2414" gradientUnits="userSpaceOnUse">
<stop stop-color="#DCAFF8"/>
<stop offset="1" stop-color="#600C95"/>
</linearGradient>
<linearGradient id="paint20_linear_813_331" x1="46.5" y1="44" x2="46.3936" y2="74.4373" gradientUnits="userSpaceOnUse">
<stop stop-color="#DCAFF8"/>
<stop offset="1" stop-color="#600C95"/>
</linearGradient>
<linearGradient id="paint21_linear_813_331" x1="55" y1="45" x2="49.0559" y2="166.46" gradientUnits="userSpaceOnUse">
<stop stop-color="#DCAFF8"/>
<stop offset="1" stop-color="#600C95"/>
</linearGradient>
<linearGradient id="paint22_linear_813_331" x1="46.5" y1="58" x2="46.3936" y2="88.4373" gradientUnits="userSpaceOnUse">
<stop stop-color="#DCAFF8"/>
<stop offset="1" stop-color="#600C95"/>
</linearGradient>
<linearGradient id="paint23_linear_813_331" x1="38" y1="54" x2="36.8601" y2="107.241" gradientUnits="userSpaceOnUse">
<stop stop-color="#DCAFF8"/>
<stop offset="1" stop-color="#600C95"/>
</linearGradient>
<linearGradient id="paint24_linear_813_331" x1="139.5" y1="31" x2="139.394" y2="61.4373" gradientUnits="userSpaceOnUse">
<stop stop-color="#DCAFF8"/>
<stop offset="1" stop-color="#600C95"/>
</linearGradient>
<linearGradient id="paint25_linear_813_331" x1="128.5" y1="32" x2="127.942" y2="47.1983" gradientUnits="userSpaceOnUse">
<stop stop-color="#DCAFF8"/>
<stop offset="1" stop-color="#600C95"/>
</linearGradient>
<linearGradient id="paint26_linear_813_331" x1="131" y1="34" x2="114.148" y2="238.062" gradientUnits="userSpaceOnUse">
<stop stop-color="#DCAFF8"/>
<stop offset="1" stop-color="#600C95"/>
</linearGradient>
<linearGradient id="paint27_linear_813_331" x1="148" y1="32" x2="146.86" y2="85.2414" gradientUnits="userSpaceOnUse">
<stop stop-color="#DCAFF8"/>
<stop offset="1" stop-color="#600C95"/>
</linearGradient>
<linearGradient id="paint28_linear_813_331" x1="144" y1="46" x2="143.814" y2="76.4365" gradientUnits="userSpaceOnUse">
<stop stop-color="#DCAFF8"/>
<stop offset="1" stop-color="#600C95"/>
</linearGradient>
<linearGradient id="paint29_linear_813_331" x1="148" y1="47" x2="143.446" y2="153.337" gradientUnits="userSpaceOnUse">
<stop stop-color="#DCAFF8"/>
<stop offset="1" stop-color="#600C95"/>
</linearGradient>
<linearGradient id="paint30_linear_813_331" x1="139.5" y1="58" x2="139.394" y2="88.4373" gradientUnits="userSpaceOnUse">
<stop stop-color="#DCAFF8"/>
<stop offset="1" stop-color="#600C95"/>
</linearGradient>
<linearGradient id="paint31_linear_813_331" x1="293.5" y1="32" x2="293.44" y2="54.8281" gradientUnits="userSpaceOnUse">
<stop stop-color="#DCAFF8"/>
<stop offset="1" stop-color="#600C95"/>
</linearGradient>
<linearGradient id="paint32_linear_813_331" x1="304.5" y1="34" x2="304.36" y2="41.6068" gradientUnits="userSpaceOnUse">
<stop stop-color="#DCAFF8"/>
<stop offset="1" stop-color="#600C95"/>
</linearGradient>
<linearGradient id="paint33_linear_813_331" x1="285" y1="34" x2="266.885" y2="245.512" gradientUnits="userSpaceOnUse">
<stop stop-color="#DCAFF8"/>
<stop offset="1" stop-color="#600C95"/>
</linearGradient>
<linearGradient id="paint34_linear_813_331" x1="302" y1="35" x2="285.148" y2="239.062" gradientUnits="userSpaceOnUse">
<stop stop-color="#DCAFF8"/>
<stop offset="1" stop-color="#600C95"/>
</linearGradient>
<linearGradient id="paint35_linear_813_331" x1="293.5" y1="44" x2="293.297" y2="74.4363" gradientUnits="userSpaceOnUse">
<stop stop-color="#DCAFF8"/>
<stop offset="1" stop-color="#600C95"/>
</linearGradient>
<linearGradient id="paint36_linear_813_331" x1="293.5" y1="31" x2="293.493" y2="38.6094" gradientUnits="userSpaceOnUse">
<stop stop-color="#DCAFF8"/>
<stop offset="1" stop-color="#600C95"/>
</linearGradient>
<linearGradient id="paint37_linear_813_331" x1="354" y1="31" x2="353.888" y2="61.4372" gradientUnits="userSpaceOnUse">
<stop stop-color="#DCAFF8"/>
<stop offset="1" stop-color="#600C95"/>
</linearGradient>
<linearGradient id="paint38_linear_813_331" x1="346" y1="32" x2="326.579" y2="250.95" gradientUnits="userSpaceOnUse">
<stop stop-color="#DCAFF8"/>
<stop offset="1" stop-color="#600C95"/>
</linearGradient>
<linearGradient id="paint39_linear_813_331" x1="362" y1="32" x2="361.162" y2="77.6411" gradientUnits="userSpaceOnUse">
<stop stop-color="#DCAFF8"/>
<stop offset="1" stop-color="#600C95"/>
</linearGradient>
<linearGradient id="paint40_linear_813_331" x1="362" y1="55" x2="361.162" y2="100.641" gradientUnits="userSpaceOnUse">
<stop stop-color="#DCAFF8"/>
<stop offset="1" stop-color="#600C95"/>
</linearGradient>
<linearGradient id="paint41_linear_813_331" x1="355.5" y1="44" x2="355.328" y2="74.4367" gradientUnits="userSpaceOnUse">
<stop stop-color="#DCAFF8"/>
<stop offset="1" stop-color="#600C95"/>
</linearGradient>
<linearGradient id="paint42_linear_813_331" x1="354" y1="58" x2="353.888" y2="88.4372" gradientUnits="userSpaceOnUse">
<stop stop-color="#DCAFF8"/>
<stop offset="1" stop-color="#600C95"/>
</linearGradient>
<linearGradient id="paint43_linear_813_331" x1="199" y1="31" x2="198.888" y2="61.4372" gradientUnits="userSpaceOnUse">
<stop stop-color="#DCAFF8"/>
<stop offset="1" stop-color="#600C95"/>
</linearGradient>
<linearGradient id="paint44_linear_813_331" x1="191" y1="32" x2="171.579" y2="250.95" gradientUnits="userSpaceOnUse">
<stop stop-color="#DCAFF8"/>
<stop offset="1" stop-color="#600C95"/>
</linearGradient>
<linearGradient id="paint45_linear_813_331" x1="207" y1="32" x2="206.162" y2="77.6411" gradientUnits="userSpaceOnUse">
<stop stop-color="#DCAFF8"/>
<stop offset="1" stop-color="#600C95"/>
</linearGradient>
<linearGradient id="paint46_linear_813_331" x1="207" y1="55" x2="206.162" y2="100.641" gradientUnits="userSpaceOnUse">
<stop stop-color="#DCAFF8"/>
<stop offset="1" stop-color="#600C95"/>
</linearGradient>
<linearGradient id="paint47_linear_813_331" x1="200.5" y1="44" x2="200.328" y2="74.4367" gradientUnits="userSpaceOnUse">
<stop stop-color="#DCAFF8"/>
<stop offset="1" stop-color="#600C95"/>
</linearGradient>
<linearGradient id="paint48_linear_813_331" x1="199" y1="58" x2="198.888" y2="88.4372" gradientUnits="userSpaceOnUse">
<stop stop-color="#DCAFF8"/>
<stop offset="1" stop-color="#600C95"/>
</linearGradient>
<linearGradient id="paint49_linear_813_331" x1="101" y1="32" x2="100.372" y2="54.8109" gradientUnits="userSpaceOnUse">
<stop stop-color="#DCAFF8"/>
<stop offset="1" stop-color="#600C95"/>
</linearGradient>
<linearGradient id="paint50_linear_813_331" x1="97" y1="32" x2="76.2276" y2="258.376" gradientUnits="userSpaceOnUse">
<stop stop-color="#DCAFF8"/>
<stop offset="1" stop-color="#600C95"/>
</linearGradient>
<linearGradient id="paint51_linear_813_331" x1="119" y1="31" x2="99.5787" y2="249.95" gradientUnits="userSpaceOnUse">
<stop stop-color="#DCAFF8"/>
<stop offset="1" stop-color="#600C95"/>
</linearGradient>
<linearGradient id="paint52_linear_813_331" x1="105" y1="32" x2="103.511" y2="92.8388" gradientUnits="userSpaceOnUse">
<stop stop-color="#DCAFF8"/>
<stop offset="1" stop-color="#600C95"/>
</linearGradient>
<linearGradient id="paint53_linear_813_331" x1="107" y1="37" x2="105.511" y2="97.8388" gradientUnits="userSpaceOnUse">
<stop stop-color="#DCAFF8"/>
<stop offset="1" stop-color="#600C95"/>
</linearGradient>
<linearGradient id="paint54_linear_813_331" x1="109" y1="42" x2="107.511" y2="102.839" gradientUnits="userSpaceOnUse">
<stop stop-color="#DCAFF8"/>
<stop offset="1" stop-color="#600C95"/>
</linearGradient>
<linearGradient id="paint55_linear_813_331" x1="111" y1="47" x2="109.511" y2="107.839" gradientUnits="userSpaceOnUse">
<stop stop-color="#DCAFF8"/>
<stop offset="1" stop-color="#600C95"/>
</linearGradient>
<linearGradient id="paint56_linear_813_331" x1="112.5" y1="52" x2="110.714" y2="112.823" gradientUnits="userSpaceOnUse">
<stop stop-color="#DCAFF8"/>
<stop offset="1" stop-color="#600C95"/>
</linearGradient>
<linearGradient id="paint57_linear_813_331" x1="101" y1="31" x2="100.988" y2="38.6094" gradientUnits="userSpaceOnUse">
<stop stop-color="#DCAFF8"/>
<stop offset="1" stop-color="#600C95"/>
</linearGradient>
<linearGradient id="paint58_linear_813_331" x1="116" y1="60" x2="115.986" y2="67.6094" gradientUnits="userSpaceOnUse">
<stop stop-color="#DCAFF8"/>
<stop offset="1" stop-color="#600C95"/>
</linearGradient>
<linearGradient id="paint59_linear_813_331" x1="116" y1="61" x2="115.983" y2="68.6094" gradientUnits="userSpaceOnUse">
<stop stop-color="#DCAFF8"/>
<stop offset="1" stop-color="#600C95"/>
</linearGradient>
<linearGradient id="paint60_linear_813_331" x1="115.5" y1="52" x2="106.751" y2="111.591" gradientUnits="userSpaceOnUse">
<stop stop-color="#DCAFF8"/>
<stop offset="1" stop-color="#600C95"/>
</linearGradient>
<linearGradient id="paint61_linear_813_331" x1="109.5" y1="55" x2="108.247" y2="77.7592" gradientUnits="userSpaceOnUse">
<stop stop-color="#DCAFF8"/>
<stop offset="1" stop-color="#600C95"/>
</linearGradient>
<linearGradient id="paint62_linear_813_331" x1="107.5" y1="50" x2="106.247" y2="72.7592" gradientUnits="userSpaceOnUse">
<stop stop-color="#DCAFF8"/>
<stop offset="1" stop-color="#600C95"/>
</linearGradient>
<linearGradient id="paint63_linear_813_331" x1="105.5" y1="45" x2="104.247" y2="67.7592" gradientUnits="userSpaceOnUse">
<stop stop-color="#DCAFF8"/>
<stop offset="1" stop-color="#600C95"/>
</linearGradient>
<linearGradient id="paint64_linear_813_331" x1="103.5" y1="40" x2="102.247" y2="62.7592" gradientUnits="userSpaceOnUse">
<stop stop-color="#DCAFF8"/>
<stop offset="1" stop-color="#600C95"/>
</linearGradient>
<linearGradient id="paint65_linear_813_331" x1="101.5" y1="35" x2="100.247" y2="57.7592" gradientUnits="userSpaceOnUse">
<stop stop-color="#DCAFF8"/>
<stop offset="1" stop-color="#600C95"/>
</linearGradient>
<linearGradient id="paint66_linear_813_331" x1="108.5" y1="34" x2="107.247" y2="56.7592" gradientUnits="userSpaceOnUse">
<stop stop-color="#DCAFF8"/>
<stop offset="1" stop-color="#600C95"/>
</linearGradient>
<linearGradient id="paint67_linear_813_331" x1="110.5" y1="39" x2="109.247" y2="61.7592" gradientUnits="userSpaceOnUse">
<stop stop-color="#DCAFF8"/>
<stop offset="1" stop-color="#600C95"/>
</linearGradient>
<linearGradient id="paint68_linear_813_331" x1="112.5" y1="44" x2="111.247" y2="66.7592" gradientUnits="userSpaceOnUse">
<stop stop-color="#DCAFF8"/>
<stop offset="1" stop-color="#600C95"/>
</linearGradient>
<linearGradient id="paint69_linear_813_331" x1="114.5" y1="49" x2="113.247" y2="71.7592" gradientUnits="userSpaceOnUse">
<stop stop-color="#DCAFF8"/>
<stop offset="1" stop-color="#600C95"/>
</linearGradient>
<linearGradient id="paint70_linear_813_331" x1="316" y1="31" x2="315.162" y2="76.6411" gradientUnits="userSpaceOnUse">
<stop stop-color="#DCAFF8"/>
<stop offset="1" stop-color="#600C95"/>
</linearGradient>
<linearGradient id="paint71_linear_813_331" x1="319" y1="35" x2="318.721" y2="65.4351" gradientUnits="userSpaceOnUse">
<stop stop-color="#DCAFF8"/>
<stop offset="1" stop-color="#600C95"/>
</linearGradient>
<linearGradient id="paint72_linear_813_331" x1="321" y1="36" x2="319.744" y2="81.6219" gradientUnits="userSpaceOnUse">
<stop stop-color="#DCAFF8"/>
<stop offset="1" stop-color="#600C95"/>
</linearGradient>
<linearGradient id="paint73_linear_813_331" x1="326" y1="42" x2="316.725" y2="193.621" gradientUnits="userSpaceOnUse">
<stop stop-color="#DCAFF8"/>
<stop offset="1" stop-color="#600C95"/>
</linearGradient>
<linearGradient id="paint74_linear_813_331" x1="3" y1="1.24855e-08" x2="2.16239" y2="45.6411" gradientUnits="userSpaceOnUse">
<stop stop-color="#DCAFF8"/>
<stop offset="1" stop-color="#600C95"/>
</linearGradient>
<linearGradient id="paint75_linear_813_331" x1="3" y1="8.32369e-09" x2="2.62766" y2="30.4331" gradientUnits="userSpaceOnUse">
<stop stop-color="#DCAFF8"/>
<stop offset="1" stop-color="#600C95"/>
</linearGradient>
<linearGradient id="paint76_linear_813_331" x1="2" y1="1.66474e-08" x2="-0.231377" y2="60.7934" gradientUnits="userSpaceOnUse">
<stop stop-color="#DCAFF8"/>
<stop offset="1" stop-color="#600C95"/>
</linearGradient>
<linearGradient id="paint77_linear_813_331" x1="336" y1="37" x2="335.721" y2="52.2137" gradientUnits="userSpaceOnUse">
<stop stop-color="#DCAFF8"/>
<stop offset="1" stop-color="#600C95"/>
</linearGradient>
<linearGradient id="paint78_linear_813_331" x1="326" y1="40" x2="325.721" y2="55.2137" gradientUnits="userSpaceOnUse">
<stop stop-color="#DCAFF8"/>
<stop offset="1" stop-color="#600C95"/>
</linearGradient>
<linearGradient id="paint79_linear_813_331" x1="332.5" y1="33" x2="332.314" y2="48.2165" gradientUnits="userSpaceOnUse">
<stop stop-color="#DCAFF8"/>
<stop offset="1" stop-color="#600C95"/>
</linearGradient>
<linearGradient id="paint80_linear_813_331" x1="326" y1="39" x2="325.93" y2="46.6088" gradientUnits="userSpaceOnUse">
<stop stop-color="#DCAFF8"/>
<stop offset="1" stop-color="#600C95"/>
</linearGradient>
<linearGradient id="paint81_linear_813_331" x1="332" y1="39" x2="330.884" y2="69.3967" gradientUnits="userSpaceOnUse">
<stop stop-color="#DCAFF8"/>
<stop offset="1" stop-color="#600C95"/>
</linearGradient>
<linearGradient id="paint82_linear_813_331" x1="324" y1="37" x2="322.258" y2="74.9671" gradientUnits="userSpaceOnUse">
<stop stop-color="#DCAFF8"/>
<stop offset="1" stop-color="#600C95"/>
</linearGradient>
<linearGradient id="paint83_linear_813_331" x1="320" y1="33" x2="319.721" y2="48.2137" gradientUnits="userSpaceOnUse">
<stop stop-color="#DCAFF8"/>
<stop offset="1" stop-color="#600C95"/>
</linearGradient>
<linearGradient id="paint84_linear_813_331" x1="320" y1="42" x2="319.93" y2="49.6088" gradientUnits="userSpaceOnUse">
<stop stop-color="#DCAFF8"/>
<stop offset="1" stop-color="#600C95"/>
</linearGradient>
<linearGradient id="paint85_linear_813_331" x1="318" y1="39" x2="317.721" y2="54.2137" gradientUnits="userSpaceOnUse">
<stop stop-color="#DCAFF8"/>
<stop offset="1" stop-color="#600C95"/>
</linearGradient>
<linearGradient id="paint86_linear_813_331" x1="315.5" y1="37" x2="315.36" y2="44.6068" gradientUnits="userSpaceOnUse">
<stop stop-color="#DCAFF8"/>
<stop offset="1" stop-color="#600C95"/>
</linearGradient>
<linearGradient id="paint87_linear_813_331" x1="321.5" y1="44" x2="321.36" y2="51.6068" gradientUnits="userSpaceOnUse">
<stop stop-color="#DCAFF8"/>
<stop offset="1" stop-color="#600C95"/>
</linearGradient>
<linearGradient id="paint88_linear_813_331" x1="322.5" y1="42" x2="321.247" y2="64.7592" gradientUnits="userSpaceOnUse">
<stop stop-color="#DCAFF8"/>
<stop offset="1" stop-color="#600C95"/>
</linearGradient>
<linearGradient id="paint89_linear_813_331" x1="321.5" y1="42" x2="320.942" y2="57.1983" gradientUnits="userSpaceOnUse">
<stop stop-color="#DCAFF8"/>
<stop offset="1" stop-color="#600C95"/>
</linearGradient>
<linearGradient id="paint90_linear_813_331" x1="334" y1="39" x2="333.721" y2="54.2137" gradientUnits="userSpaceOnUse">
<stop stop-color="#DCAFF8"/>
<stop offset="1" stop-color="#600C95"/>
</linearGradient>
<linearGradient id="paint91_linear_813_331" x1="329.5" y1="45" x2="328.942" y2="60.1983" gradientUnits="userSpaceOnUse">
<stop stop-color="#DCAFF8"/>
<stop offset="1" stop-color="#600C95"/>
</linearGradient>
<linearGradient id="paint92_linear_813_331" x1="322.5" y1="45" x2="321.942" y2="60.1983" gradientUnits="userSpaceOnUse">
<stop stop-color="#DCAFF8"/>
<stop offset="1" stop-color="#600C95"/>
</linearGradient>
</defs>
</svg>
