<svg viewBox="0 0 2100 1820" fill="none" xmlns="http://www.w3.org/2000/svg">
<g id="stars">
<g id="Star Background">
<line id="Line 485" x1="1898.88" y1="795.32" x2="1908.14" y2="795.32" stroke="white" stroke-opacity="0.6" stroke-width="6"/>
<line id="Line 23" x1="522.553" y1="77.3232" x2="528.725" y2="77.3232" stroke="white" stroke-opacity="0.6" stroke-width="6"/>
<line id="Line 33" x1="224.244" y1="150.357" x2="230.416" y2="150.357" stroke="white" stroke-opacity="0.6" stroke-width="6"/>
<line id="Line 34" x1="411.458" y1="175.574" x2="418.659" y2="175.574" stroke="white" stroke-width="7"/>
<line id="Line 55" x1="1237.46" y1="111.269" x2="1243.63" y2="111.269" stroke="white" stroke-opacity="0.6" stroke-width="6"/>
<line id="Line 56" x1="1368.1" y1="35.1489" x2="1374.27" y2="35.1489" stroke="white" stroke-opacity="0.6" stroke-width="6"/>
<line id="Line 57" x1="1498.74" y1="76.8232" x2="1505.94" y2="76.8232" stroke="white" stroke-width="7"/>
<line id="Line 58" x1="1346.5" y1="123.613" x2="1352.67" y2="123.613" stroke="white" stroke-opacity="0.6" stroke-width="6"/>
<line id="Line 72" x1="1317.7" y1="311.855" x2="1323.87" y2="311.855" stroke="white" stroke-opacity="0.2" stroke-width="6"/>
<line id="Line 59" x1="1460.68" y1="136.985" x2="1466.85" y2="136.985" stroke="white" stroke-opacity="0.6" stroke-width="6"/>
<line id="Line 60" x1="1586.18" y1="201.79" x2="1592.35" y2="201.79" stroke="white" stroke-opacity="0.4" stroke-width="6"/>
<line id="Line 62" x1="1435.99" y1="246.022" x2="1442.16" y2="246.022" stroke="white" stroke-opacity="0.4" stroke-width="6"/>
<line id="Line 73" x1="1580" y1="436.322" x2="1586.18" y2="436.322" stroke="white" stroke-opacity="0.2" stroke-width="6"/>
<line id="Line 64" x1="1545.03" y1="285.11" x2="1551.2" y2="285.11" stroke="white" stroke-opacity="0.4" stroke-width="6"/>
<line id="Line 65" x1="1466.85" y1="378.218" x2="1474.05" y2="378.218" stroke="white" stroke-width="7"/>
<line id="Line 116" x1="1010.13" y1="74.2373" x2="1016.3" y2="74.2373" stroke="white" stroke-opacity="0.6" stroke-width="6"/>
<line id="Line 117" x1="1140.77" y1="115.912" x2="1147.97" y2="115.912" stroke="white" stroke-width="7"/>
<line id="Line 118" x1="1102.71" y1="176.074" x2="1108.88" y2="176.074" stroke="white" stroke-opacity="0.6" stroke-width="6"/>
<line id="Line 119" x1="1228.21" y1="240.878" x2="1234.38" y2="240.878" stroke="white" stroke-opacity="0.4" stroke-width="6"/>
<line id="Line 120" x1="1078.02" y1="285.11" x2="1084.2" y2="285.11" stroke="white" stroke-opacity="0.4" stroke-width="6"/>
<line id="Line 121" x1="1222.03" y1="475.411" x2="1228.21" y2="475.411" stroke="white" stroke-opacity="0.2" stroke-width="6"/>
<line id="Line 122" x1="1187.06" y1="324.199" x2="1193.23" y2="324.199" stroke="white" stroke-opacity="0.4" stroke-width="6"/>
<line id="Line 123" x1="1108.88" y1="417.306" x2="1116.08" y2="417.306" stroke="white" stroke-width="7"/>
<line id="Line 124" x1="740.627" y1="3.26074" x2="746.799" y2="3.26074" stroke="white" stroke-opacity="0.6" stroke-width="6"/>
<line id="Line 125" x1="871.264" y1="44.9355" x2="878.464" y2="44.9355" stroke="white" stroke-width="7"/>
<line id="Line 126" x1="833.205" y1="105.097" x2="839.377" y2="105.097" stroke="white" stroke-opacity="0.6" stroke-width="6"/>
<line id="Line 127" x1="958.699" y1="169.902" x2="964.871" y2="169.902" stroke="white" stroke-opacity="0.4" stroke-width="6"/>
<line id="Line 128" x1="808.518" y1="214.134" x2="814.689" y2="214.134" stroke="white" stroke-opacity="0.4" stroke-width="6"/>
<line id="Line 129" x1="952.527" y1="404.434" x2="958.699" y2="404.434" stroke="white" stroke-opacity="0.2" stroke-width="6"/>
<line id="Line 130" x1="917.553" y1="253.223" x2="923.725" y2="253.223" stroke="white" stroke-opacity="0.4" stroke-width="6"/>
<line id="Line 132" x1="492.723" y1="62.9224" x2="498.895" y2="62.9224" stroke="white" stroke-opacity="0.6" stroke-width="6"/>
<line id="Line 133" x1="623.359" y1="104.597" x2="630.56" y2="104.597" stroke="white" stroke-width="7"/>
<line id="Line 135" x1="710.795" y1="229.563" x2="716.967" y2="229.563" stroke="white" stroke-opacity="0.4" stroke-width="6"/>
<line id="Line 137" x1="704.623" y1="464.095" x2="710.795" y2="464.095" stroke="white" stroke-opacity="0.2" stroke-width="6"/>
<line id="Line 139" x1="591.473" y1="405.991" x2="598.673" y2="405.991" stroke="white" stroke-width="7"/>
<line id="Line 140" x1="625.416" y1="512.442" x2="631.588" y2="512.442" stroke="white" stroke-opacity="0.6" stroke-width="6"/>
<line id="Line 141" x1="756.057" y1="554.116" x2="763.257" y2="554.116" stroke="white" stroke-width="7"/>
<line id="Line 142" x1="717.994" y1="614.278" x2="724.166" y2="614.278" stroke="white" stroke-opacity="0.6" stroke-width="6"/>
<line id="Line 143" x1="843.49" y1="679.083" x2="849.662" y2="679.083" stroke="white" stroke-opacity="0.4" stroke-width="6"/>
<line id="Line 144" x1="693.307" y1="723.315" x2="699.479" y2="723.315" stroke="white" stroke-opacity="0.4" stroke-width="6"/>
<line id="Line 145" x1="837.318" y1="913.615" x2="843.49" y2="913.615" stroke="white" stroke-opacity="0.2" stroke-width="6"/>
<line id="Line 146" x1="802.344" y1="762.403" x2="808.516" y2="762.403" stroke="white" stroke-opacity="0.4" stroke-width="6"/>
<line id="Line 147" x1="724.168" y1="855.511" x2="731.369" y2="855.511" stroke="white" stroke-width="7"/>
<line id="Line 148" x1="492.723" y1="62.9224" x2="498.895" y2="62.9224" stroke="white" stroke-opacity="0.6" stroke-width="6"/>
<line id="Line 149" x1="623.359" y1="104.597" x2="630.56" y2="104.597" stroke="white" stroke-width="7"/>
<line id="Line 151" x1="710.795" y1="229.563" x2="716.967" y2="229.563" stroke="white" stroke-opacity="0.4" stroke-width="6"/>
<line id="Line 153" x1="704.623" y1="464.095" x2="710.795" y2="464.095" stroke="white" stroke-opacity="0.2" stroke-width="6"/>
<line id="Line 156" x1="925.785" y1="465.124" x2="931.957" y2="465.124" stroke="white" stroke-opacity="0.2" stroke-width="6"/>
<line id="Line 157" x1="846.576" y1="513.471" x2="852.748" y2="513.471" stroke="white" stroke-opacity="0.6" stroke-width="6"/>
<line id="Line 158" x1="977.219" y1="555.145" x2="984.419" y2="555.145" stroke="white" stroke-width="7"/>
<line id="Line 159" x1="939.154" y1="615.307" x2="945.326" y2="615.307" stroke="white" stroke-opacity="0.6" stroke-width="6"/>
<line id="Line 160" x1="1064.65" y1="680.111" x2="1070.82" y2="680.111" stroke="white" stroke-opacity="0.4" stroke-width="6"/>
<line id="Line 161" x1="914.467" y1="724.344" x2="920.639" y2="724.344" stroke="white" stroke-opacity="0.4" stroke-width="6"/>
<line id="Line 162" x1="1023.5" y1="763.432" x2="1029.68" y2="763.432" stroke="white" stroke-opacity="0.4" stroke-width="6"/>
<line id="Line 163" x1="945.332" y1="856.539" x2="952.533" y2="856.539" stroke="white" stroke-width="7"/>
<line id="Line 164" x1="925.785" y1="465.124" x2="931.957" y2="465.124" stroke="white" stroke-opacity="0.2" stroke-width="6"/>
<line id="Line 165" x1="530.783" y1="620.45" x2="536.955" y2="620.45" stroke="white" stroke-opacity="0.2" stroke-width="6"/>
<line id="Line 166" x1="451.576" y1="668.796" x2="457.748" y2="668.796" stroke="white" stroke-opacity="0.6" stroke-width="6"/>
<line id="Line 167" x1="582.219" y1="710.471" x2="589.419" y2="710.471" stroke="white" stroke-width="7"/>
<line id="Line 168" x1="544.154" y1="770.633" x2="550.326" y2="770.633" stroke="white" stroke-opacity="0.6" stroke-width="6"/>
<line id="Line 169" x1="669.648" y1="835.437" x2="675.82" y2="835.438" stroke="white" stroke-opacity="0.4" stroke-width="6"/>
<line id="Line 184" y1="506.799" x2="7.20054" y2="506.799" stroke="white" stroke-width="7"/>
<line id="Line 186" x1="87.4316" y1="631.765" x2="93.6035" y2="631.765" stroke="white" stroke-opacity="0.4" stroke-width="6"/>
<line id="Line 188" x1="46.2861" y1="715.085" x2="52.458" y2="715.085" stroke="white" stroke-opacity="0.4" stroke-width="6"/>
<line id="Line 190" x1="90.5195" y1="466.153" x2="96.6914" y2="466.153" stroke="white" stroke-opacity="0.6" stroke-width="6"/>
<line id="Line 191" x1="221.161" y1="507.827" x2="228.362" y2="507.827" stroke="white" stroke-width="7"/>
<line id="Line 192" x1="183.099" y1="567.989" x2="189.271" y2="567.989" stroke="white" stroke-opacity="0.6" stroke-width="6"/>
<line id="Line 193" x1="158.411" y1="677.025" x2="164.583" y2="677.025" stroke="white" stroke-opacity="0.4" stroke-width="6"/>
<line id="Line 194" x1="267.447" y1="716.114" x2="273.619" y2="716.114" stroke="white" stroke-opacity="0.4" stroke-width="6"/>
<line id="Line 170" x1="519.467" y1="879.669" x2="525.639" y2="879.669" stroke="white" stroke-opacity="0.4" stroke-width="6"/>
<line id="Line 171" x1="628.504" y1="918.758" x2="634.676" y2="918.758" stroke="white" stroke-opacity="0.4" stroke-width="6"/>
<line id="Line 172" x1="550.33" y1="1011.87" x2="557.531" y2="1011.87" stroke="white" stroke-width="7"/>
<line id="Line 173" x1="530.783" y1="620.45" x2="536.955" y2="620.45" stroke="white" stroke-opacity="0.2" stroke-width="6"/>
<line id="Line 174" x1="361.057" y1="246.022" x2="367.229" y2="246.022" stroke="white" stroke-opacity="0.2" stroke-width="6"/>
<line id="Line 176" x1="412.491" y1="336.043" x2="419.692" y2="336.043" stroke="white" stroke-width="7"/>
<line id="Line 178" x1="499.922" y1="461.009" x2="506.094" y2="461.009" stroke="white" stroke-opacity="0.4" stroke-width="6"/>
<line id="Line 179" x1="349.739" y1="505.241" x2="355.911" y2="505.241" stroke="white" stroke-opacity="0.4" stroke-width="6"/>
<line id="Line 180" x1="458.775" y1="544.33" x2="464.947" y2="544.33" stroke="white" stroke-opacity="0.4" stroke-width="6"/>
<line id="Line 199" x1="1355.76" y1="536.101" x2="1361.93" y2="536.101" stroke="white" stroke-opacity="0.2" stroke-width="6"/>
<line id="Line 200" x1="1276.55" y1="584.447" x2="1282.72" y2="584.447" stroke="white" stroke-opacity="0.6" stroke-width="6"/>
<line id="Line 202" x1="1369.13" y1="686.284" x2="1375.3" y2="686.284" stroke="white" stroke-opacity="0.6" stroke-width="6"/>
<line id="Line 203" x1="1494.62" y1="751.088" x2="1500.79" y2="751.088" stroke="white" stroke-opacity="0.4" stroke-width="6"/>
<line id="Line 204" x1="1344.44" y1="795.32" x2="1350.61" y2="795.32" stroke="white" stroke-opacity="0.4" stroke-width="6"/>
<line id="Line 205" x1="1453.48" y1="834.409" x2="1459.65" y2="834.409" stroke="white" stroke-opacity="0.4" stroke-width="6"/>
<line id="Line 206" x1="1355.76" y1="536.101" x2="1361.93" y2="536.101" stroke="white" stroke-opacity="0.2" stroke-width="6"/>
<line id="Line 207" x1="1576.92" y1="537.129" x2="1583.09" y2="537.129" stroke="white" stroke-opacity="0.2" stroke-width="6"/>
<line id="Line 208" x1="1497.71" y1="585.476" x2="1503.88" y2="585.476" stroke="white" stroke-opacity="0.6" stroke-width="6"/>
<line id="Line 209" x1="1628.35" y1="627.15" x2="1635.55" y2="627.15" stroke="white" stroke-width="7"/>
<line id="Line 210" x1="1590.29" y1="687.312" x2="1596.46" y2="687.312" stroke="white" stroke-opacity="0.6" stroke-width="6"/>
<line id="Line 211" x1="1715.79" y1="752.117" x2="1721.96" y2="752.117" stroke="white" stroke-opacity="0.4" stroke-width="6"/>
<line id="Line 212" x1="1565.6" y1="796.349" x2="1571.77" y2="796.349" stroke="white" stroke-opacity="0.4" stroke-width="6"/>
<line id="Line 213" x1="1674.64" y1="835.437" x2="1680.81" y2="835.438" stroke="white" stroke-opacity="0.4" stroke-width="6"/>
<line id="Line 214" x1="1576.92" y1="537.129" x2="1583.09" y2="537.129" stroke="white" stroke-opacity="0.2" stroke-width="6"/>
<line id="Line 215" x1="1181.92" y1="692.456" x2="1188.09" y2="692.456" stroke="white" stroke-opacity="0.2" stroke-width="6"/>
<line id="Line 216" x1="1102.71" y1="740.802" x2="1108.88" y2="740.802" stroke="white" stroke-opacity="0.6" stroke-width="6"/>
<line id="Line 217" x1="1233.35" y1="782.477" x2="1240.55" y2="782.477" stroke="white" stroke-width="7"/>
<line id="Line 218" x1="1195.29" y1="842.638" x2="1201.46" y2="842.638" stroke="white" stroke-opacity="0.6" stroke-width="6"/>
<line id="Line 219" x1="1181.92" y1="692.456" x2="1188.09" y2="692.456" stroke="white" stroke-opacity="0.2" stroke-width="6"/>
<line id="Line 220" x1="1151.06" y1="533.015" x2="1157.23" y2="533.015" stroke="white" stroke-opacity="0.4" stroke-width="6"/>
<line id="Line 221" x1="1109.91" y1="616.335" x2="1116.08" y2="616.335" stroke="white" stroke-opacity="0.4" stroke-width="6"/>
<line id="Line 181" x1="380.604" y1="637.437" x2="387.804" y2="637.437" stroke="white" stroke-width="7"/>
<line id="Line 182" x1="361.057" y1="246.022" x2="367.229" y2="246.022" stroke="white" stroke-opacity="0.2" stroke-width="6"/>
<line id="Line 155" x1="591.473" y1="405.991" x2="598.673" y2="405.991" stroke="white" stroke-width="7"/>
<line id="Line 335" x1="1666.41" y1="1224.8" x2="1673.61" y2="1224.8" stroke="white" stroke-width="7"/>
<line id="Line 106" x1="1379.42" y1="608.635" x2="1386.62" y2="608.635" stroke="white" stroke-width="7"/>
<line id="Line 68" x1="1352.67" y1="246.022" x2="1358.84" y2="246.022" stroke="white" stroke-opacity="0.4" stroke-width="6"/>
<line id="Line 69" x1="1291.98" y1="190.475" x2="1298.15" y2="190.475" stroke="white" stroke-opacity="0.4" stroke-width="6"/>
<line id="Line 74" x1="1109.91" y1="35.1489" x2="1116.08" y2="35.1489" stroke="white" stroke-opacity="0.4" stroke-width="6"/>
<line id="Line 75" x1="643.934" y1="77.3232" x2="650.105" y2="77.3232" stroke="white" stroke-opacity="0.4" stroke-width="6"/>
<line id="Line 76" x1="505.066" y1="17.6621" x2="511.238" y2="17.6621" stroke="white" stroke-opacity="0.6" stroke-width="6"/>
<line id="Line 77" x1="759.143" y1="26.9199" x2="765.314" y2="26.9199" stroke="white" stroke-opacity="0.8" stroke-width="6"/>
<line id="Line 78" x1="953.557" y1="34.6489" x2="960.757" y2="34.6489" stroke="white" stroke-width="7"/>
<line id="Line 79" x1="1011.16" y1="8.40381" x2="1017.33" y2="8.40381" stroke="white" stroke-opacity="0.4" stroke-width="6"/>
<line id="Line 37" x1="351.797" y1="62.9224" x2="357.969" y2="62.9224" stroke="white" stroke-opacity="0.6" stroke-width="6"/>
<line id="Line 38" x1="198.528" y1="35.1489" x2="204.7" y2="35.1489" stroke="white" stroke-opacity="0.6" stroke-width="6"/>
<line id="Line 40" x1="328.138" y1="190.475" x2="334.31" y2="190.475" stroke="white" stroke-opacity="0.4" stroke-width="6"/>
<line id="Line 41" x1="172.812" y1="246.022" x2="178.983" y2="246.022" stroke="white" stroke-opacity="0.4" stroke-width="6"/>
<line id="Line 42" x1="267.447" y1="269.681" x2="273.619" y2="269.681" stroke="white" stroke-opacity="0.4" stroke-width="6"/>
<line id="Line 47" x1="192.356" y1="378.718" x2="198.528" y2="378.718" stroke="white" stroke-opacity="0.4" stroke-width="6"/>
<line id="Line 48" x1="261.275" y1="435.822" x2="268.476" y2="435.822" stroke="white" stroke-width="7"/>
<rect id="Rectangle 204" x="824.975" y="351.887" width="8.22919" height="8.22919" fill="#F8F8F8"/>
<line id="Line 222" x1="1393.82" y1="923.901" x2="1399.99" y2="923.901" stroke="white" stroke-opacity="0.6" stroke-width="6"/>
<line id="Line 223" x1="1095.51" y1="996.936" x2="1101.68" y2="996.936" stroke="white" stroke-opacity="0.6" stroke-width="6"/>
<line id="Line 224" x1="1282.72" y1="1022.15" x2="1289.93" y2="1022.15" stroke="white" stroke-width="7"/>
<line id="Line 236" x1="1881.4" y1="920.815" x2="1887.57" y2="920.815" stroke="white" stroke-opacity="0.6" stroke-width="6"/>
<line id="Line 237" x1="2012.04" y1="962.49" x2="2019.24" y2="962.49" stroke="white" stroke-width="7"/>
<line id="Line 238" x1="1973.98" y1="1022.65" x2="1980.15" y2="1022.65" stroke="white" stroke-opacity="0.6" stroke-width="6"/>
<line id="Line 240" x1="1949.29" y1="1131.69" x2="1955.46" y2="1131.69" stroke="white" stroke-opacity="0.4" stroke-width="6"/>
<line id="Line 241" x1="2093.3" y1="1321.99" x2="2099.47" y2="1321.99" stroke="white" stroke-opacity="0.2" stroke-width="6"/>
<line id="Line 242" x1="2058.32" y1="1170.78" x2="2064.5" y2="1170.78" stroke="white" stroke-opacity="0.4" stroke-width="6"/>
<line id="Line 243" x1="1980.15" y1="1263.88" x2="1987.35" y2="1263.88" stroke="white" stroke-width="7"/>
<line id="Line 244" x1="1611.89" y1="849.839" x2="1618.06" y2="849.839" stroke="white" stroke-opacity="0.6" stroke-width="6"/>
<line id="Line 245" x1="1742.53" y1="891.513" x2="1749.73" y2="891.513" stroke="white" stroke-width="7"/>
<line id="Line 246" x1="1704.47" y1="951.675" x2="1710.64" y2="951.675" stroke="white" stroke-opacity="0.6" stroke-width="6"/>
<line id="Line 247" x1="1829.96" y1="1016.48" x2="1836.14" y2="1016.48" stroke="white" stroke-opacity="0.4" stroke-width="6"/>
<line id="Line 248" x1="1679.78" y1="1060.71" x2="1685.95" y2="1060.71" stroke="white" stroke-opacity="0.4" stroke-width="6"/>
<line id="Line 249" x1="1823.79" y1="1251.01" x2="1829.96" y2="1251.01" stroke="white" stroke-opacity="0.2" stroke-width="6"/>
<line id="Line 250" x1="1788.82" y1="1099.8" x2="1794.99" y2="1099.8" stroke="white" stroke-opacity="0.4" stroke-width="6"/>
<line id="Line 251" x1="1363.99" y1="909.5" x2="1370.16" y2="909.5" stroke="white" stroke-opacity="0.6" stroke-width="6"/>
<line id="Line 252" x1="1494.62" y1="951.175" x2="1501.83" y2="951.175" stroke="white" stroke-width="7"/>
<line id="Line 253" x1="1582.06" y1="1076.14" x2="1588.23" y2="1076.14" stroke="white" stroke-opacity="0.4" stroke-width="6"/>
<line id="Line 254" x1="1575.89" y1="1310.67" x2="1582.06" y2="1310.67" stroke="white" stroke-opacity="0.2" stroke-width="6"/>
<line id="Line 255" x1="1462.74" y1="1252.57" x2="1469.94" y2="1252.57" stroke="white" stroke-width="7"/>
<line id="Line 256" x1="1496.68" y1="1359.02" x2="1502.85" y2="1359.02" stroke="white" stroke-opacity="0.6" stroke-width="6"/>
<line id="Line 257" x1="1627.32" y1="1400.69" x2="1634.52" y2="1400.69" stroke="white" stroke-width="7"/>
<line id="Line 258" x1="1589.26" y1="1460.86" x2="1595.43" y2="1460.86" stroke="white" stroke-opacity="0.6" stroke-width="6"/>
<line id="Line 259" x1="1714.75" y1="1525.66" x2="1720.93" y2="1525.66" stroke="white" stroke-opacity="0.4" stroke-width="6"/>
<line id="Line 260" x1="1564.57" y1="1569.89" x2="1570.74" y2="1569.89" stroke="white" stroke-opacity="0.4" stroke-width="6"/>
<line id="Line 261" x1="1708.58" y1="1760.19" x2="1714.75" y2="1760.19" stroke="white" stroke-opacity="0.2" stroke-width="6"/>
<line id="Line 262" x1="1673.61" y1="1608.98" x2="1679.78" y2="1608.98" stroke="white" stroke-opacity="0.4" stroke-width="6"/>
<line id="Line 263" x1="1595.44" y1="1702.09" x2="1602.64" y2="1702.09" stroke="white" stroke-width="7"/>
<line id="Line 264" x1="1363.99" y1="909.5" x2="1370.16" y2="909.5" stroke="white" stroke-opacity="0.6" stroke-width="6"/>
<line id="Line 265" x1="1494.62" y1="951.175" x2="1501.83" y2="951.175" stroke="white" stroke-width="7"/>
<line id="Line 266" x1="1582.06" y1="1076.14" x2="1588.23" y2="1076.14" stroke="white" stroke-opacity="0.4" stroke-width="6"/>
<line id="Line 267" x1="1575.89" y1="1310.67" x2="1582.06" y2="1310.67" stroke="white" stroke-opacity="0.2" stroke-width="6"/>
<line id="Line 268" x1="1797.05" y1="1311.7" x2="1803.22" y2="1311.7" stroke="white" stroke-opacity="0.2" stroke-width="6"/>
<line id="Line 269" x1="1717.84" y1="1360.05" x2="1724.01" y2="1360.05" stroke="white" stroke-opacity="0.6" stroke-width="6"/>
<line id="Line 270" x1="1848.48" y1="1401.72" x2="1855.68" y2="1401.72" stroke="white" stroke-width="7"/>
<line id="Line 271" x1="1810.42" y1="1461.88" x2="1816.59" y2="1461.88" stroke="white" stroke-opacity="0.6" stroke-width="6"/>
<line id="Line 272" x1="1935.92" y1="1526.69" x2="1942.09" y2="1526.69" stroke="white" stroke-opacity="0.4" stroke-width="6"/>
<line id="Line 273" x1="1785.73" y1="1570.92" x2="1791.9" y2="1570.92" stroke="white" stroke-opacity="0.4" stroke-width="6"/>
<line id="Line 274" x1="1894.77" y1="1610.01" x2="1900.94" y2="1610.01" stroke="white" stroke-opacity="0.4" stroke-width="6"/>
<line id="Line 275" x1="1816.6" y1="1703.12" x2="1823.8" y2="1703.12" stroke="white" stroke-width="7"/>
<line id="Line 276" x1="1797.05" y1="1311.7" x2="1803.22" y2="1311.7" stroke="white" stroke-opacity="0.2" stroke-width="6"/>
<line id="Line 277" x1="1402.05" y1="1467.03" x2="1408.22" y2="1467.03" stroke="white" stroke-opacity="0.2" stroke-width="6"/>
<line id="Line 278" x1="1322.84" y1="1515.37" x2="1329.01" y2="1515.37" stroke="white" stroke-opacity="0.6" stroke-width="6"/>
<line id="Line 279" x1="1453.48" y1="1557.05" x2="1460.68" y2="1557.05" stroke="white" stroke-width="7"/>
<line id="Line 280" x1="1415.42" y1="1617.21" x2="1421.59" y2="1617.21" stroke="white" stroke-opacity="0.6" stroke-width="6"/>
<line id="Line 281" x1="1540.91" y1="1682.02" x2="1547.09" y2="1682.02" stroke="white" stroke-opacity="0.4" stroke-width="6"/>
<line id="Line 282" x1="1092.43" y1="1354.41" x2="1099.63" y2="1354.41" stroke="white" stroke-width="7"/>
<line id="Line 283" x1="1054.36" y1="1414.57" x2="1060.54" y2="1414.57" stroke="white" stroke-opacity="0.6" stroke-width="6"/>
<line id="Line 284" x1="1029.68" y1="1523.6" x2="1035.85" y2="1523.6" stroke="white" stroke-opacity="0.4" stroke-width="6"/>
<line id="Line 285" x1="1138.71" y1="1562.69" x2="1144.88" y2="1562.69" stroke="white" stroke-opacity="0.4" stroke-width="6"/>
<line id="Line 286" x1="1390.73" y1="1726.25" x2="1396.9" y2="1726.25" stroke="white" stroke-opacity="0.4" stroke-width="6"/>
<line id="Line 287" x1="1499.77" y1="1765.34" x2="1505.94" y2="1765.34" stroke="white" stroke-opacity="0.4" stroke-width="6"/>
<line id="Line 288" x1="1402.05" y1="1467.03" x2="1408.22" y2="1467.03" stroke="white" stroke-opacity="0.2" stroke-width="6"/>
<line id="Line 289" x1="1232.32" y1="1092.6" x2="1238.49" y2="1092.6" stroke="white" stroke-opacity="0.2" stroke-width="6"/>
<line id="Line 290" x1="1283.76" y1="1182.62" x2="1290.96" y2="1182.62" stroke="white" stroke-width="7"/>
<line id="Line 291" x1="1371.19" y1="1307.59" x2="1377.36" y2="1307.59" stroke="white" stroke-opacity="0.4" stroke-width="6"/>
<line id="Line 292" x1="1221" y1="1351.82" x2="1227.18" y2="1351.82" stroke="white" stroke-opacity="0.4" stroke-width="6"/>
<line id="Line 293" x1="1330.04" y1="1390.91" x2="1336.21" y2="1390.91" stroke="white" stroke-opacity="0.4" stroke-width="6"/>
<line id="Line 309" x1="2053.18" y1="1539.03" x2="2059.36" y2="1539.03" stroke="white" stroke-opacity="0.2" stroke-width="6"/>
<line id="Line 310" x1="1973.98" y1="1587.38" x2="1980.15" y2="1587.38" stroke="white" stroke-opacity="0.6" stroke-width="6"/>
<line id="Line 312" x1="2066.55" y1="1689.22" x2="2072.73" y2="1689.22" stroke="white" stroke-opacity="0.6" stroke-width="6"/>
<line id="Line 313" x1="2053.18" y1="1539.03" x2="2059.36" y2="1539.03" stroke="white" stroke-opacity="0.2" stroke-width="6"/>
<line id="Line 314" x1="2022.32" y1="1379.59" x2="2028.49" y2="1379.59" stroke="white" stroke-opacity="0.4" stroke-width="6"/>
<line id="Line 315" x1="1981.18" y1="1462.91" x2="1987.35" y2="1462.91" stroke="white" stroke-opacity="0.4" stroke-width="6"/>
<line id="Line 316" x1="1251.87" y1="1484.01" x2="1259.07" y2="1484.01" stroke="white" stroke-width="7"/>
<line id="Line 317" x1="1232.32" y1="1092.6" x2="1238.49" y2="1092.6" stroke="white" stroke-opacity="0.2" stroke-width="6"/>
<line id="Line 318" x1="1462.74" y1="1252.57" x2="1469.94" y2="1252.57" stroke="white" stroke-width="7"/>
<line id="Line 322" x1="1981.18" y1="881.727" x2="1987.35" y2="881.727" stroke="white" stroke-opacity="0.4" stroke-width="6"/>
<line id="Line 323" x1="1515.2" y1="923.901" x2="1521.37" y2="923.901" stroke="white" stroke-opacity="0.4" stroke-width="6"/>
<line id="Line 324" x1="1376.33" y1="864.24" x2="1382.5" y2="864.24" stroke="white" stroke-opacity="0.6" stroke-width="6"/>
<line id="Line 325" x1="1630.41" y1="873.498" x2="1636.58" y2="873.498" stroke="white" stroke-opacity="0.8" stroke-width="6"/>
<line id="Line 326" x1="1824.82" y1="881.227" x2="1832.02" y2="881.227" stroke="white" stroke-width="7"/>
<line id="Line 327" x1="1882.43" y1="854.982" x2="1888.6" y2="854.982" stroke="white" stroke-opacity="0.4" stroke-width="6"/>
<line id="Line 328" x1="1223.06" y1="909.5" x2="1229.23" y2="909.5" stroke="white" stroke-opacity="0.6" stroke-width="6"/>
<line id="Line 329" x1="1069.79" y1="881.727" x2="1075.96" y2="881.727" stroke="white" stroke-opacity="0.6" stroke-width="6"/>
<line id="Line 330" x1="1199.4" y1="1037.05" x2="1205.57" y2="1037.05" stroke="white" stroke-opacity="0.4" stroke-width="6"/>
<line id="Line 331" x1="1044.08" y1="1092.6" x2="1050.25" y2="1092.6" stroke="white" stroke-opacity="0.4" stroke-width="6"/>
<line id="Line 332" x1="1138.71" y1="1116.26" x2="1144.88" y2="1116.26" stroke="white" stroke-opacity="0.4" stroke-width="6"/>
<line id="Line 333" x1="1063.62" y1="1225.3" x2="1069.79" y2="1225.3" stroke="white" stroke-opacity="0.4" stroke-width="6"/>
<line id="Line 334" x1="1132.54" y1="1282.4" x2="1139.74" y2="1282.4" stroke="white" stroke-width="7"/>
<line id="Line 160_2" x1="186.185" y1="785.034" x2="192.356" y2="785.034" stroke="white" stroke-opacity="0.4" stroke-width="6"/>
<line id="Line 215_2" x1="331.226" y1="789.148" x2="337.397" y2="789.148" stroke="white" stroke-opacity="0.2" stroke-width="6"/>
<line id="Line 216_2" x1="252.018" y1="837.495" x2="258.189" y2="837.495" stroke="white" stroke-opacity="0.6" stroke-width="6"/>
<line id="Line 217_2" x1="382.659" y1="879.169" x2="389.86" y2="879.169" stroke="white" stroke-width="7"/>
<line id="Line 219_2" x1="331.226" y1="789.148" x2="337.397" y2="789.148" stroke="white" stroke-opacity="0.2" stroke-width="6"/>
<line id="Line 134" x1="352.825" y1="753.146" x2="358.997" y2="753.146" stroke="white" stroke-opacity="0.6" stroke-width="6"/>
<line id="Line 136" x1="328.138" y1="862.183" x2="334.31" y2="862.183" stroke="white" stroke-opacity="0.4" stroke-width="6"/>
<line id="Line 150" x1="352.825" y1="753.146" x2="358.997" y2="753.146" stroke="white" stroke-opacity="0.6" stroke-width="6"/>
<line id="Line 152" x1="328.138" y1="862.183" x2="334.31" y2="862.183" stroke="white" stroke-opacity="0.4" stroke-width="6"/>
<line id="Line 339" x1="1264.21" y1="1745.79" x2="1270.38" y2="1745.79" stroke="white" stroke-opacity="0.2" stroke-width="6"/>
<line id="Line 340" x1="1151.06" y1="1687.69" x2="1158.26" y2="1687.69" stroke="white" stroke-width="7"/>
<line id="Line 343" x1="1397.93" y1="1806.48" x2="1404.1" y2="1806.48" stroke="white" stroke-opacity="0.2" stroke-width="6"/>
<line id="Line 346" x1="1397.93" y1="1806.48" x2="1404.1" y2="1806.48" stroke="white" stroke-opacity="0.2" stroke-width="6"/>
<line id="Line 350" x1="1193.23" y1="1803.4" x2="1199.4" y2="1803.4" stroke="white" stroke-opacity="0.4" stroke-width="6"/>
<line id="Line 342" x1="622.332" y1="1071" x2="628.504" y2="1071" stroke="white" stroke-opacity="0.6" stroke-width="6"/>
<line id="Line 343_2" x1="752.971" y1="994.878" x2="759.143" y2="994.878" stroke="white" stroke-opacity="0.6" stroke-width="6"/>
<line id="Line 143_2" x1="1889.62" y1="9.43262" x2="1895.8" y2="9.43262" stroke="white" stroke-opacity="0.4" stroke-width="6"/>
<line id="Line 144_2" x1="1739.44" y1="53.6646" x2="1745.61" y2="53.6646" stroke="white" stroke-opacity="0.4" stroke-width="6"/>
<line id="Line 145_2" x1="1883.45" y1="243.964" x2="1889.62" y2="243.964" stroke="white" stroke-opacity="0.2" stroke-width="6"/>
<line id="Line 146_2" x1="1848.48" y1="92.7534" x2="1854.65" y2="92.7534" stroke="white" stroke-opacity="0.4" stroke-width="6"/>
<line id="Line 147_2" x1="1770.3" y1="185.86" x2="1777.51" y2="185.86" stroke="white" stroke-width="7"/>
<line id="Line 161_2" x1="1960.6" y1="54.6934" x2="1966.78" y2="54.6934" stroke="white" stroke-opacity="0.4" stroke-width="6"/>
<line id="Line 169_2" x1="1715.79" y1="165.787" x2="1721.96" y2="165.787" stroke="white" stroke-opacity="0.4" stroke-width="6"/>
<line id="Line 171_2" x1="1674.64" y1="249.108" x2="1680.81" y2="249.108" stroke="white" stroke-opacity="0.4" stroke-width="6"/>
<line id="Line 456" x1="1799.11" y1="325.228" x2="1805.28" y2="325.228" stroke="white" stroke-opacity="0.6" stroke-width="6"/>
<line id="Line 458" x1="1814.54" y1="349.916" x2="1822.76" y2="349.916" stroke="white" stroke-opacity="0.4" stroke-width="6"/>
<line id="Line 460" x1="1968.83" y1="413.691" x2="1978.09" y2="413.691" stroke="white" stroke-opacity="0.4" stroke-width="6"/>
<line id="Line 461" x1="1857.74" y1="566.46" x2="1868.02" y2="566.46" stroke="white" stroke-width="7"/>
<line id="Line 466" x1="1780.59" y1="534.043" x2="1788.82" y2="534.043" stroke="white" stroke-opacity="0.4" stroke-width="6"/>
<line id="Line 467" x1="1721.96" y1="670.854" x2="1731.21" y2="670.854" stroke="white" stroke-opacity="0.4" stroke-width="6"/>
<line id="Line 344" x1="883.607" y1="1036.55" x2="890.808" y2="1036.55" stroke="white" stroke-width="7"/>
<line id="Line 345" x1="731.367" y1="1083.34" x2="737.539" y2="1083.34" stroke="white" stroke-opacity="0.6" stroke-width="6"/>
<line id="Line 346_2" x1="702.566" y1="1271.58" x2="708.738" y2="1271.58" stroke="white" stroke-opacity="0.2" stroke-width="6"/>
<line id="Line 347" x1="845.549" y1="1096.71" x2="851.721" y2="1096.71" stroke="white" stroke-opacity="0.6" stroke-width="6"/>
<line id="Line 348" x1="971.043" y1="1161.52" x2="977.215" y2="1161.52" stroke="white" stroke-opacity="0.4" stroke-width="6"/>
<line id="Line 349" x1="820.861" y1="1205.75" x2="827.033" y2="1205.75" stroke="white" stroke-opacity="0.4" stroke-width="6"/>
<line id="Line 350_2" x1="964.871" y1="1396.05" x2="971.043" y2="1396.05" stroke="white" stroke-opacity="0.2" stroke-width="6"/>
<line id="Line 351" x1="929.896" y1="1244.84" x2="936.068" y2="1244.84" stroke="white" stroke-opacity="0.4" stroke-width="6"/>
<line id="Line 352" x1="851.721" y1="1337.95" x2="858.921" y2="1337.95" stroke="white" stroke-width="7"/>
<line id="Line 353" x1="395" y1="1033.97" x2="401.172" y2="1033.97" stroke="white" stroke-opacity="0.6" stroke-width="6"/>
<line id="Line 355" x1="487.578" y1="1135.8" x2="493.75" y2="1135.8" stroke="white" stroke-opacity="0.6" stroke-width="6"/>
<line id="Line 356" x1="613.074" y1="1200.61" x2="619.246" y2="1200.61" stroke="white" stroke-opacity="0.4" stroke-width="6"/>
<line id="Line 357" x1="462.891" y1="1244.84" x2="469.063" y2="1244.84" stroke="white" stroke-opacity="0.4" stroke-width="6"/>
<line id="Line 358" x1="606.902" y1="1435.14" x2="613.074" y2="1435.14" stroke="white" stroke-opacity="0.2" stroke-width="6"/>
<line id="Line 359" x1="571.928" y1="1283.93" x2="578.1" y2="1283.93" stroke="white" stroke-opacity="0.4" stroke-width="6"/>
<line id="Line 360" x1="493.75" y1="1377.04" x2="500.951" y2="1377.04" stroke="white" stroke-width="7"/>
<line id="Line 361" x1="125.494" y1="962.99" x2="131.666" y2="962.99" stroke="white" stroke-opacity="0.6" stroke-width="6"/>
<line id="Line 362" x1="256.133" y1="1004.66" x2="263.333" y2="1004.66" stroke="white" stroke-width="7"/>
<line id="Line 363" x1="218.072" y1="1064.83" x2="224.244" y2="1064.83" stroke="white" stroke-opacity="0.6" stroke-width="6"/>
<line id="Line 364" x1="343.567" y1="1129.63" x2="349.739" y2="1129.63" stroke="white" stroke-opacity="0.4" stroke-width="6"/>
<line id="Line 365" x1="193.385" y1="1173.86" x2="199.557" y2="1173.86" stroke="white" stroke-opacity="0.4" stroke-width="6"/>
<line id="Line 366" x1="337.396" y1="1364.16" x2="343.567" y2="1364.16" stroke="white" stroke-opacity="0.2" stroke-width="6"/>
<line id="Line 367" x1="302.422" y1="1212.95" x2="308.594" y2="1212.95" stroke="white" stroke-opacity="0.4" stroke-width="6"/>
<line id="Line 374" x1="140.925" y1="1513.85" x2="148.125" y2="1513.85" stroke="white" stroke-width="7"/>
<line id="Line 376" x1="228.357" y1="1638.81" x2="234.529" y2="1638.81" stroke="white" stroke-opacity="0.4" stroke-width="6"/>
<line id="Line 379" x1="187.211" y1="1722.13" x2="193.383" y2="1722.13" stroke="white" stroke-opacity="0.4" stroke-width="6"/>
<line id="Line 385" x1="310.653" y1="1424.85" x2="316.825" y2="1424.85" stroke="white" stroke-opacity="0.2" stroke-width="6"/>
<line id="Line 386" x1="231.445" y1="1473.2" x2="237.617" y2="1473.2" stroke="white" stroke-opacity="0.6" stroke-width="6"/>
<line id="Line 387" x1="362.087" y1="1514.87" x2="369.287" y2="1514.87" stroke="white" stroke-width="7"/>
<line id="Line 388" x1="324.023" y1="1575.04" x2="330.195" y2="1575.04" stroke="white" stroke-opacity="0.6" stroke-width="6"/>
<line id="Line 389" x1="449.519" y1="1639.84" x2="455.69" y2="1639.84" stroke="white" stroke-opacity="0.4" stroke-width="6"/>
<line id="Line 390" x1="299.336" y1="1684.07" x2="305.508" y2="1684.07" stroke="white" stroke-opacity="0.4" stroke-width="6"/>
<line id="Line 391" x1="408.372" y1="1723.16" x2="414.544" y2="1723.16" stroke="white" stroke-opacity="0.4" stroke-width="6"/>
<line id="Line 392" x1="330.199" y1="1816.27" x2="337.4" y2="1816.27" stroke="white" stroke-width="7"/>
<line id="Line 393" x1="310.653" y1="1424.85" x2="316.825" y2="1424.85" stroke="white" stroke-opacity="0.2" stroke-width="6"/>
<line id="Line 411" x1="740.627" y1="1495.83" x2="746.799" y2="1495.83" stroke="white" stroke-opacity="0.2" stroke-width="6"/>
<line id="Line 412" x1="661.418" y1="1544.18" x2="667.59" y2="1544.18" stroke="white" stroke-opacity="0.6" stroke-width="6"/>
<line id="Line 413" x1="753.996" y1="1646.01" x2="760.168" y2="1646.01" stroke="white" stroke-opacity="0.6" stroke-width="6"/>
<line id="Line 414" x1="879.492" y1="1710.82" x2="885.664" y2="1710.82" stroke="white" stroke-opacity="0.4" stroke-width="6"/>
<line id="Line 415" x1="729.309" y1="1755.05" x2="735.48" y2="1755.05" stroke="white" stroke-opacity="0.4" stroke-width="6"/>
<line id="Line 416" x1="838.346" y1="1794.14" x2="844.518" y2="1794.14" stroke="white" stroke-opacity="0.4" stroke-width="6"/>
<line id="Line 417" x1="740.627" y1="1495.83" x2="746.799" y2="1495.83" stroke="white" stroke-opacity="0.2" stroke-width="6"/>
<line id="Line 418" x1="961.787" y1="1496.86" x2="967.959" y2="1496.86" stroke="white" stroke-opacity="0.2" stroke-width="6"/>
<line id="Line 419" x1="882.58" y1="1545.21" x2="888.752" y2="1545.21" stroke="white" stroke-opacity="0.6" stroke-width="6"/>
<line id="Line 420" x1="1013.22" y1="1586.88" x2="1020.42" y2="1586.88" stroke="white" stroke-width="7"/>
<line id="Line 421" x1="975.158" y1="1647.04" x2="981.33" y2="1647.04" stroke="white" stroke-opacity="0.6" stroke-width="6"/>
<line id="Line 422" x1="1100.65" y1="1711.85" x2="1106.82" y2="1711.85" stroke="white" stroke-opacity="0.4" stroke-width="6"/>
<line id="Line 423" x1="950.471" y1="1756.08" x2="956.643" y2="1756.08" stroke="white" stroke-opacity="0.4" stroke-width="6"/>
<line id="Line 424" x1="1059.51" y1="1795.17" x2="1065.68" y2="1795.17" stroke="white" stroke-opacity="0.4" stroke-width="6"/>
<line id="Line 425" x1="961.787" y1="1496.86" x2="967.959" y2="1496.86" stroke="white" stroke-opacity="0.2" stroke-width="6"/>
<line id="Line 426" x1="566.787" y1="1652.18" x2="572.959" y2="1652.18" stroke="white" stroke-opacity="0.2" stroke-width="6"/>
<line id="Line 427" x1="487.578" y1="1700.53" x2="493.75" y2="1700.53" stroke="white" stroke-opacity="0.6" stroke-width="6"/>
<line id="Line 428" x1="618.221" y1="1742.21" x2="625.421" y2="1742.21" stroke="white" stroke-width="7"/>
<line id="Line 429" x1="580.156" y1="1802.37" x2="586.328" y2="1802.37" stroke="white" stroke-opacity="0.6" stroke-width="6"/>
<line id="Line 430" x1="566.787" y1="1652.18" x2="572.959" y2="1652.18" stroke="white" stroke-opacity="0.2" stroke-width="6"/>
<line id="Line 431" x1="535.926" y1="1492.74" x2="542.098" y2="1492.74" stroke="white" stroke-opacity="0.4" stroke-width="6"/>
<line id="Line 432" x1="494.779" y1="1576.06" x2="500.951" y2="1576.06" stroke="white" stroke-opacity="0.4" stroke-width="6"/>
<line id="Line 436" x1="764.285" y1="1568.36" x2="771.486" y2="1568.36" stroke="white" stroke-width="7"/>
<line id="Line 437" x1="737.541" y1="1205.75" x2="743.713" y2="1205.75" stroke="white" stroke-opacity="0.4" stroke-width="6"/>
<line id="Line 438" x1="676.85" y1="1150.2" x2="683.021" y2="1150.2" stroke="white" stroke-opacity="0.4" stroke-width="6"/>
<line id="Line 439" x1="494.779" y1="994.878" x2="500.951" y2="994.878" stroke="white" stroke-opacity="0.4" stroke-width="6"/>
<line id="Line 442" x1="144.01" y1="986.649" x2="150.182" y2="986.649" stroke="white" stroke-opacity="0.8" stroke-width="6"/>
<line id="Line 443" x1="338.425" y1="994.378" x2="345.625" y2="994.378" stroke="white" stroke-width="7"/>
<line id="Line 444" x1="396.028" y1="968.133" x2="402.2" y2="968.133" stroke="white" stroke-opacity="0.4" stroke-width="6"/>
<rect id="Rectangle 206" x="222.188" y="1308.53" width="8.22919" height="8.22919" fill="#F8F8F8"/>
</g>
</g>
</svg>
