<svg width="1046" height="367" viewBox="0 0 1046 367" fill="none" xmlns="http://www.w3.org/2000/svg">
<g id="Title">
<g id="ECLIPSE - E" filter="url(#filter0_d_366_2)">
<path fill-rule="evenodd" clip-rule="evenodd" d="M982 36H975V43H982V36ZM975 44H982V51H975V44ZM887 156H894V163H887V156ZM902 156H895V163H902V156ZM910 156H903V163H910V156ZM903 164H910V171H903V164ZM902 164H895V171H902V164ZM894 164H887V171H894V164ZM879 164H886V171H879V164ZM902 172H895V179H902V172ZM903 172H910V179H903V172ZM910 180H903V187H910V180ZM895 180H902V187H895V180ZM894 172H887V179H894V172ZM887 180H894V187H887V180ZM886 172H879V179H886V172ZM879 180H886V187H879V180ZM902 188H895V195H902V188ZM903 188H910V195H903V188ZM910 196H903V203H910V196ZM895 196H902V203H895V196ZM894 188H887V195H894V188ZM887 196H894V203H887V196ZM886 188H879V195H886V188ZM879 196H886V203H879V196ZM902 204H895V211H902V204ZM903 204H910V211H903V204ZM910 212H903V219H910V212ZM895 212H902V219H895V212ZM894 204H887V211H894V204ZM887 212H894V219H887V212ZM886 204H879V211H886V204ZM879 212H886V219H879V212ZM902 220H895V227H902V220ZM903 220H910V227H903V220ZM910 228H903V235H910V228ZM895 228H902V235H895V228ZM894 220H887V227H894V220ZM887 228H894V235H887V228ZM886 220H879V227H886V220ZM879 228H886V235H879V228ZM902 236H895V243H902V236ZM903 236H910V243H903V236ZM910 244H903V251H910V244ZM895 244H902V251H895V244ZM894 236H887V243H894V236ZM887 244H894V251H887V244ZM886 236H879V243H886V236ZM879 244H886V251H879V244ZM902 252H895V259H902V252ZM903 252H910V259H903V252ZM910 260H903V267H910V260ZM895 260H902V267H895V260ZM894 252H887V259H894V252ZM887 260H894V267H887V260ZM886 252H879V259H886V252ZM879 260H886V267H879V260ZM902 268H895V275H902V268ZM903 268H910V275H903V268ZM910 276H903V283H910V276ZM895 276H902V283H895V276ZM894 268H887V275H894V268ZM887 276H894V283H887V276ZM886 268H879V275H886V268ZM879 276H886V283H879V276ZM902 284H895V291H902V284ZM903 284H910V291H903V284ZM910 292H903V299H910V292ZM895 292H902V299H895V292ZM894 284H887V291H894V284ZM887 292H894V299H887V292ZM886 284H879V291H886V284ZM879 292H886V299H879V292ZM902 300H895V307H902V300ZM903 300H910V307H903V300ZM910 308H903V315H910V308ZM895 308H902V315H895V308ZM894 300H887V307H894V300ZM887 308H894V315H887V308ZM886 300H879V307H886V300ZM879 308H886V315H879V308ZM982 316H975V323H982V316ZM975 308H982V315H975V308ZM974 308H967V315H974V308ZM967 316H974V323H967V316ZM958 308H951V315H958V308ZM959 308H966V315H959V308ZM966 316H959V323H966V316ZM951 316H958V323H951V316ZM942 308H935V315H942V308ZM943 308H950V315H943V308ZM950 316H943V323H950V316ZM935 316H942V323H935V316ZM926 308H919V315H926V308ZM927 308H934V315H927V308ZM934 316H927V323H934V316ZM919 316H926V323H919V316ZM918 308H911V315H918V308ZM911 316H918V323H911V316ZM1006 308H999V315H1006V308ZM991 308H998V315H991V308ZM998 316H991V323H998V316ZM983 308H990V315H983V308ZM990 316H983V323H990V316ZM975 164H982V171H975V164ZM982 156H975V163H982V156ZM967 156H974V163H967V156ZM974 164H967V171H974V164ZM951 156H958V163H951V156ZM966 156H959V163H966V156ZM959 164H966V171H959V164ZM958 164H951V171H958V164ZM935 156H942V163H935V156ZM950 156H943V163H950V156ZM943 164H950V171H943V164ZM942 164H935V171H942V164ZM919 156H926V163H919V156ZM934 156H927V163H934V156ZM927 164H934V171H927V164ZM926 164H919V171H926V164ZM911 156H918V163H911V156ZM918 164H911V171H918V164ZM999 156H1006V163H999V156ZM1006 164H999V171H1006V164ZM991 156H998V163H991V156ZM998 164H991V171H998V164ZM983 156H990V163H983V156ZM990 164H983V171H990V164ZM967 36H974V43H967V36ZM974 44H967V51H974V44ZM951 36H958V43H951V36ZM966 36H959V43H966V36ZM959 44H966V51H959V44ZM958 44H951V51H958V44ZM999 60H1006V67H999V60ZM1006 52H999V59H1006V52ZM991 52H998V59H991V52ZM998 60H991V67H998V60ZM975 52H982V59H975V52ZM990 52H983V59H990V52ZM983 60H990V67H983V60ZM982 60H975V67H982V60ZM999 68H1006V75H999V68ZM998 68H991V75H998V68ZM975 68H982V75H975V68ZM990 68H983V75H990V68ZM935 36H942V43H935V36ZM950 36H943V43H950V36ZM943 44H950V51H943V44ZM942 44H935V51H942V44ZM919 36H926V43H919V36ZM934 36H927V43H934V36ZM927 44H934V51H927V44ZM926 44H919V51H926V44ZM911 36H918V43H911V36ZM918 44H911V51H918V44ZM999 44H1006V51H999V44ZM998 36H991V43H998V36ZM991 44H998V51H991V44ZM990 36H983V43H990V36ZM983 44H990V51H983V44ZM894 316H887V323H894V316ZM895 316H902V323H895V316ZM910 316H903V323H910V316ZM879 156H886V163H879V156ZM902 108H895V115H902V108ZM903 108H910V115H903V108ZM910 116H903V123H910V116ZM895 116H902V123H895V116ZM894 108H887V115H894V108ZM887 116H894V123H887V116ZM886 116H879V123H886V116ZM895 124H902V131H895V124ZM910 124H903V131H910V124ZM903 132H910V139H903V132ZM902 132H895V139H902V132ZM887 124H894V131H887V124ZM894 132H887V139H894V132ZM879 124H886V131H879V124ZM886 132H879V139H886V132ZM895 140H902V147H895V140ZM910 140H903V147H910V140ZM903 148H910V155H903V148ZM902 148H895V155H902V148ZM887 140H894V147H887V140ZM894 148H887V155H894V148ZM879 140H886V147H879V140ZM886 148H879V155H886V148ZM879 108H886V115H879V108ZM902 76H895V83H902V76ZM903 76H910V83H903V76ZM910 84H903V91H910V84ZM895 84H902V91H895V84ZM894 76H887V83H894V76ZM887 84H894V91H887V84ZM886 84H879V91H886V84ZM895 92H902V99H895V92ZM910 92H903V99H910V92ZM903 100H910V107H903V100ZM902 100H895V107H902V100ZM887 92H894V99H887V92ZM894 100H887V107H894V100ZM879 92H886V99H879V92ZM886 100H879V107H886V100ZM879 76H886V83H879V76ZM902 68H895V75H902V68ZM903 68H910V75H903V68ZM894 68H887V75H894V68ZM879 68H886V75H879V68ZM902 36H895V43H902V36ZM903 36H910V43H903V36ZM910 44H903V51H910V44ZM895 44H902V51H895V44ZM894 36H887V43H894V36ZM887 44H894V51H887V44ZM886 44H879V51H886V44ZM895 52H902V59H895V52ZM910 52H903V59H910V52ZM903 60H910V67H903V60ZM902 60H895V67H902V60ZM887 52H894V59H887V52ZM894 60H887V67H894V60ZM879 52H886V59H879V52ZM886 60H879V67H886V60ZM975 300H982V307H975V300ZM982 292H975V299H982V292ZM999 292H1006V299H999V292ZM998 292H991V299H998V292ZM991 300H998V307H991V300ZM990 292H983V299H990V292ZM983 300H990V307H983V300ZM1006 300H999V307H1006V300ZM975 284H982V291H975V284ZM998 284H991V291H998V284ZM983 284H990V291H983V284ZM1006 284H999V291H1006V284Z" fill="url(#paint0_linear_366_2)"/>
</g>
<g id="ECLIPSE - S" filter="url(#filter1_d_366_2)">
<path fill-rule="evenodd" clip-rule="evenodd" d="M757 36H750V43H757V36ZM765 36H758V43H765V36ZM773 36H766V43H773V36ZM774 36H781V43H774V36ZM773 44H766V51H773V44ZM758 44H765V51H758V44ZM750 44H757V51H750V44ZM749 44H742V51H749V44ZM758 52H765V59H758V52ZM773 52H766V59H773V52ZM766 60H773V67H766V60ZM765 60H758V67H765V60ZM750 52H757V59H750V52ZM757 60H750V67H757V60ZM742 52H749V59H742V52ZM749 60H742V67H749V60ZM758 68H765V75H758V68ZM773 68H766V75H773V68ZM766 76H773V83H766V76ZM765 76H758V83H765V76ZM750 68H757V75H750V68ZM757 76H750V83H757V76ZM742 68H749V75H742V68ZM749 76H742V83H749V76ZM758 84H765V91H758V84ZM773 84H766V91H773V84ZM766 92H773V99H766V92ZM765 92H758V99H765V92ZM750 84H757V91H750V84ZM757 92H750V99H757V92ZM742 84H749V91H742V84ZM749 92H742V99H749V92ZM758 100H765V107H758V100ZM773 100H766V107H773V100ZM766 124H773V131H766V124ZM765 124H758V131H765V124ZM750 100H757V107H750V100ZM757 124H750V131H757V124ZM742 100H749V107H742V100ZM773 108H766V115H773V108ZM758 108H765V115H758V108ZM757 108H750V115H757V108ZM742 108H749V115H742V108ZM765 116H758V123H765V116ZM766 116H773V123H766V116ZM757 116H750V123H757V116ZM742 116H749V123H742V116ZM749 124H742V131H749V124ZM758 132H765V139H758V132ZM773 132H766V139H773V132ZM750 132H757V139H750V132ZM781 44H774V51H781V44ZM782 36H789V43H782V36ZM797 36H790V43H797V36ZM798 36H805V43H798V36ZM797 44H790V51H797V44ZM782 44H789V51H782V44ZM805 44H798V51H805V44ZM806 36H813V43H806V36ZM821 36H814V43H821V36ZM822 36H829V43H822V36ZM821 44H814V51H821V44ZM806 44H813V51H806V44ZM829 44H822V51H829V44ZM838 44H845V51H838V44ZM837 44H830V51H837V44ZM830 36H837V43H830V36ZM845 52H838V59H845V52ZM838 36H845V43H838V36ZM853 52H846V59H853V52ZM846 60H853V67H846V60ZM845 60H838V67H845V60ZM838 68H845V75H838V68ZM853 68H846V75H853V68ZM830 124H837V131H830V124ZM837 132H830V139H837V132ZM814 124H821V131H814V124ZM829 124H822V131H829V124ZM822 132H829V139H822V132ZM821 132H814V139H821V132ZM798 124H805V131H798V124ZM813 124H806V131H813V124ZM806 132H813V139H806V132ZM805 132H798V139H805V132ZM782 124H789V131H782V124ZM797 124H790V131H797V124ZM790 132H797V139H790V132ZM789 132H782V139H789V132ZM774 124H781V131H774V124ZM781 132H774V139H781V132ZM862 68H869V75H862V68ZM861 52H854V59H861V52ZM862 52H869V59H862V52ZM869 60H862V67H869V60ZM854 60H861V67H854V60ZM853 36H846V43H853V36ZM846 44H853V51H846V44ZM861 36H854V43H861V36ZM862 44H869V51H862V44ZM861 44H854V51H861V44ZM854 68H861V75H854V68ZM845 124H838V131H845V124ZM846 124H853V131H846V124ZM853 132H846V139H853V132ZM838 132H845V139H838V132ZM845 140H838V147H845V140ZM846 140H853V147H846V140ZM869 140H862V147H869V140ZM854 124H861V131H854V124ZM869 132H862V139H869V132ZM854 132H861V139H854V132ZM813 236H806V243H813V236ZM814 236H821V243H814V236ZM821 244H814V251H821V244ZM806 244H813V251H806V244ZM829 236H822V243H829V236ZM830 236H837V243H830V236ZM837 244H830V251H837V244ZM822 244H829V251H822V244ZM781 236H774V243H781V236ZM782 236H789V243H782V236ZM789 244H782V251H789V244ZM774 244H781V251H774V244ZM797 236H790V243H797V236ZM798 236H805V243H798V236ZM805 244H798V251H805V244ZM790 244H797V251H790V244ZM749 236H742V243H749V236ZM750 236H757V243H750V236ZM757 244H750V251H757V244ZM758 236H765V243H758V236ZM773 236H766V243H773V236ZM766 244H773V251H766V244ZM765 244H758V251H765V244ZM854 140H861V147H854V140ZM845 148H838V155H845V148ZM846 148H853V155H846V148ZM853 156H846V163H853V156ZM838 156H845V163H838V156ZM845 164H838V171H845V164ZM846 164H853V171H846V164ZM869 164H862V171H869V164ZM854 148H861V155H854V148ZM869 148H862V155H869V148ZM838 204H845V211H838V204ZM853 204H846V211H853V204ZM846 212H853V219H846V212ZM845 212H838V219H845V212ZM838 236H845V243H838V236ZM853 236H846V243H853V236ZM862 236H869V243H862V236ZM861 204H854V211H861V204ZM862 204H869V211H862V204ZM869 212H862V219H869V212ZM854 212H861V219H854V212ZM853 220H846V227H853V220ZM838 220H845V227H838V220ZM869 220H862V227H869V220ZM854 220H861V227H854V220ZM853 228H846V235H853V228ZM838 228H845V235H838V228ZM869 228H862V235H869V228ZM854 228H861V235H854V228ZM861 236H854V243H861V236ZM838 244H845V251H838V244ZM853 244H846V251H853V244ZM854 244H861V251H854V244ZM869 156H862V163H869V156ZM854 156H861V163H854V156ZM861 164H854V171H861V164ZM838 172H845V179H838V172ZM853 172H846V179H853V172ZM846 180H853V187H846V180ZM845 180H838V187H845V180ZM838 188H845V195H838V188ZM853 188H846V195H853V188ZM862 188H869V195H862V188ZM861 172H854V179H861V172ZM862 172H869V179H862V172ZM869 180H862V187H869V180ZM854 180H861V187H854V180ZM861 188H854V195H861V188ZM838 196H845V203H838V196ZM853 196H846V203H853V196ZM862 196H869V203H862V196ZM861 196H854V203H861V196ZM742 204H749V211H742V204ZM757 204H750V211H757V204ZM758 204H765V211H758V204ZM773 204H766V211H773V204ZM742 212H749V219H742V212ZM757 212H750V219H757V212ZM758 212H765V219H758V212ZM773 212H766V219H773V212ZM742 220H749V227H742V220ZM757 220H750V227H757V220ZM758 220H765V227H758V220ZM773 220H766V227H773V220ZM742 228H749V235H742V228ZM757 228H750V235H757V228ZM758 228H765V235H758V228ZM773 228H766V235H773V228Z" fill="url(#paint1_linear_366_2)"/>
</g>
<g id="ECLIPSE - P" filter="url(#filter2_d_366_2)">
<path fill-rule="evenodd" clip-rule="evenodd" d="M613 36H620V43H613V36ZM621 36H628V43H621V36ZM629 36H636V43H629V36ZM644 36H637V43H644V36ZM629 44H636V51H629V44ZM628 44H621V51H628V44ZM620 44H613V51H620V44ZM605 44H612V51H605V44ZM628 52H621V59H628V52ZM629 52H636V59H629V52ZM636 60H629V67H636V60ZM621 60H628V67H621V60ZM620 52H613V59H620V52ZM613 60H620V67H613V60ZM612 52H605V59H612V52ZM605 60H612V67H605V60ZM628 68H621V75H628V68ZM629 68H636V75H629V68ZM636 76H629V83H636V76ZM621 76H628V83H621V76ZM620 68H613V75H620V68ZM613 76H620V83H613V76ZM612 68H605V75H612V68ZM605 76H612V83H605V76ZM628 84H621V91H628V84ZM629 84H636V91H629V84ZM636 92H629V99H636V92ZM621 92H628V99H621V92ZM620 84H613V91H620V84ZM613 92H620V99H613V92ZM612 84H605V91H612V84ZM605 92H612V99H605V92ZM628 100H621V107H628V100ZM629 100H636V107H629V100ZM636 108H629V115H636V108ZM621 108H628V115H621V108ZM620 100H613V107H620V100ZM613 108H620V115H613V108ZM612 100H605V107H612V100ZM605 108H612V115H605V108ZM628 116H621V123H628V116ZM629 116H636V123H629V116ZM636 124H629V131H636V124ZM621 124H628V131H621V124ZM620 116H613V123H620V116ZM613 124H620V131H613V124ZM612 116H605V123H612V116ZM605 124H612V131H605V124ZM628 132H621V139H628V132ZM629 132H636V139H629V132ZM636 140H629V147H636V140ZM621 140H628V147H621V140ZM620 132H613V139H620V132ZM613 140H620V147H613V140ZM612 132H605V139H612V132ZM605 140H612V147H605V140ZM628 148H621V155H628V148ZM629 148H636V155H629V148ZM636 156H629V163H636V156ZM621 156H628V163H621V156ZM620 148H613V155H620V148ZM613 156H620V163H613V156ZM612 148H605V155H612V148ZM605 156H612V163H605V156ZM628 164H621V171H628V164ZM629 164H636V171H629V164ZM636 172H629V179H636V172ZM621 172H628V179H621V172ZM620 164H613V171H620V164ZM613 172H620V179H613V172ZM612 164H605V171H612V164ZM605 172H612V179H605V172ZM644 44H637V51H644V44ZM645 36H652V43H645V36ZM660 36H653V43H660V36ZM661 36H668V43H661V36ZM660 44H653V51H660V44ZM645 44H652V51H645V44ZM668 44H661V51H668V44ZM669 36H676V43H669V36ZM684 36H677V43H684V36ZM685 36H692V43H685V36ZM684 44H677V51H684V44ZM669 44H676V51H669V44ZM692 44H685V51H692V44ZM701 44H708V51H701V44ZM700 44H693V51H700V44ZM621 180H628V187H621V180ZM636 180H629V187H636V180ZM629 188H636V195H629V188ZM628 188H621V195H628V188ZM613 180H620V187H613V180ZM620 188H613V195H620V188ZM605 180H612V187H605V180ZM612 188H605V195H612V188ZM693 36H700V43H693V36ZM708 52H701V59H708V52ZM701 36H708V43H701V36ZM716 52H709V59H716V52ZM709 60H716V67H709V60ZM708 60H701V67H708V60ZM701 68H708V75H701V68ZM716 68H709V75H716V68ZM709 76H716V83H709V76ZM708 76H701V83H708V76ZM701 84H708V91H701V84ZM716 84H709V91H716V84ZM709 92H716V99H709V92ZM708 92H701V99H708V92ZM701 132H708V139H701V132ZM708 100H701V107H708V100ZM709 100H716V107H709V100ZM708 124H701V131H708V124ZM693 124H700V131H693V124ZM700 132H693V139H700V132ZM677 124H684V131H677V124ZM692 124H685V131H692V124ZM685 132H692V139H685V132ZM684 132H677V139H684V132ZM661 124H668V131H661V124ZM676 124H669V131H676V124ZM669 132H676V139H669V132ZM668 132H661V139H668V132ZM645 124H652V131H645V124ZM660 124H653V131H660V124ZM653 132H660V139H653V132ZM652 132H645V139H652V132ZM637 124H644V131H637V124ZM644 132H637V139H644V132ZM725 124H732V131H725V124ZM724 124H717V131H724V124ZM717 132H724V139H717V132ZM716 124H709V131H716V124ZM709 132H716V139H709V132ZM732 68H725V75H732V68ZM717 52H724V59H717V52ZM732 52H725V59H732V52ZM725 60H732V67H725V60ZM724 60H717V67H724V60ZM709 36H716V43H709V36ZM716 44H709V51H716V44ZM717 36H724V43H717V36ZM732 44H725V51H732V44ZM717 44H724V51H717V44ZM724 68H717V75H724V68ZM725 76H732V83H725V76ZM724 76H717V83H724V76ZM717 84H724V91H717V84ZM732 84H725V91H732V84ZM725 92H732V99H725V92ZM724 92H717V99H724V92ZM717 100H724V107H717V100ZM732 100H725V107H732V100ZM709 108H716V115H709V108ZM708 108H701V115H708V108ZM701 116H708V123H701V116ZM716 116H709V123H716V116ZM725 108H732V115H725V108ZM724 108H717V115H724V108ZM717 116H724V123H717V116ZM732 116H725V123H732V116ZM605 196H612V203H605V196ZM620 196H613V203H620V196ZM621 196H628V203H621V196ZM636 196H629V203H636V196ZM605 204H612V211H605V204ZM620 204H613V211H620V204ZM621 204H628V211H621V204ZM636 204H629V211H636V204Z" fill="url(#paint2_linear_366_2)"/>
</g>
<g id="ECLIPSE - I" filter="url(#filter3_d_366_2)">
<path fill-rule="evenodd" clip-rule="evenodd" d="M458.5 36H451.5V43H458.5V36ZM466.5 36H459.5V43H466.5V36ZM474.5 36H467.5V43H474.5V36ZM475.5 36H482.5V43H475.5V36ZM474.5 44H467.5V51H474.5V44ZM459.5 44H466.5V51H459.5V44ZM451.5 44H458.5V51H451.5V44ZM530.5 52H523.5V59H530.5V52ZM531.5 52H538.5V59H531.5V52ZM538.5 60H531.5V67H538.5V60ZM523.5 60H530.5V67H523.5V60ZM522.5 52H515.5V59H522.5V52ZM515.5 60H522.5V67H515.5V60ZM514.5 52H507.5V59H514.5V52ZM507.5 60H514.5V67H507.5V60ZM530.5 68H523.5V75H530.5V68ZM531.5 68H538.5V75H531.5V68ZM538.5 76H531.5V83H538.5V76ZM523.5 76H530.5V83H523.5V76ZM522.5 68H515.5V75H522.5V68ZM515.5 76H522.5V83H515.5V76ZM514.5 68H507.5V75H514.5V68ZM507.5 76H514.5V83H507.5V76ZM530.5 84H523.5V91H530.5V84ZM531.5 84H538.5V91H531.5V84ZM538.5 92H531.5V99H538.5V92ZM523.5 92H530.5V99H523.5V92ZM522.5 84H515.5V91H522.5V84ZM515.5 92H522.5V99H515.5V92ZM514.5 84H507.5V91H514.5V84ZM507.5 92H514.5V99H507.5V92ZM530.5 100H523.5V107H530.5V100ZM531.5 100H538.5V107H531.5V100ZM538.5 108H531.5V115H538.5V108ZM523.5 108H530.5V115H523.5V108ZM522.5 100H515.5V107H522.5V100ZM515.5 108H522.5V115H515.5V108ZM514.5 100H507.5V107H514.5V100ZM507.5 108H514.5V115H507.5V108ZM530.5 116H523.5V123H530.5V116ZM531.5 116H538.5V123H531.5V116ZM538.5 124H531.5V131H538.5V124ZM523.5 124H530.5V131H523.5V124ZM522.5 116H515.5V123H522.5V116ZM515.5 124H522.5V131H515.5V124ZM514.5 116H507.5V123H514.5V116ZM507.5 124H514.5V131H507.5V124ZM530.5 132H523.5V139H530.5V132ZM531.5 132H538.5V139H531.5V132ZM538.5 140H531.5V147H538.5V140ZM523.5 140H530.5V147H523.5V140ZM522.5 132H515.5V139H522.5V132ZM515.5 140H522.5V147H515.5V140ZM514.5 132H507.5V139H514.5V132ZM507.5 140H514.5V147H507.5V140ZM530.5 148H523.5V155H530.5V148ZM531.5 148H538.5V155H531.5V148ZM538.5 156H531.5V163H538.5V156ZM523.5 156H530.5V163H523.5V156ZM522.5 148H515.5V155H522.5V148ZM515.5 156H522.5V163H515.5V156ZM514.5 148H507.5V155H514.5V148ZM507.5 156H514.5V163H507.5V156ZM530.5 164H523.5V171H530.5V164ZM531.5 164H538.5V171H531.5V164ZM538.5 172H531.5V179H538.5V172ZM523.5 172H530.5V179H523.5V172ZM522.5 164H515.5V171H522.5V164ZM515.5 172H522.5V179H515.5V172ZM514.5 164H507.5V171H514.5V164ZM507.5 172H514.5V179H507.5V172ZM482.5 44H475.5V51H482.5V44ZM483.5 36H490.5V43H483.5V36ZM498.5 36H491.5V43H498.5V36ZM499.5 36H506.5V43H499.5V36ZM498.5 44H491.5V51H498.5V44ZM483.5 44H490.5V51H483.5V44ZM506.5 44H499.5V51H506.5V44ZM507.5 36H514.5V43H507.5V36ZM522.5 36H515.5V43H522.5V36ZM523.5 36H530.5V43H523.5V36ZM522.5 44H515.5V51H522.5V44ZM507.5 44H514.5V51H507.5V44ZM530.5 44H523.5V51H530.5V44ZM531.5 36H538.5V43H531.5V36ZM546.5 36H539.5V43H546.5V36ZM547.5 36H554.5V43H547.5V36ZM546.5 44H539.5V51H546.5V44ZM531.5 44H538.5V51H531.5V44ZM554.5 44H547.5V51H554.5V44ZM555.5 36H562.5V43H555.5V36ZM570.5 36H563.5V43H570.5V36ZM571.5 36H578.5V43H571.5V36ZM570.5 44H563.5V51H570.5V44ZM555.5 44H562.5V51H555.5V44ZM578.5 44H571.5V51H578.5V44ZM579.5 36H586.5V43H579.5V36ZM586.5 44H579.5V51H586.5V44ZM587.5 36H594.5V43H587.5V36ZM594.5 44H587.5V51H594.5V44ZM459.5 180H466.5V187H459.5V180ZM474.5 180H467.5V187H474.5V180ZM475.5 180H482.5V187H475.5V180ZM474.5 188H467.5V195H474.5V188ZM459.5 188H466.5V195H459.5V188ZM458.5 180H451.5V187H458.5V180ZM451.5 188H458.5V195H451.5V188ZM482.5 188H475.5V195H482.5V188ZM483.5 180H490.5V187H483.5V180ZM498.5 180H491.5V187H498.5V180ZM499.5 180H506.5V187H499.5V180ZM498.5 188H491.5V195H498.5V188ZM483.5 188H490.5V195H483.5V188ZM506.5 188H499.5V195H506.5V188ZM507.5 180H514.5V187H507.5V180ZM522.5 180H515.5V187H522.5V180ZM523.5 180H530.5V187H523.5V180ZM522.5 188H515.5V195H522.5V188ZM507.5 188H514.5V195H507.5V188ZM530.5 188H523.5V195H530.5V188ZM531.5 180H538.5V187H531.5V180ZM546.5 180H539.5V187H546.5V180ZM547.5 180H554.5V187H547.5V180ZM546.5 188H539.5V195H546.5V188ZM531.5 188H538.5V195H531.5V188ZM554.5 188H547.5V195H554.5V188ZM555.5 180H562.5V187H555.5V180ZM570.5 180H563.5V187H570.5V180ZM571.5 180H578.5V187H571.5V180ZM570.5 188H563.5V195H570.5V188ZM555.5 188H562.5V195H555.5V188ZM578.5 188H571.5V195H578.5V188ZM579.5 180H586.5V187H579.5V180ZM586.5 188H579.5V195H586.5V188ZM587.5 180H594.5V187H587.5V180ZM594.5 188H587.5V195H594.5V188Z" fill="url(#paint3_linear_366_2)"/>
</g>
<g id="ECLIPSE - L" filter="url(#filter4_d_366_2)">
<path fill-rule="evenodd" clip-rule="evenodd" d="M322 36H329V43H322V36ZM337 36H330V43H337V36ZM345 36H338V43H345V36ZM338 44H345V51H338V44ZM337 44H330V51H337V44ZM329 44H322V51H329V44ZM314 44H321V51H314V44ZM337 52H330V59H337V52ZM338 52H345V59H338V52ZM345 60H338V67H345V60ZM330 60H337V67H330V60ZM329 52H322V59H329V52ZM322 60H329V67H322V60ZM321 52H314V59H321V52ZM314 60H321V67H314V60ZM337 68H330V75H337V68ZM338 68H345V75H338V68ZM345 76H338V83H345V76ZM330 76H337V83H330V76ZM329 68H322V75H329V68ZM322 76H329V83H322V76ZM321 68H314V75H321V68ZM314 76H321V83H314V76ZM337 84H330V91H337V84ZM338 84H345V91H338V84ZM345 92H338V99H345V92ZM330 92H337V99H330V92ZM329 84H322V91H329V84ZM322 92H329V99H322V92ZM321 84H314V91H321V84ZM314 92H321V99H314V92ZM337 100H330V107H337V100ZM338 100H345V107H338V100ZM345 108H338V115H345V108ZM330 108H337V115H330V108ZM329 100H322V107H329V100ZM322 108H329V115H322V108ZM321 100H314V107H321V100ZM314 108H321V115H314V108ZM337 116H330V123H337V116ZM338 116H345V123H338V116ZM345 124H338V131H345V124ZM330 124H337V131H330V124ZM329 116H322V123H329V116ZM322 124H329V131H322V124ZM321 116H314V123H321V116ZM314 124H321V131H314V124ZM337 132H330V139H337V132ZM338 132H345V139H338V132ZM345 140H338V147H345V140ZM330 140H337V147H330V140ZM329 132H322V139H329V132ZM322 140H329V147H322V140ZM321 132H314V139H321V132ZM314 140H321V147H314V140ZM337 148H330V155H337V148ZM338 148H345V155H338V148ZM345 156H338V163H345V156ZM330 156H337V163H330V156ZM329 148H322V155H329V148ZM322 156H329V163H322V156ZM321 148H314V155H321V148ZM314 156H321V163H314V156ZM337 164H330V171H337V164ZM338 164H345V171H338V164ZM345 172H338V179H345V172ZM330 172H337V179H330V172ZM329 164H322V171H329V164ZM322 172H329V179H322V172ZM321 164H314V171H321V164ZM314 172H321V179H314V172ZM337 180H330V187H337V180ZM338 180H345V187H338V180ZM345 188H338V195H345V188ZM330 188H337V195H330V188ZM329 180H322V187H329V180ZM322 188H329V195H322V188ZM321 180H314V187H321V180ZM314 188H321V195H314V188ZM417 196H410V203H417V196ZM410 188H417V195H410V188ZM409 188H402V195H409V188ZM402 196H409V203H402V196ZM393 188H386V195H393V188ZM394 188H401V195H394V188ZM401 196H394V203H401V196ZM386 196H393V203H386V196ZM377 188H370V195H377V188ZM378 188H385V195H378V188ZM385 196H378V203H385V196ZM370 196H377V203H370V196ZM361 188H354V195H361V188ZM362 188H369V195H362V188ZM369 196H362V203H369V196ZM354 196H361V203H354V196ZM353 188H346V195H353V188ZM346 196H353V203H346V196ZM441 188H434V195H441V188ZM426 188H433V195H426V188ZM433 196H426V203H433V196ZM418 188H425V195H418V188ZM425 196H418V203H425V196ZM314 196H321V203H314V196ZM329 196H322V203H329V196ZM330 196H337V203H330V196ZM345 196H338V203H345V196ZM314 36H321V43H314V36ZM441 196H434V203H441V196Z" fill="url(#paint4_linear_366_2)"/>
</g>
<g id="ECLIPSE - C" filter="url(#filter5_d_366_2)">
<path fill-rule="evenodd" clip-rule="evenodd" d="M192 36H185V43H192V36ZM200 36H193V43H200V36ZM208 36H201V43H208V36ZM209 36H216V43H209V36ZM208 44H201V51H208V44ZM193 44H200V51H193V44ZM185 44H192V51H185V44ZM184 44H177V51H184V44ZM193 52H200V59H193V52ZM208 52H201V59H208V52ZM201 60H208V67H201V60ZM200 60H193V67H200V60ZM185 52H192V59H185V52ZM192 60H185V67H192V60ZM177 52H184V59H177V52ZM184 60H177V67H184V60ZM193 68H200V75H193V68ZM208 68H201V75H208V68ZM201 76H208V83H201V76ZM200 76H193V83H200V76ZM185 68H192V75H185V68ZM192 76H185V83H192V76ZM177 68H184V75H177V68ZM184 76H177V83H184V76ZM193 84H200V91H193V84ZM208 84H201V91H208V84ZM201 92H208V99H201V92ZM200 92H193V99H200V92ZM185 84H192V91H185V84ZM192 92H185V99H192V92ZM177 84H184V91H177V84ZM184 92H177V99H184V92ZM193 100H200V107H193V100ZM208 100H201V107H208V100ZM201 124H208V131H201V124ZM200 124H193V131H200V124ZM185 100H192V107H185V100ZM192 124H185V131H192V124ZM177 100H184V107H177V100ZM208 108H201V115H208V108ZM193 108H200V115H193V108ZM192 108H185V115H192V108ZM177 108H184V115H177V108ZM200 116H193V123H200V116ZM201 116H208V123H201V116ZM192 116H185V123H192V116ZM177 116H184V123H177V116ZM184 124H177V131H184V124ZM193 132H200V139H193V132ZM208 132H201V139H208V132ZM185 132H192V139H185V132ZM184 132H177V139H184V132ZM209 44H216V51H209V44ZM224 36H217V43H224V36ZM225 36H232V43H225V36ZM240 36H233V43H240V36ZM225 44H232V51H225V44ZM224 44H217V51H224V44ZM233 44H240V51H233V44ZM248 36H241V43H248V36ZM249 36H256V43H249V36ZM264 36H257V43H264V36ZM249 44H256V51H249V44ZM248 44H241V51H248V44ZM257 44H264V51H257V44ZM280 44H273V51H280V44ZM265 44H272V51H265V44ZM272 36H265V43H272V36ZM273 52H280V59H273V52ZM280 36H273V43H280V36ZM281 52H288V59H281V52ZM288 60H281V67H288V60ZM273 60H280V67H273V60ZM280 68H273V75H280V68ZM281 68H288V75H281V68ZM304 68H297V75H304V68ZM289 52H296V59H289V52ZM304 52H297V59H304V52ZM297 60H304V67H297V60ZM296 60H289V67H296V60ZM281 36H288V43H281V36ZM288 44H281V51H288V44ZM289 36H296V43H289V36ZM304 44H297V51H304V44ZM289 44H296V51H289V44ZM296 68H289V75H296V68ZM273 76H280V83H273V76ZM288 76H281V83H288V76ZM297 76H304V83H297V76ZM296 76H289V83H296V76ZM273 84H280V91H273V84ZM288 84H281V91H288V84ZM297 84H304V91H297V84ZM296 84H289V91H296V84ZM177 140H184V147H177V140ZM192 140H185V147H192V140ZM201 140H208V147H201V140ZM248 236H241V243H248V236ZM249 236H256V243H249V236ZM256 244H249V251H256V244ZM241 244H248V251H241V244ZM264 236H257V243H264V236ZM265 236H272V243H265V236ZM272 244H265V251H272V244ZM257 244H264V251H257V244ZM216 236H209V243H216V236ZM217 236H224V243H217V236ZM224 244H217V251H224V244ZM209 244H216V251H209V244ZM232 236H225V243H232V236ZM233 236H240V243H233V236ZM240 244H233V251H240V244ZM225 244H232V251H225V244ZM184 236H177V243H184V236ZM185 236H192V243H185V236ZM192 244H185V251H192V244ZM193 236H200V243H193V236ZM208 236H201V243H208V236ZM201 244H208V251H201V244ZM200 244H193V251H200V244ZM193 140H200V147H193V140ZM184 148H177V155H184V148ZM185 148H192V155H185V148ZM192 156H185V163H192V156ZM177 156H184V163H177V156ZM184 164H177V171H184V164ZM185 164H192V171H185V164ZM208 164H201V171H208V164ZM193 148H200V155H193V148ZM208 148H201V155H208V148ZM273 204H280V211H273V204ZM288 204H281V211H288V204ZM281 212H288V219H281V212ZM280 212H273V219H280V212ZM273 236H280V243H273V236ZM288 236H281V243H288V236ZM297 236H304V243H297V236ZM296 204H289V211H296V204ZM297 204H304V211H297V204ZM280 196H273V203H280V196ZM281 196H288V203H281V196ZM296 196H289V203H296V196ZM297 196H304V203H297V196ZM280 188H273V195H280V188ZM281 188H288V195H281V188ZM296 188H289V195H296V188ZM297 188H304V195H297V188ZM304 212H297V219H304V212ZM289 212H296V219H289V212ZM288 220H281V227H288V220ZM273 220H280V227H273V220ZM304 220H297V227H304V220ZM289 220H296V227H289V220ZM288 228H281V235H288V228ZM273 228H280V235H273V228ZM304 228H297V235H304V228ZM289 228H296V235H289V228ZM296 236H289V243H296V236ZM273 244H280V251H273V244ZM288 244H281V251H288V244ZM289 244H296V251H289V244ZM208 156H201V163H208V156ZM193 156H200V163H193V156ZM200 164H193V171H200V164ZM177 172H184V179H177V172ZM192 172H185V179H192V172ZM185 180H192V187H185V180ZM184 180H177V187H184V180ZM177 188H184V195H177V188ZM192 188H185V195H192V188ZM201 188H208V195H201V188ZM200 172H193V179H200V172ZM201 172H208V179H201V172ZM208 180H201V187H208V180ZM193 180H200V187H193V180ZM200 188H193V195H200V188ZM177 196H184V203H177V196ZM192 196H185V203H192V196ZM201 196H208V203H201V196ZM200 196H193V203H200V196ZM177 204H184V211H177V204ZM192 204H185V211H192V204ZM193 204H200V211H193V204ZM208 204H201V211H208V204ZM177 212H184V219H177V212ZM192 212H185V219H192V212ZM193 212H200V219H193V212ZM208 212H201V219H208V212ZM177 220H184V227H177V220ZM192 220H185V227H192V220ZM193 220H200V227H193V220ZM208 220H201V227H208V220ZM177 228H184V235H177V228ZM192 228H185V235H192V228ZM193 228H200V235H193V228ZM208 228H201V235H208V228Z" fill="url(#paint5_linear_366_2)"/>
</g>
<g id="ECLIPSE - E_2" filter="url(#filter6_d_366_2)">
<path fill-rule="evenodd" clip-rule="evenodd" d="M143 36H136V43H143V36ZM136 44H143V51H136V44ZM47.9999 156H54.9999V163H47.9999V156ZM62.9998 156H55.9998V163H62.9998V156ZM70.9997 156H63.9997V163H70.9997V156ZM63.9997 164H70.9997V171H63.9997V164ZM62.9998 164H55.9998V171H62.9998V164ZM54.9999 164H47.9999V171H54.9999V164ZM40 164H47V171H40V164ZM62.9998 172H55.9998V179H62.9998V172ZM63.9997 172H70.9997V179H63.9997V172ZM70.9997 180H63.9997V187H70.9997V180ZM55.9998 180H62.9998V187H55.9998V180ZM54.9999 172H47.9999V179H54.9999V172ZM47.9999 180H54.9999V187H47.9999V180ZM47 172H40V179H47V172ZM40 180H47V187H40V180ZM62.9998 188H55.9998V195H62.9998V188ZM63.9997 188H70.9997V195H63.9997V188ZM70.9997 196H63.9997V203H70.9997V196ZM55.9998 196H62.9998V203H55.9998V196ZM54.9999 188H47.9999V195H54.9999V188ZM47.9999 196H54.9999V203H47.9999V196ZM47 188H40V195H47V188ZM40 196H47V203H40V196ZM62.9998 204H55.9998V211H62.9998V204ZM63.9997 204H70.9997V211H63.9997V204ZM70.9997 212H63.9997V219H70.9997V212ZM55.9998 212H62.9998V219H55.9998V212ZM54.9999 204H47.9999V211H54.9999V204ZM47.9999 212H54.9999V219H47.9999V212ZM47 204H40V211H47V204ZM40 212H47V219H40V212ZM62.9998 220H55.9998V227H62.9998V220ZM63.9997 220H70.9997V227H63.9997V220ZM70.9997 228H63.9997V235H70.9997V228ZM55.9998 228H62.9998V235H55.9998V228ZM54.9999 220H47.9999V227H54.9999V220ZM47.9999 228H54.9999V235H47.9999V228ZM47 220H40V227H47V220ZM40 228H47V235H40V228ZM62.9998 236H55.9998V243H62.9998V236ZM63.9997 236H70.9997V243H63.9997V236ZM70.9997 244H63.9997V251H70.9997V244ZM55.9998 244H62.9998V251H55.9998V244ZM54.9999 236H47.9999V243H54.9999V236ZM47.9999 244H54.9999V251H47.9999V244ZM47 236H40V243H47V236ZM40 244H47V251H40V244ZM62.9998 252H55.9998V259H62.9998V252ZM63.9997 252H70.9997V259H63.9997V252ZM70.9997 260H63.9997V267H70.9997V260ZM55.9998 260H62.9998V267H55.9998V260ZM54.9999 252H47.9999V259H54.9999V252ZM47.9999 260H54.9999V267H47.9999V260ZM47 252H40V259H47V252ZM40 260H47V267H40V260ZM62.9998 268H55.9998V275H62.9998V268ZM63.9997 268H70.9997V275H63.9997V268ZM70.9997 276H63.9997V283H70.9997V276ZM55.9998 276H62.9998V283H55.9998V276ZM54.9999 268H47.9999V275H54.9999V268ZM47.9999 276H54.9999V283H47.9999V276ZM47 268H40V275H47V268ZM40 276H47V283H40V276ZM62.9998 284H55.9998V291H62.9998V284ZM63.9997 284H70.9997V291H63.9997V284ZM70.9997 292H63.9997V299H70.9997V292ZM55.9998 292H62.9998V299H55.9998V292ZM54.9999 284H47.9999V291H54.9999V284ZM47.9999 292H54.9999V299H47.9999V292ZM47 284H40V291H47V284ZM40 292H47V299H40V292ZM62.9998 300H55.9998V307H62.9998V300ZM63.9997 300H70.9997V307H63.9997V300ZM70.9997 308H63.9997V315H70.9997V308ZM55.9998 308H62.9998V315H55.9998V308ZM54.9999 300H47.9999V307H54.9999V300ZM47.9999 308H54.9999V315H47.9999V308ZM47 300H40V307H47V300ZM40 308H47V315H40V308ZM143 316H136V323H143V316ZM136 308H143V315H136V308ZM135 308H128V315H135V308ZM128 316H135V323H128V316ZM119 308H112V315H119V308ZM120 308H127V315H120V308ZM127 316H120V323H127V316ZM112 316H119V323H112V316ZM103 308H96.0001V315H103V308ZM104 308H111V315H104V308ZM111 316H104V323H111V316ZM96.0001 316H103V323H96.0001V316ZM87.0003 308H80.0003V315H87.0003V308ZM88.0002 308H95.0001V315H88.0002V308ZM95.0001 316H88.0002V323H95.0001V316ZM80.0003 316H87.0003V323H80.0003V316ZM78.9996 308H71.9996V315H78.9996V308ZM71.9996 316H78.9996V323H71.9996V316ZM167 308H160V315H167V308ZM151.999 308H158.999V315H151.999V308ZM158.999 316H151.999V323H158.999V316ZM143.999 308H150.999V315H143.999V308ZM150.999 316H143.999V323H150.999V316ZM136 164H143V171H136V164ZM143 156H136V163H143V156ZM128 156H135V163H128V156ZM135 164H128V171H135V164ZM112 156H119V163H112V156ZM127 156H120V163H127V156ZM120 164H127V171H120V164ZM119 164H112V171H119V164ZM96.0001 156H103V163H96.0001V156ZM111 156H104V163H111V156ZM104 164H111V171H104V164ZM103 164H96.0001V171H103V164ZM80.0003 156H87.0003V163H80.0003V156ZM95.0001 156H88.0002V163H95.0001V156ZM88.0002 164H95.0001V171H88.0002V164ZM87.0003 164H80.0003V171H87.0003V164ZM71.9996 156H78.9996V163H71.9996V156ZM78.9996 164H71.9996V171H78.9996V164ZM160 156H167V163H160V156ZM167 164H160V171H167V164ZM151.999 156H158.999V163H151.999V156ZM158.999 164H151.999V171H158.999V164ZM143.999 156H150.999V163H143.999V156ZM150.999 164H143.999V171H150.999V164ZM128 36H135V43H128V36ZM135 44H128V51H135V44ZM112 36H119V43H112V36ZM127 36H120V43H127V36ZM120 44H127V51H120V44ZM119 44H112V51H119V44ZM160 60H167V67H160V60ZM167 52H160V59H167V52ZM151.999 52H158.999V59H151.999V52ZM158.999 60H151.999V67H158.999V60ZM136 52H143V59H136V52ZM150.999 52H143.999V59H150.999V52ZM143.999 60H150.999V67H143.999V60ZM143 60H136V67H143V60ZM160 68H167V75H160V68ZM158.999 68H151.999V75H158.999V68ZM136 68H143V75H136V68ZM150.999 68H143.999V75H150.999V68ZM96.0001 36H103V43H96.0001V36ZM111 36H104V43H111V36ZM104 44H111V51H104V44ZM103 44H96.0001V51H103V44ZM80.0003 36H87.0003V43H80.0003V36ZM95.0001 36H88.0002V43H95.0001V36ZM88.0002 44H95.0001V51H88.0002V44ZM87.0003 44H80.0003V51H87.0003V44ZM71.9996 36H78.9996V43H71.9996V36ZM78.9996 44H71.9996V51H78.9996V44ZM160 44H167V51H160V44ZM158.999 36H151.999V43H158.999V36ZM151.999 44H158.999V51H151.999V44ZM150.999 36H143.999V43H150.999V36ZM143.999 44H150.999V51H143.999V44ZM54.9999 316H47.9999V323H54.9999V316ZM55.9998 316H62.9998V323H55.9998V316ZM70.9997 316H63.9997V323H70.9997V316ZM40 156H47V163H40V156ZM62.9998 108H55.9998V115H62.9998V108ZM63.9997 108H70.9997V115H63.9997V108ZM70.9997 116H63.9997V123H70.9997V116ZM55.9998 116H62.9998V123H55.9998V116ZM54.9999 108H47.9999V115H54.9999V108ZM47.9999 116H54.9999V123H47.9999V116ZM47 116H40V123H47V116ZM55.9998 124H62.9998V131H55.9998V124ZM70.9997 124H63.9997V131H70.9997V124ZM63.9997 132H70.9997V139H63.9997V132ZM62.9998 132H55.9998V139H62.9998V132ZM47.9999 124H54.9999V131H47.9999V124ZM54.9999 132H47.9999V139H54.9999V132ZM40 124H47V131H40V124ZM47 132H40V139H47V132ZM55.9998 140H62.9998V147H55.9998V140ZM70.9997 140H63.9997V147H70.9997V140ZM63.9997 148H70.9997V155H63.9997V148ZM62.9998 148H55.9998V155H62.9998V148ZM47.9999 140H54.9999V147H47.9999V140ZM54.9999 148H47.9999V155H54.9999V148ZM40 140H47V147H40V140ZM47 148H40V155H47V148ZM40 108H47V115H40V108ZM62.9998 76H55.9998V83H62.9998V76ZM63.9997 76H70.9997V83H63.9997V76ZM70.9997 84H63.9997V91H70.9997V84ZM55.9998 84H62.9998V91H55.9998V84ZM54.9999 76H47.9999V83H54.9999V76ZM47.9999 84H54.9999V91H47.9999V84ZM47 84H40V91H47V84ZM55.9998 92H62.9998V99H55.9998V92ZM70.9997 92H63.9997V99H70.9997V92ZM63.9997 100H70.9997V107H63.9997V100ZM62.9998 100H55.9998V107H62.9998V100ZM47.9999 92H54.9999V99H47.9999V92ZM54.9999 100H47.9999V107H54.9999V100ZM40 92H47V99H40V92ZM47 100H40V107H47V100ZM40 76H47V83H40V76ZM62.9998 68H55.9998V75H62.9998V68ZM63.9997 68H70.9997V75H63.9997V68ZM54.9999 68H47.9999V75H54.9999V68ZM40 68H47V75H40V68ZM62.9998 36H55.9998V43H62.9998V36ZM63.9997 36H70.9997V43H63.9997V36ZM70.9997 44H63.9997V51H70.9997V44ZM55.9998 44H62.9998V51H55.9998V44ZM54.9999 36H47.9999V43H54.9999V36ZM47.9999 44H54.9999V51H47.9999V44ZM47 44H40V51H47V44ZM55.9998 52H62.9998V59H55.9998V52ZM70.9997 52H63.9997V59H70.9997V52ZM63.9997 60H70.9997V67H63.9997V60ZM62.9998 60H55.9998V67H62.9998V60ZM47.9999 52H54.9999V59H47.9999V52ZM54.9999 60H47.9999V67H54.9999V60ZM40 52H47V59H40V52ZM47 60H40V67H47V60ZM136 300H143V307H136V300ZM143 292H136V299H143V292ZM160 292H167V299H160V292ZM158.999 292H151.999V299H158.999V292ZM151.999 300H158.999V307H151.999V300ZM150.999 292H143.999V299H150.999V292ZM143.999 300H150.999V307H143.999V300ZM167 300H160V307H167V300ZM136 284H143V291H136V284ZM158.999 284H151.999V291H158.999V284ZM143.999 284H150.999V291H143.999V284ZM167 284H160V291H167V284Z" fill="url(#paint6_linear_366_2)"/>
</g>
</g>
<defs>
<filter id="filter0_d_366_2" x="839" y="0" width="207" height="367" filterUnits="userSpaceOnUse" color-interpolation-filters="sRGB">
<feFlood flood-opacity="0" result="BackgroundImageFix"/>
<feColorMatrix in="SourceAlpha" type="matrix" values="0 0 0 0 0 0 0 0 0 0 0 0 0 0 0 0 0 0 127 0" result="hardAlpha"/>
<feOffset dy="4"/>
<feGaussianBlur stdDeviation="20"/>
<feComposite in2="hardAlpha" operator="out"/>
<feColorMatrix type="matrix" values="0 0 0 0 0.819608 0 0 0 0 0.305882 0 0 0 0 1 0 0 0 1 0"/>
<feBlend mode="normal" in2="BackgroundImageFix" result="effect1_dropShadow_366_2"/>
<feBlend mode="normal" in="SourceGraphic" in2="effect1_dropShadow_366_2" result="shape"/>
</filter>
<filter id="filter1_d_366_2" x="702" y="0" width="207" height="295" filterUnits="userSpaceOnUse" color-interpolation-filters="sRGB">
<feFlood flood-opacity="0" result="BackgroundImageFix"/>
<feColorMatrix in="SourceAlpha" type="matrix" values="0 0 0 0 0 0 0 0 0 0 0 0 0 0 0 0 0 0 127 0" result="hardAlpha"/>
<feOffset dy="4"/>
<feGaussianBlur stdDeviation="20"/>
<feComposite in2="hardAlpha" operator="out"/>
<feColorMatrix type="matrix" values="0 0 0 0 0.819608 0 0 0 0 0.305882 0 0 0 0 1 0 0 0 1 0"/>
<feBlend mode="normal" in2="BackgroundImageFix" result="effect1_dropShadow_366_2"/>
<feBlend mode="normal" in="SourceGraphic" in2="effect1_dropShadow_366_2" result="shape"/>
</filter>
<filter id="filter2_d_366_2" x="565" y="0" width="207" height="255" filterUnits="userSpaceOnUse" color-interpolation-filters="sRGB">
<feFlood flood-opacity="0" result="BackgroundImageFix"/>
<feColorMatrix in="SourceAlpha" type="matrix" values="0 0 0 0 0 0 0 0 0 0 0 0 0 0 0 0 0 0 127 0" result="hardAlpha"/>
<feOffset dy="4"/>
<feGaussianBlur stdDeviation="20"/>
<feComposite in2="hardAlpha" operator="out"/>
<feColorMatrix type="matrix" values="0 0 0 0 0.819608 0 0 0 0 0.305882 0 0 0 0 1 0 0 0 1 0"/>
<feBlend mode="normal" in2="BackgroundImageFix" result="effect1_dropShadow_366_2"/>
<feBlend mode="normal" in="SourceGraphic" in2="effect1_dropShadow_366_2" result="shape"/>
</filter>
<filter id="filter3_d_366_2" x="411.5" y="0" width="223" height="239" filterUnits="userSpaceOnUse" color-interpolation-filters="sRGB">
<feFlood flood-opacity="0" result="BackgroundImageFix"/>
<feColorMatrix in="SourceAlpha" type="matrix" values="0 0 0 0 0 0 0 0 0 0 0 0 0 0 0 0 0 0 127 0" result="hardAlpha"/>
<feOffset dy="4"/>
<feGaussianBlur stdDeviation="20"/>
<feComposite in2="hardAlpha" operator="out"/>
<feColorMatrix type="matrix" values="0 0 0 0 0.819608 0 0 0 0 0.305882 0 0 0 0 1 0 0 0 1 0"/>
<feBlend mode="normal" in2="BackgroundImageFix" result="effect1_dropShadow_366_2"/>
<feBlend mode="normal" in="SourceGraphic" in2="effect1_dropShadow_366_2" result="shape"/>
</filter>
<filter id="filter4_d_366_2" x="274" y="0" width="207" height="247" filterUnits="userSpaceOnUse" color-interpolation-filters="sRGB">
<feFlood flood-opacity="0" result="BackgroundImageFix"/>
<feColorMatrix in="SourceAlpha" type="matrix" values="0 0 0 0 0 0 0 0 0 0 0 0 0 0 0 0 0 0 127 0" result="hardAlpha"/>
<feOffset dy="4"/>
<feGaussianBlur stdDeviation="20"/>
<feComposite in2="hardAlpha" operator="out"/>
<feColorMatrix type="matrix" values="0 0 0 0 0.819608 0 0 0 0 0.305882 0 0 0 0 1 0 0 0 1 0"/>
<feBlend mode="normal" in2="BackgroundImageFix" result="effect1_dropShadow_366_2"/>
<feBlend mode="normal" in="SourceGraphic" in2="effect1_dropShadow_366_2" result="shape"/>
</filter>
<filter id="filter5_d_366_2" x="137" y="0" width="207" height="295" filterUnits="userSpaceOnUse" color-interpolation-filters="sRGB">
<feFlood flood-opacity="0" result="BackgroundImageFix"/>
<feColorMatrix in="SourceAlpha" type="matrix" values="0 0 0 0 0 0 0 0 0 0 0 0 0 0 0 0 0 0 127 0" result="hardAlpha"/>
<feOffset dy="4"/>
<feGaussianBlur stdDeviation="20"/>
<feComposite in2="hardAlpha" operator="out"/>
<feColorMatrix type="matrix" values="0 0 0 0 0.819608 0 0 0 0 0.305882 0 0 0 0 1 0 0 0 1 0"/>
<feBlend mode="normal" in2="BackgroundImageFix" result="effect1_dropShadow_366_2"/>
<feBlend mode="normal" in="SourceGraphic" in2="effect1_dropShadow_366_2" result="shape"/>
</filter>
<filter id="filter6_d_366_2" x="0" y="0" width="207" height="367" filterUnits="userSpaceOnUse" color-interpolation-filters="sRGB">
<feFlood flood-opacity="0" result="BackgroundImageFix"/>
<feColorMatrix in="SourceAlpha" type="matrix" values="0 0 0 0 0 0 0 0 0 0 0 0 0 0 0 0 0 0 127 0" result="hardAlpha"/>
<feOffset dy="4"/>
<feGaussianBlur stdDeviation="20"/>
<feComposite in2="hardAlpha" operator="out"/>
<feColorMatrix type="matrix" values="0 0 0 0 0.819608 0 0 0 0 0.305882 0 0 0 0 1 0 0 0 1 0"/>
<feBlend mode="normal" in2="BackgroundImageFix" result="effect1_dropShadow_366_2"/>
<feBlend mode="normal" in="SourceGraphic" in2="effect1_dropShadow_366_2" result="shape"/>
</filter>
<linearGradient id="paint0_linear_366_2" x1="942.5" y1="36" x2="942.5" y2="323" gradientUnits="userSpaceOnUse">
<stop stop-color="#DDB0F9"/>
<stop offset="1" stop-color="#5F0A94"/>
</linearGradient>
<linearGradient id="paint1_linear_366_2" x1="805.5" y1="36" x2="806" y2="322.5" gradientUnits="userSpaceOnUse">
<stop stop-color="#DDB0F9"/>
<stop offset="1" stop-color="#600B95"/>
</linearGradient>
<linearGradient id="paint2_linear_366_2" x1="668.5" y1="36" x2="669" y2="322.5" gradientUnits="userSpaceOnUse">
<stop stop-color="#DDB0F9"/>
<stop offset="1" stop-color="#5F0A94"/>
</linearGradient>
<linearGradient id="paint3_linear_366_2" x1="523.45" y1="36" x2="522.809" y2="322.5" gradientUnits="userSpaceOnUse">
<stop stop-color="#DDB0F9"/>
<stop offset="1" stop-color="#5F0A94"/>
</linearGradient>
<linearGradient id="paint4_linear_366_2" x1="377.5" y1="36" x2="378" y2="322.5" gradientUnits="userSpaceOnUse">
<stop stop-color="#DDB0F9"/>
<stop offset="1" stop-color="#600B94"/>
</linearGradient>
<linearGradient id="paint5_linear_366_2" x1="240.5" y1="36" x2="241" y2="322.5" gradientUnits="userSpaceOnUse">
<stop stop-color="#DDB0F9"/>
<stop offset="1" stop-color="#5F0A94"/>
</linearGradient>
<linearGradient id="paint6_linear_366_2" x1="103.5" y1="36" x2="103.5" y2="323" gradientUnits="userSpaceOnUse">
<stop stop-color="#DDB0F9"/>
<stop offset="1" stop-color="#5F0A94"/>
</linearGradient>
</defs>
</svg>
